<svg width="693" height="438" viewBox="0 0 693 438" fill="none" xmlns="http://www.w3.org/2000/svg">
<mask id="path-1-outside-1_396_52" maskUnits="userSpaceOnUse" x="-29" y="-2" width="724" height="442" fill="black">
<rect fill="white" x="-29" y="-2" width="724" height="442"/>
<path d="M88 8.99997H180.4V429H73V121.8L-0.2 140.4L-26 49.8L88 8.99997ZM350.838 215.4C319.638 215.4 293.438 205 272.238 184.2C251.038 163 240.438 137.4 240.438 107.4C240.438 77.4 251.038 52 272.238 31.2C293.438 10.4 319.638 -2.00272e-05 350.838 -2.00272e-05C382.038 -2.00272e-05 408.038 10.4 428.838 31.2C449.638 52 460.038 77.4 460.038 107.4C460.038 137.8 449.438 163.4 428.238 184.2C407.438 205 381.638 215.4 350.838 215.4ZM302.838 363L578.838 63L620.838 87L344.238 386.4L302.838 363ZM350.238 139.2C359.438 139.2 366.838 136.2 372.438 130.2C378.438 123.8 381.438 116.2 381.438 107.4C381.438 98.6 378.438 91.2 372.438 85.2C366.838 79.2 359.438 76.2 350.238 76.2C341.438 76.2 334.038 79.2 328.038 85.2C322.438 91.2 319.638 98.6 319.638 107.4C319.638 116.6 322.438 124.2 328.038 130.2C334.038 136.2 341.438 139.2 350.238 139.2ZM583.038 437.4C551.438 437.4 525.038 427 503.838 406.2C483.038 385.4 472.638 360 472.638 330C472.638 299.6 483.038 274 503.838 253.2C525.038 232.4 551.438 222 583.038 222C614.238 222 640.238 232.6 661.038 253.8C681.838 274.6 692.238 300 692.238 330C692.238 360 681.638 385.4 660.438 406.2C639.638 427 613.838 437.4 583.038 437.4ZM560.238 352.2C566.238 358.2 573.638 361.2 582.438 361.2C591.238 361.2 598.438 358.2 604.038 352.2C610.038 345.8 613.038 338.4 613.038 330C613.038 320.8 610.038 313.2 604.038 307.2C598.438 301.2 591.238 298.2 582.438 298.2C573.638 298.2 566.238 301.2 560.238 307.2C554.638 313.2 551.838 320.8 551.838 330C551.838 338.8 554.638 346.2 560.238 352.2Z"/>
</mask>
<path d="M88 8.99997V6.99997H87.6529L87.3261 7.11694L88 8.99997ZM180.4 8.99997H182.4V6.99997H180.4V8.99997ZM180.4 429V431H182.4V429H180.4ZM73 429H71V431H73V429ZM73 121.8H75V119.228L72.5075 119.862L73 121.8ZM-0.199999 140.4L-2.12353 140.948L-1.59121 142.817L0.292545 142.338L-0.199999 140.4ZM-26 49.8L-26.6739 47.9169L-28.4361 48.5476L-27.9235 50.3477L-26 49.8ZM88 11H180.4V6.99997H88V11ZM178.4 8.99997V429H182.4V8.99997H178.4ZM180.4 427H73V431H180.4V427ZM75 429V121.8H71V429H75ZM72.5075 119.862L-0.692545 138.462L0.292545 142.338L73.4925 123.738L72.5075 119.862ZM1.72353 139.852L-24.0765 49.2522L-27.9235 50.3477L-2.12353 140.948L1.72353 139.852ZM-25.3261 51.683L88.6739 10.883L87.3261 7.11694L-26.6739 47.9169L-25.3261 51.683ZM272.238 184.2L270.823 185.614L270.83 185.621L270.837 185.628L272.238 184.2ZM272.238 31.2L270.837 29.7724L272.238 31.2ZM428.837 31.2L430.252 29.7858L428.837 31.2ZM428.238 184.2L426.837 182.772L426.83 182.779L426.823 182.786L428.238 184.2ZM302.837 363L301.366 361.646L299.659 363.501L301.853 364.741L302.837 363ZM578.838 63L579.83 61.2635L578.445 60.4724L577.366 61.6459L578.838 63ZM620.838 87L622.307 88.3571L624.012 86.5107L621.83 85.2635L620.838 87ZM344.237 386.4L343.253 388.141L344.632 388.92L345.707 387.757L344.237 386.4ZM372.438 130.2L370.978 128.832L370.975 128.835L372.438 130.2ZM372.438 85.2L370.975 86.5646L370.999 86.5898L371.023 86.6142L372.438 85.2ZM328.038 85.2L326.623 83.7858L326.599 83.8102L326.575 83.8354L328.038 85.2ZM328.038 130.2L326.575 131.565L326.599 131.59L326.623 131.614L328.038 130.2ZM503.838 406.2L502.423 407.614L502.43 407.621L502.437 407.628L503.838 406.2ZM503.838 253.2L502.437 251.772L502.43 251.779L502.423 251.786L503.838 253.2ZM661.038 253.8L659.61 255.201L659.617 255.207L659.623 255.214L661.038 253.8ZM660.438 406.2L659.037 404.772L659.03 404.779L659.023 404.786L660.438 406.2ZM560.237 352.2L558.775 353.565L558.799 353.59L558.823 353.614L560.237 352.2ZM604.038 352.2L602.578 350.832L602.575 350.835L604.038 352.2ZM604.038 307.2L602.575 308.565L602.599 308.59L602.623 308.614L604.038 307.2ZM560.237 307.2L558.823 305.786L558.799 305.81L558.775 305.835L560.237 307.2ZM350.837 213.4C320.132 213.4 294.444 203.185 273.638 182.772L270.837 185.628C292.431 206.815 319.143 217.4 350.837 217.4V213.4ZM273.652 182.786C252.827 161.961 242.438 136.87 242.438 107.4H238.438C238.438 137.93 249.248 164.039 270.823 185.614L273.652 182.786ZM242.438 107.4C242.438 77.9309 252.826 53.0472 273.638 32.6276L270.837 29.7724C249.249 50.9527 238.438 76.8691 238.438 107.4H242.438ZM273.638 32.6276C294.444 12.2145 320.132 1.99998 350.837 1.99998V-2.00002C319.143 -2.00002 292.431 8.58543 270.837 29.7724L273.638 32.6276ZM350.837 1.99998C381.543 1.99998 407.023 12.2138 427.423 32.6142L430.252 29.7858C409.052 8.58617 382.532 -2.00002 350.837 -2.00002V1.99998ZM427.423 32.6142C447.84 53.0309 458.038 77.9186 458.038 107.4H462.038C462.038 76.8814 451.435 50.9691 430.252 29.7858L427.423 32.6142ZM458.038 107.4C458.038 137.277 447.643 162.358 426.837 182.772L429.638 185.628C451.232 164.442 462.038 138.323 462.038 107.4H458.038ZM426.823 182.786C406.418 203.191 381.135 213.4 350.837 213.4V217.4C382.14 217.4 408.457 206.809 429.652 185.614L426.823 182.786ZM304.309 364.354L580.309 64.3541L577.366 61.6459L301.366 361.646L304.309 364.354ZM577.845 64.7365L619.845 88.7365L621.83 85.2635L579.83 61.2635L577.845 64.7365ZM619.368 85.6428L342.768 385.043L345.707 387.757L622.307 88.3571L619.368 85.6428ZM345.222 384.659L303.822 361.259L301.853 364.741L343.253 388.141L345.222 384.659ZM350.238 141.2C359.918 141.2 367.874 138.021 373.9 131.565L370.975 128.835C365.801 134.379 358.957 137.2 350.238 137.2V141.2ZM373.897 131.568C380.245 124.796 383.438 116.706 383.438 107.4H379.438C379.438 115.694 376.63 122.804 370.978 128.832L373.897 131.568ZM383.438 107.4C383.438 98.0915 380.242 90.1761 373.852 83.7858L371.023 86.6142C376.633 92.2239 379.438 99.1085 379.438 107.4H383.438ZM373.9 83.8354C367.874 77.3789 359.918 74.2 350.238 74.2V78.2C358.957 78.2 365.801 81.0211 370.975 86.5646L373.9 83.8354ZM350.238 74.2C340.929 74.2 333.014 77.3955 326.623 83.7858L329.452 86.6142C335.061 81.0045 341.946 78.2 350.238 78.2V74.2ZM326.575 83.8354C320.603 90.234 317.638 98.1335 317.638 107.4H321.638C321.638 99.0665 324.272 92.166 329.5 86.5646L326.575 83.8354ZM317.638 107.4C317.638 117.04 320.587 125.149 326.575 131.565L329.5 128.835C324.288 123.251 321.638 116.16 321.638 107.4H317.638ZM326.623 131.614C333.014 138.005 340.929 141.2 350.238 141.2V137.2C341.946 137.2 335.061 134.395 329.452 128.786L326.623 131.614ZM583.037 435.4C551.924 435.4 526.039 425.18 505.238 404.772L502.437 407.628C524.036 428.82 550.951 439.4 583.037 439.4V435.4ZM505.252 404.786C484.835 384.369 474.638 359.481 474.638 330H470.638C470.638 360.519 481.24 386.431 502.423 407.614L505.252 404.786ZM474.638 330C474.638 300.111 484.841 275.025 505.252 254.614L502.423 251.786C481.234 272.975 470.638 299.089 470.638 330H474.638ZM505.238 254.628C526.039 234.22 551.924 224 583.037 224V220C550.951 220 524.036 230.58 502.437 251.772L505.238 254.628ZM583.037 224C613.731 224 639.207 234.405 659.61 255.201L662.465 252.399C641.268 230.795 614.744 220 583.037 220V224ZM659.623 255.214C680.04 275.631 690.238 300.519 690.238 330H694.238C694.238 299.481 683.635 273.569 662.452 252.386L659.623 255.214ZM690.238 330C690.238 359.469 679.849 384.353 659.037 404.772L661.838 407.628C683.426 386.447 694.238 360.531 694.238 330H690.238ZM659.023 404.786C638.618 425.192 613.335 435.4 583.037 435.4V439.4C614.34 439.4 640.657 428.808 661.852 407.614L659.023 404.786ZM558.823 353.614C565.214 360.005 573.129 363.2 582.438 363.2V359.2C574.146 359.2 567.261 356.395 561.652 350.786L558.823 353.614ZM582.438 363.2C591.747 363.2 599.492 360.002 605.5 353.565L602.575 350.835C597.383 356.398 590.728 359.2 582.438 359.2V363.2ZM605.497 353.568C611.827 346.815 615.038 338.932 615.038 330H611.038C611.038 337.868 608.248 344.785 602.578 350.832L605.497 353.568ZM615.038 330C615.038 320.319 611.86 312.194 605.452 305.786L602.623 308.614C608.215 314.206 611.038 321.281 611.038 330H615.038ZM605.5 305.835C599.492 299.398 591.747 296.2 582.438 296.2V300.2C590.728 300.2 597.383 303.002 602.575 308.565L605.5 305.835ZM582.438 296.2C573.129 296.2 565.214 299.395 558.823 305.786L561.652 308.614C567.261 303.005 574.146 300.2 582.438 300.2V296.2ZM558.775 305.835C552.787 312.251 549.838 320.36 549.838 330H553.838C553.838 321.24 556.488 314.149 561.7 308.565L558.775 305.835ZM549.838 330C549.838 339.267 552.803 347.166 558.775 353.565L561.7 350.835C556.472 345.234 553.838 338.333 553.838 330H549.838Z" fill="url(#paint0_linear_396_52)" mask="url(#path-1-outside-1_396_52)"/>
<defs>
<linearGradient id="paint0_linear_396_52" x1="87.5" y1="13" x2="342.5" y2="595" gradientUnits="userSpaceOnUse">
<stop stop-color="#6637ED"/>
<stop offset="1" stop-color="#1E1E1E"/>
</linearGradient>
</defs>
</svg>
