<svg width="360" height="325" viewBox="0 0 360 325" fill="none" xmlns="http://www.w3.org/2000/svg">
<path d="M-33.1296 267.122L-13.2782 228.384L4.25347 194.172H-37.0459L-19.8119 167.205L-4.78739 143.695H-41.107L-26.8328 124.68L-13.6906 107.173C-24.1299 107.13 -33.9721 107.088 -43.0905 107.047L-29.8962 90.3245L-18.9338 76.4305L-8.94575 63.7714L0.555035 51.7299H27.9285H53.9849H77.2478H103.383H129.21H152.518H174.005H199.828H224.442H249.235H273.448H297.529H324.731H355.703L365.244 63.7714L375.275 76.4305L386.285 90.3245L399.778 107.354L413.507 124.68H380.201L394.66 143.695L412.536 167.205H372.571L390.096 194.172L411.752 227.497C397.334 227.682 381.239 227.872 363.921 228.059L383.965 267.122H333.082H279.317H226.774H174.005H126.999H75.2946H19.7514H-33.1296Z" fill="url(#paint0_linear_1123_486)"/>
<path d="M-45 290.287L81.6771 43.0865M-45 206.619L59.5086 43.0865M-45 148.881L34.4168 43.0865M-45 109.468L-43.0905 107.047M0.555033 316.562L109.692 35.4803M62.9191 316.562L131.373 43.0865M121.142 316.562L153.542 43.0865M174.005 316.562V43.0865M232.959 316.562L199.828 51.7299M291.912 316.562L222.24 43.0865M352.328 316.562L245.87 43.0865M409.332 316.562L269.013 43.0865M422 243.267L291.912 43.0865M422 179.652L312.376 35.4803M422 135.398L386.285 90.3245M342.827 35.4803L365.244 63.7714M398.37 51.7299H0.555033L-8.94575 63.7714M-8.94575 63.7714C137.415 64.9251 301.498 64.2521 365.244 63.7714M-8.94575 63.7714L-18.9338 76.4305M365.244 63.7714L375.275 76.4305M-18.9338 76.4305H375.275M-18.9338 76.4305L-29.8962 90.3245M375.275 76.4305L386.285 90.3245M-29.8962 90.3245H386.285M-29.8962 90.3245L-43.0905 107.047M386.285 90.3245H409.332M419.808 107.047C358.223 108.43 85.5486 107.624 -43.0905 107.047M-45 124.68H422M422 143.695H-45M-45 167.205H422M422 194.172H-45M-45 227.363C38.6069 231.235 301.17 228.976 422 227.363M422 267.122H-45" stroke="#6D6B6B"/>
<rect width="360" height="325" fill="url(#paint1_linear_1123_486)"/>
<defs>
<linearGradient id="paint0_linear_1123_486" x1="188.5" y1="35.4803" x2="188.5" y2="316.562" gradientUnits="userSpaceOnUse">
<stop stop-color="#1B1B1B"/>
<stop offset="0.515625" stop-color="#1B1B1B" stop-opacity="0.48"/>
<stop offset="1" stop-color="#1B1B1B"/>
</linearGradient>
<linearGradient id="paint1_linear_1123_486" x1="180" y1="0" x2="180" y2="325" gradientUnits="userSpaceOnUse">
<stop stop-color="#1B1B1B"/>
<stop offset="0.515625" stop-color="#1B1B1B" stop-opacity="0.48"/>
<stop offset="1" stop-color="#1B1B1B"/>
</linearGradient>
</defs>
</svg>
