<svg width="57" height="61" viewBox="0 0 57 61" fill="none" xmlns="http://www.w3.org/2000/svg">
<path d="M53.4375 5.71423L39.175 5.71429V1.91513C39.175 0.861927 38.3779 0.00888062 37.3938 0.00888062C36.4096 0.00888062 35.6125 0.861927 35.6125 1.91513V5.71333H21.3625V1.91513C21.3625 0.861927 20.5654 0.00888062 19.5813 0.00888062C18.5971 0.00888062 17.8 0.861927 17.8 1.91513V5.71333H3.5625C1.59511 5.71333 0 7.42038 0 9.52584V57.1821C0 59.2875 1.59511 60.9946 3.5625 60.9946H53.4375C55.4049 60.9946 57 59.2875 57 57.1821V9.52584C57 7.42127 55.4049 5.71423 53.4375 5.71423ZM53.4375 57.1821H3.5625V9.52584H17.8V11.4464C17.8 12.4995 18.5971 13.3526 19.5813 13.3526C20.5654 13.3526 21.3625 12.4995 21.3625 11.4464V9.52679H35.6125V11.4473C35.6125 12.5005 36.4096 13.3536 37.3938 13.3536C38.3779 13.3536 39.175 12.5005 39.175 11.4473V9.52679H53.4375V57.1821ZM40.9688 30.4955H44.5312C45.5145 30.4955 46.3125 29.6415 46.3125 28.5892V24.7767C46.3125 23.7245 45.5145 22.8705 44.5312 22.8705H40.9688C39.9855 22.8705 39.1875 23.7245 39.1875 24.7767V28.5892C39.1875 29.6415 39.9855 30.4955 40.9688 30.4955ZM40.9688 45.7445H44.5312C45.5145 45.7445 46.3125 44.8915 46.3125 43.8383V40.0258C46.3125 38.9735 45.5145 38.1195 44.5312 38.1195H40.9688C39.9855 38.1195 39.1875 38.9735 39.1875 40.0258V43.8383C39.1875 44.8924 39.9855 45.7445 40.9688 45.7445ZM30.2812 38.1195H26.7188C25.7355 38.1195 24.9375 38.9735 24.9375 40.0258V43.8383C24.9375 44.8915 25.7355 45.7445 26.7188 45.7445H30.2812C31.2645 45.7445 32.0625 44.8915 32.0625 43.8383V40.0258C32.0625 38.9745 31.2645 38.1195 30.2812 38.1195ZM30.2812 22.8705H26.7188C25.7355 22.8705 24.9375 23.7245 24.9375 24.7767V28.5892C24.9375 29.6415 25.7355 30.4955 26.7188 30.4955H30.2812C31.2645 30.4955 32.0625 29.6415 32.0625 28.5892V24.7767C32.0625 23.7235 31.2645 22.8705 30.2812 22.8705ZM16.0312 22.8705H12.4688C11.4855 22.8705 10.6875 23.7245 10.6875 24.7767V28.5892C10.6875 29.6415 11.4855 30.4955 12.4688 30.4955H16.0312C17.0145 30.4955 17.8125 29.6415 17.8125 28.5892V24.7767C17.8125 23.7235 17.0145 22.8705 16.0312 22.8705ZM16.0312 38.1195H12.4688C11.4855 38.1195 10.6875 38.9735 10.6875 40.0258V43.8383C10.6875 44.8915 11.4855 45.7445 12.4688 45.7445H16.0312C17.0145 45.7445 17.8125 44.8915 17.8125 43.8383V40.0258C17.8125 38.9745 17.0145 38.1195 16.0312 38.1195Z" fill="#844CFE"/>
</svg>
