<svg width="104" height="104" viewBox="0 0 104 104" fill="none" xmlns="http://www.w3.org/2000/svg">
<g clip-path="url(#clip0_175_112)">
<path d="M97.5 9.74202L71.4772 9.74212V3.26487C71.4772 1.46924 70.0229 0.0148697 68.2272 0.0148697C66.4316 0.0148697 64.9772 1.46924 64.9772 3.26487V9.7405H38.9772V3.26487C38.9772 1.46924 37.5229 0.0148697 35.7272 0.0148697C33.9316 0.0148697 32.4772 1.46924 32.4772 3.26487V9.7405H6.5C2.91037 9.7405 0 12.6509 0 16.2405V97.4905C0 101.08 2.91037 103.991 6.5 103.991H97.5C101.09 103.991 104 101.08 104 97.4905V16.2405C104 12.6524 101.09 9.74202 97.5 9.74202ZM97.5 97.4905H6.5V16.2405H32.4772V19.5149C32.4772 21.3104 33.9316 22.7649 35.7272 22.7649C37.5229 22.7649 38.9772 21.3104 38.9772 19.5149V16.2421H64.9772V19.5165C64.9772 21.3121 66.4316 22.7665 68.2272 22.7665C70.0229 22.7665 71.4772 21.3121 71.4772 19.5165V16.2421H97.5V97.4905ZM74.75 51.992H81.25C83.044 51.992 84.5 50.536 84.5 48.742V42.242C84.5 40.448 83.044 38.992 81.25 38.992H74.75C72.956 38.992 71.5 40.448 71.5 42.242V48.742C71.5 50.536 72.956 51.992 74.75 51.992ZM74.75 77.9904H81.25C83.044 77.9904 84.5 76.536 84.5 74.7404V68.2404C84.5 66.4464 83.044 64.9904 81.25 64.9904H74.75C72.956 64.9904 71.5 66.4464 71.5 68.2404V74.7404C71.5 76.5377 72.956 77.9904 74.75 77.9904ZM55.25 64.9904H48.75C46.956 64.9904 45.5 66.4464 45.5 68.2404V74.7404C45.5 76.536 46.956 77.9904 48.75 77.9904H55.25C57.044 77.9904 58.5 76.536 58.5 74.7404V68.2404C58.5 66.448 57.044 64.9904 55.25 64.9904ZM55.25 38.992H48.75C46.956 38.992 45.5 40.448 45.5 42.242V48.742C45.5 50.536 46.956 51.992 48.75 51.992H55.25C57.044 51.992 58.5 50.536 58.5 48.742V42.242C58.5 40.4464 57.044 38.992 55.25 38.992ZM29.25 38.992H22.75C20.956 38.992 19.5 40.448 19.5 42.242V48.742C19.5 50.536 20.956 51.992 22.75 51.992H29.25C31.044 51.992 32.5 50.536 32.5 48.742V42.242C32.5 40.4464 31.044 38.992 29.25 38.992ZM29.25 64.9904H22.75C20.956 64.9904 19.5 66.4464 19.5 68.2404V74.7404C19.5 76.536 20.956 77.9904 22.75 77.9904H29.25C31.044 77.9904 32.5 76.536 32.5 74.7404V68.2404C32.5 66.448 31.044 64.9904 29.25 64.9904Z" fill="#844CFE"/>
</g>
<defs>
<clipPath id="clip0_175_112">
<rect width="104" height="104" fill="white"/>
</clipPath>
</defs>
</svg>
