<svg width="28" height="20" viewBox="0 0 28 20" fill="none" xmlns="http://www.w3.org/2000/svg">
<path d="M22.9863 1.66256C21.3238 0.887557 19.5238 0.325057 17.6488 5.74977e-05C17.6324 -0.000468256 17.616 0.00261685 17.6009 0.00909595C17.5858 0.015575 17.5723 0.0252908 17.5613 0.0375578C17.3363 0.450058 17.0738 0.987557 16.8988 1.40006C14.9101 1.10006 12.8876 1.10006 10.8988 1.40006C10.7238 0.975057 10.4613 0.450058 10.2238 0.0375578C10.2113 0.0125578 10.1738 5.74977e-05 10.1363 5.74977e-05C8.26133 0.325057 6.47383 0.887557 4.79883 1.66256C4.78633 1.66256 4.77383 1.67506 4.76133 1.68756C1.36133 6.77506 0.423828 11.7251 0.886328 16.6251C0.886328 16.6501 0.898828 16.6751 0.923828 16.6876C3.17383 18.3376 5.33633 19.3376 7.47383 20.0001C7.51133 20.0126 7.54883 20.0001 7.56133 19.9751C8.06133 19.2876 8.51133 18.5626 8.89883 17.8001C8.92383 17.7501 8.89883 17.7001 8.84883 17.6876C8.13633 17.4126 7.46133 17.0876 6.79883 16.7126C6.74883 16.6876 6.74883 16.6126 6.78633 16.5751C6.92383 16.4751 7.06133 16.3626 7.19883 16.2626C7.22383 16.2376 7.26133 16.2376 7.28633 16.2501C11.5863 18.2126 16.2238 18.2126 20.4738 16.2501C20.4988 16.2376 20.5363 16.2376 20.5613 16.2626C20.6988 16.3751 20.8363 16.4751 20.9738 16.5876C21.0238 16.6251 21.0238 16.7001 20.9613 16.7251C20.3113 17.1126 19.6238 17.4251 18.9113 17.7001C18.8613 17.7126 18.8488 17.7751 18.8613 17.8126C19.2613 18.5751 19.7113 19.3001 20.1988 19.9876C20.2363 20.0001 20.2738 20.0126 20.3113 20.0001C22.4613 19.3376 24.6238 18.3376 26.8738 16.6876C26.8988 16.6751 26.9113 16.6501 26.9113 16.6251C27.4613 10.9626 25.9988 6.05006 23.0363 1.68756C23.0238 1.67506 23.0113 1.66256 22.9863 1.66256ZM9.54883 13.6376C8.26133 13.6376 7.18633 12.4501 7.18633 10.9876C7.18633 9.52506 8.23633 8.33756 9.54883 8.33756C10.8738 8.33756 11.9238 9.53756 11.9113 10.9876C11.9113 12.4501 10.8613 13.6376 9.54883 13.6376ZM18.2613 13.6376C16.9738 13.6376 15.8988 12.4501 15.8988 10.9876C15.8988 9.52506 16.9488 8.33756 18.2613 8.33756C19.5863 8.33756 20.6363 9.53756 20.6238 10.9876C20.6238 12.4501 19.5863 13.6376 18.2613 13.6376Z" fill="#F8F8F8"/>
</svg>
