<svg width="13" height="10" viewBox="0 0 13 10" fill="none" xmlns="http://www.w3.org/2000/svg">
<path d="M10.8586 1.47275C10.0473 1.12628 9.1689 0.874812 8.2539 0.729518C8.24588 0.729283 8.2379 0.730662 8.23052 0.733559C8.22314 0.736455 8.21655 0.740799 8.2112 0.746283C8.1014 0.930695 7.9733 1.17099 7.8879 1.3554C6.91739 1.22128 5.93041 1.22128 4.9599 1.3554C4.8745 1.1654 4.7464 0.930695 4.6305 0.746283C4.6244 0.735106 4.6061 0.729518 4.5878 0.729518C3.6728 0.874812 2.8005 1.12628 1.9831 1.47275C1.977 1.47275 1.9709 1.47834 1.9648 1.48393C0.3056 3.75834 -0.1519 5.97128 0.0737996 8.16187C0.0737996 8.17305 0.0798996 8.18422 0.0920996 8.18981C1.1901 8.92746 2.2454 9.37452 3.2885 9.6707C3.3068 9.67628 3.3251 9.6707 3.3312 9.65952C3.5752 9.35217 3.7948 9.02805 3.9839 8.68717C3.9961 8.66481 3.9839 8.64246 3.9595 8.63687C3.6118 8.51393 3.2824 8.36864 2.9591 8.20099C2.9347 8.18981 2.9347 8.15628 2.953 8.13952C3.0201 8.09481 3.0872 8.04452 3.1543 7.99981C3.1665 7.98864 3.1848 7.98864 3.197 7.99422C5.2954 8.87158 7.5585 8.87158 9.6325 7.99422C9.6447 7.98864 9.663 7.98864 9.6752 7.99981C9.7423 8.05011 9.8094 8.09481 9.8765 8.14511C9.9009 8.16187 9.9009 8.1954 9.8704 8.20658C9.5532 8.37981 9.2177 8.51952 8.87 8.64246C8.8456 8.64805 8.8395 8.67599 8.8456 8.69275C9.0408 9.03364 9.2604 9.35775 9.4983 9.66511C9.5166 9.6707 9.5349 9.67628 9.5532 9.6707C10.6024 9.37452 11.6577 8.92746 12.7557 8.18981C12.7679 8.18422 12.774 8.17305 12.774 8.16187C13.0424 5.6304 12.3287 3.43422 10.883 1.48393C10.8769 1.47834 10.8708 1.47275 10.8586 1.47275ZM4.3011 6.82628C3.6728 6.82628 3.1482 6.2954 3.1482 5.64158C3.1482 4.98775 3.6606 4.45687 4.3011 4.45687C4.9477 4.45687 5.4601 4.99334 5.454 5.64158C5.454 6.2954 4.9416 6.82628 4.3011 6.82628ZM8.5528 6.82628C7.9245 6.82628 7.3999 6.2954 7.3999 5.64158C7.3999 4.98775 7.9123 4.45687 8.5528 4.45687C9.1994 4.45687 9.7118 4.99334 9.7057 5.64158C9.7057 6.2954 9.1994 6.82628 8.5528 6.82628Z" fill="#F8F8F8"/>
</svg>
