<svg width="399" height="327" viewBox="0 0 399 327" fill="none" xmlns="http://www.w3.org/2000/svg">
<mask id="path-1-outside-1_402_192" maskUnits="userSpaceOnUse" x="-1" y="-1" width="446" height="329" fill="black">
<rect fill="white" x="-1" y="-1" width="446" height="329"/>
<path d="M199.2 0.399965L132 225.2L105.6 124.4C137.067 124.4 162.4 133.2 181.6 150.8C201.333 168.4 211.2 192.933 211.2 224.4C211.2 255.333 201.067 280.133 180.8 298.8C161.067 317.467 136 326.8 105.6 326.8C75.2 326.8 49.8667 317.467 29.6 298.8C9.86667 280.133 1.13249e-06 255.333 1.13249e-06 224.4C1.13249e-06 215.867 0.533335 207.333 1.6 198.8C3.2 190.267 6.13333 179.867 10.4 167.6C15.2 155.333 22.1333 139.333 31.2 119.6L87.2 0.399965H199.2ZM431.2 0.399965L364 225.2L337.6 124.4C369.067 124.4 394.4 133.2 413.6 150.8C433.333 168.4 443.2 192.933 443.2 224.4C443.2 255.333 433.067 280.133 412.8 298.8C393.067 317.467 368 326.8 337.6 326.8C307.2 326.8 281.867 317.467 261.6 298.8C241.867 280.133 232 255.333 232 224.4C232 215.867 232.533 207.333 233.6 198.8C235.2 190.267 238.133 179.867 242.4 167.6C247.2 155.333 254.133 139.333 263.2 119.6L319.2 0.399965H431.2Z"/>
</mask>
<path d="M199.2 0.399963L200.158 0.686371L200.543 -0.600037H199.2V0.399963ZM132 225.2L131.033 225.453L131.936 228.904L132.958 225.486L132 225.2ZM105.6 124.4V123.4H104.304L104.633 124.653L105.6 124.4ZM181.6 150.8L180.924 151.537L180.934 151.546L181.6 150.8ZM180.8 298.8L180.122 298.064L180.113 298.074L180.8 298.8ZM29.6 298.8L28.9127 299.527L28.9225 299.536L29.6 298.8ZM1.6 198.8L0.617128 198.616L0.611507 198.646L0.607723 198.676L1.6 198.8ZM10.4 167.6L9.46876 167.236L9.46179 167.253L9.4555 167.271L10.4 167.6ZM31.2 119.6L30.2949 119.175L30.2913 119.182L31.2 119.6ZM87.2 0.399963V-0.600037H86.5649L86.2949 -0.0252533L87.2 0.399963ZM431.2 0.399963L432.158 0.686371L432.543 -0.600037H431.2V0.399963ZM364 225.2L363.033 225.453L363.936 228.904L364.958 225.486L364 225.2ZM337.6 124.4V123.4H336.304L336.633 124.653L337.6 124.4ZM413.6 150.8L412.924 151.537L412.934 151.546L413.6 150.8ZM412.8 298.8L412.122 298.064L412.113 298.074L412.8 298.8ZM261.6 298.8L260.913 299.527L260.923 299.536L261.6 298.8ZM233.6 198.8L232.617 198.616L232.612 198.646L232.608 198.676L233.6 198.8ZM242.4 167.6L241.469 167.236L241.462 167.253L241.456 167.271L242.4 167.6ZM263.2 119.6L262.295 119.175L262.291 119.182L263.2 119.6ZM319.2 0.399963V-0.600037H318.565L318.295 -0.0252533L319.2 0.399963ZM198.242 0.113556L131.042 224.914L132.958 225.486L200.158 0.686371L198.242 0.113556ZM132.967 224.947L106.567 124.147L104.633 124.653L131.033 225.453L132.967 224.947ZM105.6 125.4C136.871 125.4 161.946 134.14 180.924 151.537L182.276 150.063C162.854 132.26 137.262 123.4 105.6 123.4V125.4ZM180.934 151.546C200.414 168.92 210.2 193.159 210.2 224.4H212.2C212.2 192.707 202.252 167.88 182.266 150.054L180.934 151.546ZM210.2 224.4C210.2 255.092 200.157 279.611 180.123 298.064L181.477 299.536C201.976 280.655 212.2 255.575 212.2 224.4H210.2ZM180.113 298.074C160.588 316.543 135.777 325.8 105.6 325.8V327.8C136.223 327.8 161.546 318.39 181.487 299.526L180.113 298.074ZM105.6 325.8C75.4229 325.8 50.3398 316.543 30.2775 298.064L28.9225 299.536C49.3935 318.39 74.9771 327.8 105.6 327.8V325.8ZM30.2872 298.074C10.782 279.623 1 255.1 1 224.4H-0.999999C-0.999999 255.566 8.9513 280.644 28.9128 299.526L30.2872 298.074ZM1 224.4C1 215.908 1.53072 207.417 2.59228 198.924L0.607723 198.676C-0.464046 207.25 -0.999999 215.825 -0.999999 224.4H1ZM2.58287 198.984C4.17039 190.517 7.08702 180.169 11.3445 167.928L9.4555 167.271C5.17965 179.565 2.22961 190.016 0.617128 198.616L2.58287 198.984ZM11.3312 167.964C16.1212 155.723 23.0456 139.743 32.1087 120.017L30.2913 119.182C21.221 138.924 14.2788 154.943 9.46876 167.236L11.3312 167.964ZM32.1051 120.025L88.1051 0.82518L86.2949 -0.0252533L30.2949 119.175L32.1051 120.025ZM87.2 1.39996H199.2V-0.600037H87.2V1.39996ZM430.242 0.113556L363.042 224.914L364.958 225.486L432.158 0.686371L430.242 0.113556ZM364.967 224.947L338.567 124.147L336.633 124.653L363.033 225.453L364.967 224.947ZM337.6 125.4C368.871 125.4 393.946 134.14 412.924 151.537L414.276 150.063C394.854 132.26 369.262 123.4 337.6 123.4V125.4ZM412.934 151.546C432.414 168.92 442.2 193.159 442.2 224.4H444.2C444.2 192.707 434.252 167.88 414.266 150.054L412.934 151.546ZM442.2 224.4C442.2 255.092 432.157 279.611 412.123 298.064L413.477 299.536C433.976 280.655 444.2 255.575 444.2 224.4H442.2ZM412.113 298.074C392.588 316.543 367.777 325.8 337.6 325.8V327.8C368.223 327.8 393.546 318.39 413.487 299.526L412.113 298.074ZM337.6 325.8C307.423 325.8 282.34 316.543 262.277 298.064L260.923 299.536C281.394 318.39 306.977 327.8 337.6 327.8V325.8ZM262.287 298.074C242.782 279.623 233 255.1 233 224.4H231C231 255.566 240.951 280.644 260.913 299.526L262.287 298.074ZM233 224.4C233 215.908 233.531 207.417 234.592 198.924L232.608 198.676C231.536 207.25 231 215.825 231 224.4H233ZM234.583 198.984C236.17 190.517 239.087 180.169 243.345 167.928L241.456 167.271C237.18 179.565 234.23 190.016 232.617 198.616L234.583 198.984ZM243.331 167.964C248.121 155.723 255.046 139.743 264.109 120.017L262.291 119.182C253.221 138.924 246.279 154.943 241.469 167.236L243.331 167.964ZM264.105 120.025L320.105 0.82518L318.295 -0.0252533L262.295 119.175L264.105 120.025ZM319.2 1.39996H431.2V-0.600037H319.2V1.39996Z" fill="white" mask="url(#path-1-outside-1_402_192)"/>
</svg>
