<svg width="98" height="83" viewBox="0 0 98 83" fill="none" xmlns="http://www.w3.org/2000/svg">
<mask id="path-1-outside-1_1167_24" maskUnits="userSpaceOnUse" x="-1" y="-1" width="113" height="85" fill="black">
<rect fill="white" x="-1" y="-1" width="113" height="85"/>
<path d="M49.8 0.599991L33 56.8L26.4 31.6C34.2667 31.6 40.6 33.8 45.4 38.2C50.3333 42.6 52.8 48.7333 52.8 56.6C52.8 64.3333 50.2667 70.5333 45.2 75.2C40.2667 79.8667 34 82.2 26.4 82.2C18.8 82.2 12.4667 79.8667 7.4 75.2C2.46667 70.5333 2.83122e-07 64.3333 2.83122e-07 56.6C2.83122e-07 54.4667 0.133334 52.3333 0.4 50.2C0.8 48.0667 1.53333 45.4667 2.6 42.4C3.8 39.3333 5.53333 35.3333 7.8 30.4L21.8 0.599991H49.8ZM107.8 0.599991L91 56.8L84.4 31.6C92.2667 31.6 98.6 33.8 103.4 38.2C108.333 42.6 110.8 48.7333 110.8 56.6C110.8 64.3333 108.267 70.5333 103.2 75.2C98.2667 79.8667 92 82.2 84.4 82.2C76.8 82.2 70.4667 79.8667 65.4 75.2C60.4667 70.5333 58 64.3333 58 56.6C58 54.4667 58.1333 52.3333 58.4 50.2C58.8 48.0667 59.5333 45.4667 60.6 42.4C61.8 39.3333 63.5333 35.3333 65.8 30.4L79.8 0.599991H107.8Z"/>
</mask>
<path d="M49.8 0.599991L50.7581 0.886402L51.1427 -0.400009H49.8V0.599991ZM33 56.8L32.0326 57.0534L32.9364 60.5042L33.9581 57.0864L33 56.8ZM26.4 31.6V30.6H25.1044L25.4326 31.8534L26.4 31.6ZM45.4 38.2L44.7242 38.9372L44.7344 38.9463L45.4 38.2ZM45.2 75.2L44.5225 74.4644L44.5128 74.4735L45.2 75.2ZM7.4 75.2L6.71274 75.9265L6.72252 75.9355L7.4 75.2ZM0.400001 50.2L-0.582872 50.0157L-0.588494 50.0457L-0.592278 50.076L0.400001 50.2ZM2.6 42.4L1.66876 42.0356L1.66179 42.0534L1.6555 42.0715L2.6 42.4ZM7.8 30.4L6.89487 29.9748L6.89132 29.9825L7.8 30.4ZM21.8 0.599991V-0.400009H21.1649L20.8949 0.174778L21.8 0.599991ZM107.8 0.599991L108.758 0.886402L109.143 -0.400009H107.8V0.599991ZM91 56.8L90.0326 57.0534L90.9364 60.5042L91.9581 57.0864L91 56.8ZM84.4 31.6V30.6H83.1044L83.4326 31.8534L84.4 31.6ZM103.4 38.2L102.724 38.9372L102.734 38.9463L103.4 38.2ZM103.2 75.2L102.522 74.4644L102.513 74.4735L103.2 75.2ZM65.4 75.2L64.7127 75.9265L64.7225 75.9355L65.4 75.2ZM58.4 50.2L57.4171 50.0157L57.4115 50.0457L57.4077 50.076L58.4 50.2ZM60.6 42.4L59.6688 42.0356L59.6618 42.0534L59.6555 42.0715L60.6 42.4ZM65.8 30.4L64.8949 29.9748L64.8913 29.9825L65.8 30.4ZM79.8 0.599991V-0.400009H79.1649L78.8949 0.174778L79.8 0.599991ZM48.8419 0.313583L32.0419 56.5136L33.9581 57.0864L50.7581 0.886402L48.8419 0.313583ZM33.9674 56.5466L27.3674 31.3466L25.4326 31.8534L32.0326 57.0534L33.9674 56.5466ZM26.4 32.6C34.0714 32.6 40.1455 34.74 44.7243 38.9371L46.0757 37.4628C41.0545 32.86 34.462 30.6 26.4 30.6V32.6ZM44.7344 38.9463C49.4145 43.1204 51.8 48.9592 51.8 56.6H53.8C53.8 48.5075 51.2522 42.0796 46.0656 37.4537L44.7344 38.9463ZM51.8 56.6C51.8 64.0918 49.3573 70.0114 44.5225 74.4645L45.8775 75.9355C51.1761 71.0553 53.8 64.5749 53.8 56.6H51.8ZM44.5128 74.4735C39.7878 78.9431 33.7774 81.2 26.4 81.2V83.2C34.2226 83.2 40.7455 80.7902 45.8872 75.9265L44.5128 74.4735ZM26.4 81.2C19.0229 81.2 12.9398 78.9429 8.07748 74.4645L6.72252 75.9355C11.9935 80.7904 18.5771 83.2 26.4 83.2V81.2ZM8.0872 74.4735C3.38204 70.0227 1 64.1003 1 56.6H-1C-1 64.5663 1.5513 71.044 6.7128 75.9265L8.0872 74.4735ZM1 56.6C1 54.5085 1.13071 52.4165 1.39228 50.324L-0.592278 50.076C-0.864047 52.2501 -1 54.4249 -1 56.6H1ZM1.38287 50.3843C1.77039 48.3175 2.48702 45.7688 3.5445 42.7285L1.6555 42.0715C0.579649 45.1646 -0.170392 47.8158 -0.582872 50.0157L1.38287 50.3843ZM3.53124 42.7644C4.72122 39.7233 6.44562 35.743 8.70868 30.8175L6.89132 29.9825C4.62104 34.9237 2.87878 38.9433 1.66876 42.0356L3.53124 42.7644ZM8.70509 30.8252L22.7051 1.0252L20.8949 0.174778L6.89491 29.9748L8.70509 30.8252ZM21.8 1.59999H49.8V-0.400009H21.8V1.59999ZM106.842 0.313583L90.0419 56.5136L91.9581 57.0864L108.758 0.886402L106.842 0.313583ZM91.9674 56.5466L85.3674 31.3466L83.4326 31.8534L90.0326 57.0534L91.9674 56.5466ZM84.4 32.6C92.0714 32.6 98.1455 34.74 102.724 38.9371L104.076 37.4628C99.0545 32.86 92.462 30.6 84.4 30.6V32.6ZM102.734 38.9463C107.414 43.1204 109.8 48.9592 109.8 56.6H111.8C111.8 48.5075 109.252 42.0796 104.066 37.4537L102.734 38.9463ZM109.8 56.6C109.8 64.0918 107.357 70.0114 102.523 74.4645L103.877 75.9355C109.176 71.0553 111.8 64.5749 111.8 56.6H109.8ZM102.513 74.4735C97.7878 78.9431 91.7774 81.2 84.4 81.2V83.2C92.2226 83.2 98.7455 80.7902 103.887 75.9265L102.513 74.4735ZM84.4 81.2C77.0229 81.2 70.9398 78.9429 66.0775 74.4645L64.7225 75.9355C69.9935 80.7904 76.5771 83.2 84.4 83.2V81.2ZM66.0872 74.4735C61.382 70.0227 59 64.1003 59 56.6H57C57 64.5663 59.5513 71.044 64.7128 75.9265L66.0872 74.4735ZM59 56.6C59 54.5085 59.1307 52.4165 59.3923 50.324L57.4077 50.076C57.136 52.2501 57 54.4249 57 56.6H59ZM59.3829 50.3843C59.7704 48.3175 60.487 45.7688 61.5445 42.7285L59.6555 42.0715C58.5797 45.1646 57.8296 47.8158 57.4171 50.0157L59.3829 50.3843ZM61.5312 42.7644C62.7212 39.7233 64.4456 35.743 66.7087 30.8175L64.8913 29.9825C62.621 34.9237 60.8788 38.9433 59.6688 42.0356L61.5312 42.7644ZM66.7051 30.8252L80.7051 1.0252L78.8949 0.174778L64.8949 29.9748L66.7051 30.8252ZM79.8 1.59999H107.8V-0.400009H79.8V1.59999Z" fill="white" mask="url(#path-1-outside-1_1167_24)"/>
</svg>
