<svg width="585" height="800" viewBox="0 0 585 800" fill="none" xmlns="http://www.w3.org/2000/svg">
<path d="M782.5 398.763C782.5 618.726 607.435 797.026 391.5 797.026C175.565 797.026 0.5 618.726 0.5 398.763C0.5 178.8 175.565 0.5 391.5 0.5C607.435 0.5 782.5 178.8 782.5 398.763Z" stroke="url(#paint0_linear_376_6)"/>
<path d="M391.991 1.49463V799.519" stroke="url(#paint1_linear_376_6)"/>
<path d="M2.44678 395.275H782.511" stroke="#B8A3F6"/>
<path d="M404.224 1.99365C467.843 88.7245 485.46 655.965 400.309 798.024" stroke="url(#paint2_linear_376_6)"/>
<path d="M415.477 1.99365C548.587 88.2261 574.034 661.447 413.03 795.531" stroke="url(#paint3_linear_376_6)"/>
<path d="M431.14 2.99036C629.337 99.1918 648.912 672.911 422.331 795.531" stroke="url(#paint4_linear_376_6)"/>
<path d="M447.78 4.48608C706.66 116.638 712.043 689.361 431.63 794.535" stroke="url(#paint5_linear_376_6)"/>
<path d="M463.925 7.47534C767.336 121.621 772.23 677.895 444.839 793.038" stroke="url(#paint6_linear_376_6)"/>
<path d="M499.16 15.4518C816.275 155.517 811.871 673.909 459.031 791.045" stroke="url(#paint7_linear_376_6)"/>
<path d="M568.164 42.8657C850.043 224.801 810.404 660.948 501.119 780.577" stroke="url(#paint8_linear_376_6)"/>
<path d="M632.759 85.2333C834.872 245.237 829.978 602.13 569.63 752.164" stroke="url(#paint9_linear_376_6)"/>
<path d="M376.227 1.99536C312.608 88.7263 294.991 655.966 380.142 798.025" stroke="url(#paint10_linear_376_6)"/>
<path d="M364.973 1.99536C231.863 88.2278 206.415 661.449 367.42 795.533" stroke="url(#paint11_linear_376_6)"/>
<path d="M349.314 2.9917C151.118 99.1932 131.543 672.913 358.124 795.532" stroke="url(#paint12_linear_376_6)"/>
<path d="M332.675 4.48621C73.7952 116.638 68.4121 689.361 348.825 794.535" stroke="url(#paint13_linear_376_6)"/>
<path d="M316.526 7.47681C13.1142 121.623 8.22047 677.897 335.612 793.039" stroke="url(#paint14_linear_376_6)"/>
<path d="M281.29 15.453C-35.8246 155.518 -31.4203 673.91 321.42 791.046" stroke="url(#paint15_linear_376_6)"/>
<path d="M212.29 42.8668C-69.5898 224.802 -29.9505 660.949 279.335 780.578" stroke="url(#paint16_linear_376_6)"/>
<path d="M147.692 85.2334C-54.4203 245.237 -49.5265 602.13 210.821 752.164" stroke="url(#paint17_linear_376_6)"/>
<path d="M278.457 16.9478H504.548M207.987 46.3565H573.55M147.794 87.7281H635.701M96.4094 137.573H686.596M55.7912 194.397H724.767M27.4075 258.698H758.044M6.85375 325.989H776.151M5.875 465.057H776.641M23.0031 531.85H759.513M730.639 596.151H52.3656M91.0263 653.473H691.489M643.041 703.318H139.964M195.753 743.693H586.274M523.634 774.098H259.861" stroke="url(#paint18_linear_376_6)"/>
<path d="M326.41 791.544H455.605" stroke="#6637ED"/>
<defs>
<linearGradient id="paint0_linear_376_6" x1="391.5" y1="0" x2="391.5" y2="797.526" gradientUnits="userSpaceOnUse">
<stop stop-color="white"/>
<stop offset="1" stop-color="#6637ED"/>
<stop offset="1" stop-color="#6637ED"/>
</linearGradient>
<linearGradient id="paint1_linear_376_6" x1="392.491" y1="1.49463" x2="392.491" y2="799.519" gradientUnits="userSpaceOnUse">
<stop stop-color="white"/>
<stop offset="1" stop-color="#6637ED"/>
<stop offset="1" stop-color="#6637ED"/>
</linearGradient>
<linearGradient id="paint2_linear_376_6" x1="429.241" y1="1.99365" x2="429.241" y2="798.024" gradientUnits="userSpaceOnUse">
<stop stop-color="white"/>
<stop offset="1" stop-color="#6637ED"/>
<stop offset="1" stop-color="#6637ED"/>
</linearGradient>
<linearGradient id="paint3_linear_376_6" x1="468.872" y1="1.99365" x2="468.872" y2="795.531" gradientUnits="userSpaceOnUse">
<stop stop-color="white"/>
<stop offset="1" stop-color="#6637ED"/>
<stop offset="1" stop-color="#6637ED"/>
</linearGradient>
<linearGradient id="paint4_linear_376_6" x1="504.192" y1="2.99036" x2="504.192" y2="795.531" gradientUnits="userSpaceOnUse">
<stop stop-color="white"/>
<stop offset="1" stop-color="#6637ED"/>
<stop offset="1" stop-color="#6637ED"/>
</linearGradient>
<linearGradient id="paint5_linear_376_6" x1="536.795" y1="4.48608" x2="536.795" y2="794.535" gradientUnits="userSpaceOnUse">
<stop stop-color="white"/>
<stop offset="1" stop-color="#6637ED"/>
<stop offset="1" stop-color="#6637ED"/>
</linearGradient>
<linearGradient id="paint6_linear_376_6" x1="567.901" y1="7.47534" x2="567.901" y2="793.038" gradientUnits="userSpaceOnUse">
<stop stop-color="white"/>
<stop offset="1" stop-color="#6637ED"/>
<stop offset="1" stop-color="#6637ED"/>
</linearGradient>
<linearGradient id="paint7_linear_376_6" x1="594.819" y1="15.4518" x2="594.819" y2="791.045" gradientUnits="userSpaceOnUse">
<stop stop-color="white"/>
<stop offset="1" stop-color="#6637ED"/>
<stop offset="1" stop-color="#6637ED"/>
</linearGradient>
<linearGradient id="paint8_linear_376_6" x1="629.623" y1="42.8657" x2="629.623" y2="780.577" gradientUnits="userSpaceOnUse">
<stop stop-color="white"/>
<stop offset="1" stop-color="#6637ED"/>
<stop offset="1" stop-color="#6637ED"/>
</linearGradient>
<linearGradient id="paint9_linear_376_6" x1="672.594" y1="85.2333" x2="672.594" y2="752.164" gradientUnits="userSpaceOnUse">
<stop stop-color="white"/>
<stop offset="1" stop-color="#6637ED"/>
<stop offset="1" stop-color="#6637ED"/>
</linearGradient>
<linearGradient id="paint10_linear_376_6" x1="351.21" y1="1.99536" x2="351.21" y2="798.025" gradientUnits="userSpaceOnUse">
<stop stop-color="white"/>
<stop offset="1" stop-color="#6637ED"/>
<stop offset="1" stop-color="#6637ED"/>
</linearGradient>
<linearGradient id="paint11_linear_376_6" x1="311.578" y1="1.99536" x2="311.578" y2="795.533" gradientUnits="userSpaceOnUse">
<stop stop-color="white"/>
<stop offset="1" stop-color="#6637ED"/>
<stop offset="1" stop-color="#6637ED"/>
</linearGradient>
<linearGradient id="paint12_linear_376_6" x1="276.263" y1="2.9917" x2="276.263" y2="795.532" gradientUnits="userSpaceOnUse">
<stop stop-color="white"/>
<stop offset="1" stop-color="#6637ED"/>
<stop offset="1" stop-color="#6637ED"/>
</linearGradient>
<linearGradient id="paint13_linear_376_6" x1="243.66" y1="4.48621" x2="243.66" y2="794.535" gradientUnits="userSpaceOnUse">
<stop stop-color="white"/>
<stop offset="1" stop-color="#6637ED"/>
<stop offset="1" stop-color="#6637ED"/>
</linearGradient>
<linearGradient id="paint14_linear_376_6" x1="212.55" y1="7.47681" x2="212.55" y2="793.039" gradientUnits="userSpaceOnUse">
<stop stop-color="white"/>
<stop offset="1" stop-color="#6637ED"/>
<stop offset="1" stop-color="#6637ED"/>
</linearGradient>
<linearGradient id="paint15_linear_376_6" x1="185.632" y1="15.453" x2="185.632" y2="791.046" gradientUnits="userSpaceOnUse">
<stop stop-color="white"/>
<stop offset="1" stop-color="#6637ED"/>
<stop offset="1" stop-color="#6637ED"/>
</linearGradient>
<linearGradient id="paint16_linear_376_6" x1="150.83" y1="42.8668" x2="150.83" y2="780.578" gradientUnits="userSpaceOnUse">
<stop stop-color="white"/>
<stop offset="1" stop-color="#6637ED"/>
<stop offset="1" stop-color="#6637ED"/>
</linearGradient>
<linearGradient id="paint17_linear_376_6" x1="107.857" y1="85.2334" x2="107.857" y2="752.164" gradientUnits="userSpaceOnUse">
<stop stop-color="white"/>
<stop offset="1" stop-color="#6637ED"/>
<stop offset="1" stop-color="#6637ED"/>
</linearGradient>
<linearGradient id="paint18_linear_376_6" x1="391.258" y1="16.9478" x2="391.258" y2="774.098" gradientUnits="userSpaceOnUse">
<stop stop-color="white"/>
<stop offset="1" stop-color="#6637ED"/>
<stop offset="1" stop-color="#6637ED"/>
</linearGradient>
</defs>
</svg>
