<svg width="153" height="153" viewBox="0 0 153 153" fill="none" xmlns="http://www.w3.org/2000/svg">
<path d="M145.589 88.9312C145.212 89.2138 144.784 89.4194 144.327 89.5362C143.871 89.6531 143.397 89.679 142.93 89.6124C142.464 89.5458 142.016 89.388 141.61 89.1481C141.205 88.9082 140.851 88.5908 140.569 88.214C137.576 84.1913 133.681 80.9273 129.196 78.6851C124.712 76.4429 119.764 75.285 114.75 75.3047C113.799 75.3047 112.887 74.9269 112.214 74.2544C111.542 73.5819 111.164 72.6698 111.164 71.7187C111.164 70.7677 111.542 69.8556 112.214 69.1831C112.887 68.5106 113.799 68.1328 114.75 68.1328C117.656 68.1322 120.504 67.3166 122.97 65.7786C125.436 64.2407 127.421 62.042 128.7 59.4324C129.979 56.8228 130.501 53.9068 130.205 51.0157C129.91 48.1245 128.81 45.3741 127.03 43.0767C125.25 40.7794 122.862 39.0272 120.136 38.0192C117.41 37.0113 114.457 36.7879 111.61 37.3745C108.764 37.9611 106.139 39.3342 104.034 41.3377C101.929 43.3413 100.428 45.8951 99.701 48.709C99.4633 49.6299 98.8694 50.4187 98.0501 50.9017C97.2308 51.3848 96.2531 51.5226 95.3321 51.2849C94.4112 51.0471 93.6225 50.4532 93.1394 49.6339C92.6563 48.8146 92.5185 47.8369 92.7562 46.916C93.6576 43.4103 95.3839 40.1709 97.7911 37.4677C100.198 34.7645 103.217 32.6758 106.595 31.3758C109.973 30.0758 113.613 29.6021 117.212 29.9941C120.81 30.3862 124.263 31.6327 127.282 33.6297C130.301 35.6267 132.798 38.3164 134.567 41.4746C136.336 44.6328 137.324 48.168 137.449 51.7855C137.574 55.403 136.833 58.9981 135.287 62.2711C133.741 65.544 131.435 68.4001 128.562 70.6011C135.633 73.2399 141.794 77.8609 146.306 83.9109C146.589 84.2876 146.794 84.7163 146.911 85.1725C147.028 85.6287 147.054 86.1034 146.987 86.5696C146.921 87.0358 146.763 87.4843 146.523 87.8895C146.283 88.2947 145.966 88.6487 145.589 88.9312ZM113.071 127.301C113.307 127.708 113.46 128.159 113.522 128.626C113.584 129.093 113.553 129.567 113.432 130.022C113.31 130.477 113.1 130.904 112.813 131.278C112.527 131.652 112.17 131.966 111.762 132.202C111.218 132.52 110.599 132.687 109.969 132.686C109.339 132.686 108.72 132.521 108.174 132.206C107.629 131.891 107.176 131.438 106.861 130.893C103.744 125.612 99.3036 121.235 93.9781 118.194C88.6527 115.153 82.6264 113.554 76.494 113.554C70.3617 113.554 64.3353 115.153 59.0099 118.194C53.6845 121.235 49.2441 125.612 46.1271 130.893C45.9029 131.321 45.5944 131.7 45.22 132.006C44.8457 132.312 44.4133 132.54 43.9488 132.674C43.4843 132.809 42.9974 132.849 42.5173 132.79C42.0372 132.732 41.5738 132.577 41.1551 132.335C40.7364 132.093 40.371 131.769 40.0808 131.382C39.7906 130.995 39.5818 130.553 39.4667 130.084C39.3516 129.614 39.3328 129.126 39.4113 128.648C39.4898 128.171 39.664 127.715 39.9234 127.307C44.8077 118.915 52.4552 112.48 61.5586 109.102C56.5858 105.873 52.7901 101.124 50.7376 95.5611C48.6851 89.9987 48.4858 83.9218 50.1695 78.2369C51.8532 72.552 55.3296 67.5637 60.0801 64.0161C64.8307 60.4685 70.6009 58.5517 76.5299 58.5517C82.4589 58.5517 88.229 60.4685 92.9796 64.0161C97.7302 67.5637 101.207 72.552 102.89 78.2369C104.574 83.9218 104.375 89.9987 102.322 95.5611C100.27 101.124 96.474 105.873 91.5012 109.102C100.579 112.491 108.202 118.923 113.071 127.301ZM76.5 106.383C80.519 106.383 84.4477 105.191 87.7894 102.958C91.131 100.725 93.7355 97.5518 95.2735 93.8387C96.8115 90.1257 97.2139 86.0399 96.4299 82.0982C95.6458 78.1564 93.7105 74.5357 90.8686 71.6939C88.0268 68.852 84.4061 66.9167 80.4643 66.1326C76.5225 65.3486 72.4368 65.751 68.7238 67.289C65.0107 68.827 61.8371 71.4315 59.6043 74.7731C57.3715 78.1148 56.1797 82.0435 56.1797 86.0625C56.1797 91.4518 58.3206 96.6203 62.1314 100.431C65.9422 104.242 71.1107 106.383 76.5 106.383ZM41.8359 71.7187C41.8359 70.7677 41.4581 69.8556 40.7856 69.1831C40.1131 68.5106 39.201 68.1328 38.25 68.1328C35.3441 68.1319 32.4968 67.3162 30.0312 65.7783C27.5656 64.2405 25.5807 62.0421 24.3018 59.4328C23.0228 56.8235 22.5012 53.9079 22.796 51.017C23.0909 48.1262 24.1904 45.3759 25.9698 43.0786C27.7492 40.7812 30.1371 39.0288 32.8623 38.0204C35.5876 37.012 38.541 36.7879 41.3872 37.3737C44.2335 37.9594 46.8584 39.3315 48.964 41.3342C51.0695 43.3368 52.5714 45.8897 53.299 48.703C53.4167 49.159 53.6231 49.5873 53.9064 49.9636C54.1896 50.3398 54.5442 50.6566 54.9499 50.8958C55.3556 51.135 55.8044 51.2919 56.2708 51.3576C56.7371 51.4234 57.2118 51.3966 57.6679 51.2789C58.1239 51.1612 58.5522 50.9548 58.9284 50.6715C59.3047 50.3882 59.6214 50.0336 59.8606 49.6279C60.0998 49.2223 60.2568 48.7734 60.3225 48.3071C60.3882 47.8407 60.3615 47.366 60.2438 46.91C59.3424 43.4044 57.6161 40.1649 55.2089 37.4617C52.8016 34.7585 49.7831 32.6699 46.4049 31.3698C43.0267 30.0698 39.3867 29.5961 35.7883 29.9882C32.1899 30.3802 28.7374 31.6267 25.7184 33.6237C22.6995 35.6208 20.2016 38.3104 18.4329 41.4686C16.6643 44.6268 15.6762 48.162 15.5509 51.7795C15.4256 55.397 16.1669 58.9921 17.7128 62.2651C19.2587 65.538 21.5646 68.3941 24.4382 70.5951C17.3662 73.2355 11.2054 77.8587 6.69375 83.9109C6.4112 84.2876 6.20562 84.7163 6.08875 85.1725C5.97188 85.6287 5.94601 86.1034 6.0126 86.5696C6.0792 87.0358 6.23697 87.4843 6.47689 87.8895C6.71682 88.2947 7.03421 88.6487 7.41094 88.9312C7.78767 89.2138 8.21636 89.4194 8.67254 89.5362C9.12872 89.6531 9.60345 89.679 10.0696 89.6124C10.5358 89.5458 10.9843 89.388 11.3895 89.1481C11.7947 88.9082 12.1487 88.5908 12.4313 88.214C15.4238 84.1913 19.3191 80.9273 23.8035 78.6851C28.288 76.4429 33.2363 75.285 38.25 75.3047C39.201 75.3047 40.1131 74.9269 40.7856 74.2544C41.4581 73.5819 41.8359 72.6698 41.8359 71.7187Z" fill="#6637ED"/>
</svg>
