<svg width="107" height="235" viewBox="0 0 107 235" fill="none" xmlns="http://www.w3.org/2000/svg">
<path d="M82.3531 93.4403C95.2262 144.878 63.8595 197.039 12.2919 209.945C-39.2757 222.851 -91.5144 191.613 -104.388 140.175C-117.261 88.7379 -85.894 36.5766 -34.3265 23.6709C17.2411 10.7652 69.4799 42.0027 82.3531 93.4403Z" stroke="url(#paint0_linear_408_174)" stroke-width="0.5"/>
<path d="M-34.1826 23.7493L12.5864 210.625" stroke="url(#paint1_linear_408_174)" stroke-width="0.5"/>
<path d="M-104.25 139.273L82.2741 92.5921" stroke="#B8A3F6" stroke-width="0.5"/>
<path d="M-31.228 23.1338C-10.933 39.6368 26.5232 171.415 14.488 209.777" stroke="url(#paint2_linear_408_174)" stroke-width="0.5"/>
<path d="M-28.5371 22.4605C8.34497 34.6882 48.024 167.398 17.3838 208.432" stroke="url(#paint3_linear_408_174)" stroke-width="0.5"/>
<path d="M-24.7335 21.7565C28.2959 32.4238 66.5999 165.602 19.6077 207.875" stroke="url(#paint4_linear_408_174)" stroke-width="0.5"/>
<path d="M-20.6679 21.1111C47.8066 31.882 82.6587 165.676 21.7721 207.085" stroke="url(#paint5_linear_408_174)" stroke-width="0.5"/>
<path d="M-16.6311 20.8447C62.6083 29.4177 96.3794 159.389 24.8438 205.944" stroke="url(#paint6_linear_408_174)" stroke-width="0.5"/>
<path d="M-7.73827 20.6041C76.2967 34.4267 105.624 156.084 28.1207 204.629" stroke="url(#paint7_linear_408_174)" stroke-width="0.5"/>
<path d="M10.3675 22.8944C88.4311 48.6305 104.514 153.136 37.5705 199.659" stroke="url(#paint8_linear_408_174)" stroke-width="0.5"/>
<path d="M28.2965 28.95C86.0013 54.3237 105.747 138.191 52.2876 188.905" stroke="url(#paint9_linear_408_174)" stroke-width="0.5"/>
<path d="M-37.9224 24.8097C-48.0515 48.9268 -19.0204 182.813 9.66587 210.984" stroke="url(#paint10_linear_408_174)" stroke-width="0.5"/>
<path d="M-40.6138 25.4832C-67.3884 53.6421 -39.879 189.398 6.47741 211.162" stroke="url(#paint11_linear_408_174)" stroke-width="0.5"/>
<path d="M-44.2992 26.6535C-86.0527 61.0418 -57.1099 196.563 4.25484 211.718" stroke="url(#paint12_linear_408_174)" stroke-width="0.5"/>
<path d="M-48.19 27.9992C-103.519 69.7541 -71.2411 204.192 1.97308 212.041" stroke="url(#paint13_linear_408_174)" stroke-width="0.5"/>
<path d="M-60.4241 34.1619L-6.36269 20.6321M-75.5509 45.2658L11.8601 23.3896M-87.5192 58.556L29.1458 29.3585M-96.8847 73.3034L44.2367 37.9852M-103.267 89.0406L56.6941 49.0075M-106.285 105.797L68.4196 62.0735M-107.256 122.784L76.6929 76.7478M-99.3402 155.409L84.9601 109.285M-91.3301 170.025L84.779 125.951M81.6435 142.736L-80.5408 183.325M-67.9371 194.435L75.6416 158.502M66.9783 173.074L-53.3143 203.179M-37.6082 209.295L55.7706 185.925M42.5745 196.794L-20.4972 212.579" stroke="url(#paint14_linear_408_174)" stroke-width="0.5"/>
<path d="M-3.56201 212.682L27.3302 204.95" stroke="#6637ED" stroke-width="0.5"/>
<defs>
<linearGradient id="paint0_linear_408_174" x1="-34.3872" y1="23.4284" x2="12.3526" y2="210.187" gradientUnits="userSpaceOnUse">
<stop stop-color="white"/>
<stop offset="1" stop-color="#6637ED"/>
<stop offset="1" stop-color="#6637ED"/>
</linearGradient>
<linearGradient id="paint1_linear_408_174" x1="-33.6976" y1="23.6279" x2="13.0714" y2="210.503" gradientUnits="userSpaceOnUse">
<stop stop-color="white"/>
<stop offset="1" stop-color="#6637ED"/>
<stop offset="1" stop-color="#6637ED"/>
</linearGradient>
<linearGradient id="paint2_linear_408_174" x1="-25.2461" y1="21.6368" x2="21.406" y2="208.045" gradientUnits="userSpaceOnUse">
<stop stop-color="white"/>
<stop offset="1" stop-color="#6637ED"/>
<stop offset="1" stop-color="#6637ED"/>
</linearGradient>
<linearGradient id="paint3_linear_408_174" x1="-15.7696" y1="19.2652" x2="30.7364" y2="205.09" gradientUnits="userSpaceOnUse">
<stop stop-color="white"/>
<stop offset="1" stop-color="#6637ED"/>
<stop offset="1" stop-color="#6637ED"/>
</linearGradient>
<linearGradient id="paint4_linear_408_174" x1="-7.26592" y1="17.385" x2="39.1817" y2="202.977" gradientUnits="userSpaceOnUse">
<stop stop-color="white"/>
<stop offset="1" stop-color="#6637ED"/>
<stop offset="1" stop-color="#6637ED"/>
</linearGradient>
<linearGradient id="paint5_linear_408_174" x1="0.616875" y1="15.7842" x2="46.9184" y2="200.792" gradientUnits="userSpaceOnUse">
<stop stop-color="white"/>
<stop offset="1" stop-color="#6637ED"/>
<stop offset="1" stop-color="#6637ED"/>
</linearGradient>
<linearGradient id="paint6_linear_408_174" x1="8.23094" y1="14.6225" x2="54.2696" y2="198.58" gradientUnits="userSpaceOnUse">
<stop stop-color="white"/>
<stop offset="1" stop-color="#6637ED"/>
<stop offset="1" stop-color="#6637ED"/>
</linearGradient>
<linearGradient id="paint7_linear_408_174" x1="15.1349" y1="14.8796" x2="60.5893" y2="196.503" gradientUnits="userSpaceOnUse">
<stop stop-color="white"/>
<stop offset="1" stop-color="#6637ED"/>
<stop offset="1" stop-color="#6637ED"/>
</linearGradient>
<linearGradient id="paint8_linear_408_174" x1="25.0634" y1="19.2165" x2="68.2976" y2="191.969" gradientUnits="userSpaceOnUse">
<stop stop-color="white"/>
<stop offset="1" stop-color="#6637ED"/>
<stop offset="1" stop-color="#6637ED"/>
</linearGradient>
<linearGradient id="paint9_linear_408_174" x1="37.8214" y1="26.5663" x2="76.9076" y2="182.743" gradientUnits="userSpaceOnUse">
<stop stop-color="white"/>
<stop offset="1" stop-color="#6637ED"/>
<stop offset="1" stop-color="#6637ED"/>
</linearGradient>
<linearGradient id="paint10_linear_408_174" x1="-43.9043" y1="26.3067" x2="2.74786" y2="212.715" gradientUnits="userSpaceOnUse">
<stop stop-color="white"/>
<stop offset="1" stop-color="#6637ED"/>
<stop offset="1" stop-color="#6637ED"/>
</linearGradient>
<linearGradient id="paint11_linear_408_174" x1="-53.3813" y1="28.6785" x2="-6.87521" y2="214.504" gradientUnits="userSpaceOnUse">
<stop stop-color="white"/>
<stop offset="1" stop-color="#6637ED"/>
<stop offset="1" stop-color="#6637ED"/>
</linearGradient>
<linearGradient id="paint12_linear_408_174" x1="-61.7668" y1="31.0251" x2="-15.3192" y2="216.617" gradientUnits="userSpaceOnUse">
<stop stop-color="white"/>
<stop offset="1" stop-color="#6637ED"/>
<stop offset="1" stop-color="#6637ED"/>
</linearGradient>
<linearGradient id="paint13_linear_408_174" x1="-69.4748" y1="33.3261" x2="-23.1732" y2="218.334" gradientUnits="userSpaceOnUse">
<stop stop-color="white"/>
<stop offset="1" stop-color="#6637ED"/>
<stop offset="1" stop-color="#6637ED"/>
</linearGradient>
<linearGradient id="paint14_linear_408_174" x1="-33.4519" y1="27.4117" x2="10.9216" y2="204.716" gradientUnits="userSpaceOnUse">
<stop stop-color="white"/>
<stop offset="1" stop-color="#6637ED"/>
<stop offset="1" stop-color="#6637ED"/>
</linearGradient>
</defs>
</svg>
