<svg width="80" height="87" viewBox="0 0 80 87" fill="none" xmlns="http://www.w3.org/2000/svg">
<path d="M76.125 50.5687C75.928 50.7294 75.7039 50.8463 75.4653 50.9128C75.2268 50.9792 74.9786 50.9939 74.7348 50.9561C74.4911 50.9182 74.2566 50.8285 74.0447 50.6921C73.8328 50.5556 73.6477 50.3751 73.5 50.1609C71.9353 47.8735 69.8985 46.0175 67.5537 44.7425C65.2089 43.4675 62.6216 42.8091 60 42.8203C59.5027 42.8203 59.0258 42.6055 58.6742 42.2231C58.3225 41.8407 58.125 41.322 58.125 40.7812C58.125 40.2404 58.3225 39.7218 58.6742 39.3394C59.0258 38.957 59.5027 38.7422 60 38.7422C61.5196 38.7418 63.0086 38.2781 64.298 37.4035C65.5873 36.529 66.6253 35.2788 67.2941 33.7949C67.9629 32.311 68.2356 30.6529 68.0812 29.0089C67.9269 27.3649 67.3518 25.8009 66.4211 24.4946C65.4904 23.1883 64.2415 22.1919 62.8163 21.6188C61.391 21.0456 59.8465 20.9186 58.3582 21.2522C56.8699 21.5857 55.4975 22.3665 54.3968 23.5058C53.296 24.6451 52.5111 26.0972 52.1313 27.6973C52.0069 28.2209 51.6964 28.6694 51.268 28.9441C50.8396 29.2188 50.3284 29.2972 49.8469 29.162C49.3653 29.0268 48.9529 28.6891 48.7003 28.2232C48.4477 27.7573 48.3757 27.2014 48.5 26.6777C48.9713 24.6843 49.8739 22.8423 51.1326 21.3052C52.3913 19.768 53.9696 18.5804 55.736 17.8412C57.5024 17.1019 59.4056 16.8326 61.2871 17.0555C63.1687 17.2784 64.9739 17.9872 66.5525 19.1228C68.131 20.2583 69.4371 21.7878 70.3619 23.5836C71.2866 25.3794 71.8033 27.3896 71.8688 29.4467C71.9343 31.5037 71.5467 33.5479 70.7384 35.409C69.9301 37.2701 68.7244 38.8941 67.2219 40.1457C70.9192 41.6462 74.1405 44.2739 76.5 47.7141C76.6477 47.9283 76.7552 48.172 76.8163 48.4314C76.8774 48.6908 76.891 48.9608 76.8562 49.2259C76.8213 49.4909 76.7388 49.746 76.6134 49.9764C76.4879 50.2068 76.322 50.4081 76.125 50.5687ZM59.1219 72.3867C59.2453 72.6185 59.3254 72.8745 59.3578 73.1401C59.3902 73.4056 59.3741 73.6755 59.3106 73.9343C59.247 74.1931 59.1372 74.4357 58.9874 74.6483C58.8376 74.8609 58.6507 75.0394 58.4375 75.1734C58.1532 75.3546 57.8295 75.4497 57.5 75.4487C57.1707 75.4489 56.8471 75.3548 56.5618 75.1758C56.2766 74.9969 56.0397 74.7393 55.875 74.4292C54.2452 71.4262 51.9234 68.9374 49.1389 67.2084C46.3544 65.4794 43.2033 64.57 39.9969 64.57C36.7904 64.57 33.6394 65.4794 30.8549 67.2084C28.0703 68.9374 25.7486 71.4262 24.1187 74.4292C24.0015 74.6728 23.8402 74.8882 23.6445 75.0623C23.4487 75.2365 23.2226 75.3657 22.9798 75.4423C22.7369 75.519 22.4823 75.5414 22.2313 75.5082C21.9802 75.475 21.7379 75.387 21.519 75.2494C21.3001 75.1117 21.109 74.9274 20.9573 74.7074C20.8056 74.4874 20.6963 74.2362 20.6362 73.9691C20.576 73.702 20.5662 73.4244 20.6072 73.1531C20.6482 72.8817 20.7393 72.6222 20.875 72.3901C23.4289 67.6182 27.4276 63.9591 32.1875 62.0385C29.5874 60.2025 27.6027 57.5016 26.5295 54.3387C25.4562 51.1758 25.3521 47.7203 26.2324 44.4876C27.1128 41.255 28.9305 38.4185 31.4145 36.4013C33.8984 34.384 36.9155 33.2941 40.0156 33.2941C43.1158 33.2941 46.1328 34.384 48.6168 36.4013C51.1008 38.4185 52.9185 41.255 53.7988 44.4876C54.6792 47.7203 54.575 51.1758 53.5018 54.3387C52.4286 57.5016 50.4439 60.2025 47.8438 62.0385C52.5904 63.9657 56.5761 67.6227 59.1219 72.3867ZM40 60.4922C42.1014 60.4922 44.1557 59.8145 45.9029 58.5449C47.6502 57.2752 49.012 55.4706 49.8162 53.3593C50.6204 51.2479 50.8308 48.9247 50.4208 46.6833C50.0109 44.4419 48.9989 42.383 47.513 40.7671C46.0271 39.1511 44.1339 38.0507 42.0728 37.6048C40.0118 37.159 37.8755 37.3878 35.934 38.2624C33.9925 39.1369 32.3331 40.6179 31.1656 42.5181C29.9981 44.4182 29.375 46.6522 29.375 48.9375C29.375 52.002 30.4944 54.941 32.487 57.1079C34.4796 59.2748 37.1821 60.4922 40 60.4922ZM21.875 40.7812C21.875 40.2404 21.6775 39.7218 21.3258 39.3394C20.9742 38.957 20.4973 38.7422 20 38.7422C18.4806 38.7417 16.9918 38.2778 15.7026 37.4034C14.4134 36.5289 13.3755 35.2788 12.7068 33.7951C12.0381 32.3114 11.7653 30.6535 11.9195 29.0097C12.0737 27.3659 12.6486 25.802 13.579 24.4956C14.5094 23.1893 15.7579 22.1929 17.1829 21.6194C18.6079 21.046 20.1522 20.9186 21.6404 21.2517C23.1286 21.5848 24.5011 22.365 25.6021 23.5037C26.703 24.6425 27.4883 26.0941 27.8687 27.6939C27.9303 27.9532 28.0382 28.1967 28.1863 28.4107C28.3345 28.6246 28.5199 28.8047 28.732 28.9407C28.9441 29.0767 29.1788 29.166 29.4226 29.2034C29.6665 29.2407 29.9147 29.2255 30.1531 29.1586C30.3916 29.0916 30.6155 28.9743 30.8123 28.8132C31.009 28.6521 31.1746 28.4505 31.2997 28.2198C31.4247 27.9891 31.5068 27.7339 31.5412 27.4687C31.5755 27.2036 31.5616 26.9336 31.5 26.6743C31.0287 24.6809 30.1261 22.8389 28.8674 21.3018C27.6087 19.7647 26.0304 18.577 24.264 17.8378C22.4976 17.0985 20.5944 16.8292 18.7129 17.0521C16.8313 17.275 15.0261 17.9838 13.4475 19.1194C11.869 20.2549 10.5629 21.7844 9.63814 23.5802C8.71336 25.376 8.19669 27.3862 8.13119 29.4433C8.06569 31.5003 8.45326 33.5445 9.26159 35.4056C10.0699 37.2667 11.2756 38.8908 12.7781 40.1423C9.08037 41.6437 5.85903 44.2726 3.5 47.7141C3.35226 47.9283 3.24477 48.172 3.18366 48.4314C3.12255 48.6908 3.10902 48.9608 3.14384 49.2259C3.17867 49.4909 3.26116 49.746 3.38661 49.9764C3.51206 50.2068 3.67802 50.4081 3.875 50.5687C4.07198 50.7294 4.29614 50.8463 4.53466 50.9128C4.77319 50.9792 5.02141 50.9939 5.26517 50.9561C5.50892 50.9182 5.74343 50.8285 5.9553 50.6921C6.16717 50.5556 6.35226 50.3751 6.5 50.1609C8.06471 47.8735 10.1015 46.0175 12.4463 44.7425C14.7911 43.4675 17.3784 42.8091 20 42.8203C20.4973 42.8203 20.9742 42.6055 21.3258 42.2231C21.6775 41.8407 21.875 41.322 21.875 40.7812Z" fill="#6637ED"/>
</svg>
