<svg width="99" height="179" viewBox="0 0 99 179" fill="none" xmlns="http://www.w3.org/2000/svg">
<path d="M153.401 72.4199C163.373 112.264 141.203 152.106 103.925 161.436C66.6468 170.765 28.3234 146.063 18.3517 106.218C8.38 66.3743 30.5498 26.532 67.828 17.2025C105.106 7.87293 143.43 32.5757 153.401 72.4199Z" stroke="url(#paint0_linear_408_200)" stroke-width="0.5"/>
<path d="M67.9199 17.21L104.161 162.019" stroke="url(#paint1_linear_408_200)" stroke-width="0.5"/>
<path d="M18.3745 105.54L153.401 71.7474" stroke="#B8A3F6" stroke-width="0.5"/>
<path d="M70.0606 16.7704C85.0115 29.7526 113.821 131.92 105.533 161.387" stroke="url(#paint2_linear_408_200)" stroke-width="0.5"/>
<path d="M72.0084 16.283C98.9653 26.1643 129.402 129.078 107.622 160.384" stroke="url(#paint3_linear_408_200)" stroke-width="0.5"/>
<path d="M74.7648 15.7852C113.441 24.6559 142.884 127.915 109.232 159.981" stroke="url(#paint4_linear_408_200)" stroke-width="0.5"/>
<path d="M77.7123 15.3358C127.617 24.472 154.558 128.165 110.796 159.397" stroke="url(#paint5_linear_408_200)" stroke-width="0.5"/>
<path d="M80.6438 15.1787C138.347 22.7475 164.457 123.477 113.015 158.553" stroke="url(#paint6_linear_408_200)" stroke-width="0.5"/>
<path d="M87.105 15.0997C148.357 26.7783 171.137 121.036 115.381 157.577" stroke="url(#paint7_linear_408_200)" stroke-width="0.5"/>
<path d="M100.294 17.0851C157.349 37.8878 170.294 118.748 122.191 153.854" stroke="url(#paint8_linear_408_200)" stroke-width="0.5"/>
<path d="M65.2143 17.9836C58.1409 36.4777 80.8517 140.172 102.042 162.261" stroke="url(#paint9_linear_408_200)" stroke-width="0.5"/>
<path d="M63.266 18.4712C44.1413 39.8852 65.7684 145.004 99.7269 162.36" stroke="url(#paint10_linear_408_200)" stroke-width="0.5"/>
<path d="M60.6009 19.3302C30.6626 45.3729 53.3289 150.328 98.1178 162.763" stroke="url(#paint11_linear_408_200)" stroke-width="0.5"/>
<path d="M57.7887 20.3223C18.0706 51.8881 43.1482 156.047 96.4629 162.984" stroke="url(#paint12_linear_408_200)" stroke-width="0.5"/>
<path d="M55.1291 21.5645C7.79334 55.4213 32.2086 156.574 94.108 163.285" stroke="url(#paint13_linear_408_200)" stroke-width="0.5"/>
<path d="M49.3926 24.5382C0.861954 63.692 25.1663 157.568 91.5612 163.538" stroke="url(#paint14_linear_408_200)" stroke-width="0.5"/>
<path d="M38.6932 32.502C-1.83682 77.727 24.8316 155.153 83.8005 163.462" stroke="url(#paint15_linear_408_200)" stroke-width="0.5"/>
<path d="M29.4356 42.9881C1.71706 80.7778 18.7719 145.327 70.6507 161.274" stroke="url(#paint16_linear_408_200)" stroke-width="0.5"/>
<path d="M48.9696 24.9323L88.1052 15.1379M38.107 33.3216L101.385 17.4852M29.5667 43.4365L114.022 22.3001M22.9358 54.7074L125.095 29.1402M18.4855 66.7782L134.283 37.7978M16.4925 79.6757L142.963 48.0241M15.9907 92.7767L149.153 59.4503M22.1368 118.054L155.554 84.6644M28.1349 129.433L155.622 97.5266M153.544 110.445L36.1376 139.828M45.4328 148.555L149.371 122.543M143.248 133.687L56.1674 155.48M67.6578 160.39L135.256 143.472M125.794 151.703L80.1355 163.13" stroke="url(#paint17_linear_408_200)" stroke-width="0.5"/>
<path d="M92.4473 163.413L114.81 157.816" stroke="#6637ED" stroke-width="0.5"/>
<defs>
<linearGradient id="paint0_linear_408_200" x1="67.7673" y1="16.9599" x2="103.986" y2="161.678" gradientUnits="userSpaceOnUse">
<stop stop-color="white"/>
<stop offset="1" stop-color="#6637ED"/>
<stop offset="1" stop-color="#6637ED"/>
</linearGradient>
<linearGradient id="paint1_linear_408_200" x1="68.405" y1="17.0886" x2="104.646" y2="161.897" gradientUnits="userSpaceOnUse">
<stop stop-color="white"/>
<stop offset="1" stop-color="#6637ED"/>
<stop offset="1" stop-color="#6637ED"/>
</linearGradient>
<linearGradient id="paint2_linear_408_200" x1="74.3909" y1="15.6867" x2="110.541" y2="160.134" gradientUnits="userSpaceOnUse">
<stop stop-color="white"/>
<stop offset="1" stop-color="#6637ED"/>
<stop offset="1" stop-color="#6637ED"/>
</linearGradient>
<linearGradient id="paint3_linear_408_200" x1="81.2509" y1="13.9699" x2="117.288" y2="157.965" gradientUnits="userSpaceOnUse">
<stop stop-color="white"/>
<stop offset="1" stop-color="#6637ED"/>
<stop offset="1" stop-color="#6637ED"/>
</linearGradient>
<linearGradient id="paint4_linear_408_200" x1="87.4098" y1="12.6206" x2="123.402" y2="156.434" gradientUnits="userSpaceOnUse">
<stop stop-color="white"/>
<stop offset="1" stop-color="#6637ED"/>
<stop offset="1" stop-color="#6637ED"/>
</linearGradient>
<linearGradient id="paint5_linear_408_200" x1="93.1205" y1="11.4796" x2="128.999" y2="154.841" gradientUnits="userSpaceOnUse">
<stop stop-color="white"/>
<stop offset="1" stop-color="#6637ED"/>
<stop offset="1" stop-color="#6637ED"/>
</linearGradient>
<linearGradient id="paint6_linear_408_200" x1="98.6417" y1="10.6744" x2="134.317" y2="153.222" gradientUnits="userSpaceOnUse">
<stop stop-color="white"/>
<stop offset="1" stop-color="#6637ED"/>
<stop offset="1" stop-color="#6637ED"/>
</linearGradient>
<linearGradient id="paint7_linear_408_200" x1="103.663" y1="10.9558" x2="138.885" y2="151.694" gradientUnits="userSpaceOnUse">
<stop stop-color="white"/>
<stop offset="1" stop-color="#6637ED"/>
<stop offset="1" stop-color="#6637ED"/>
</linearGradient>
<linearGradient id="paint8_linear_408_200" x1="110.933" y1="14.4226" x2="144.435" y2="148.287" gradientUnits="userSpaceOnUse">
<stop stop-color="white"/>
<stop offset="1" stop-color="#6637ED"/>
<stop offset="1" stop-color="#6637ED"/>
</linearGradient>
<linearGradient id="paint9_linear_408_200" x1="60.884" y1="19.0673" x2="97.0345" y2="163.514" gradientUnits="userSpaceOnUse">
<stop stop-color="white"/>
<stop offset="1" stop-color="#6637ED"/>
<stop offset="1" stop-color="#6637ED"/>
</linearGradient>
<linearGradient id="paint10_linear_408_200" x1="54.0235" y1="20.7843" x2="90.0608" y2="164.779" gradientUnits="userSpaceOnUse">
<stop stop-color="white"/>
<stop offset="1" stop-color="#6637ED"/>
<stop offset="1" stop-color="#6637ED"/>
</linearGradient>
<linearGradient id="paint11_linear_408_200" x1="47.956" y1="22.4949" x2="83.948" y2="166.309" gradientUnits="userSpaceOnUse">
<stop stop-color="white"/>
<stop offset="1" stop-color="#6637ED"/>
<stop offset="1" stop-color="#6637ED"/>
</linearGradient>
<linearGradient id="paint12_linear_408_200" x1="42.3804" y1="24.1785" x2="78.2593" y2="167.54" gradientUnits="userSpaceOnUse">
<stop stop-color="white"/>
<stop offset="1" stop-color="#6637ED"/>
<stop offset="1" stop-color="#6637ED"/>
</linearGradient>
<linearGradient id="paint13_linear_408_200" x1="37.1312" y1="26.0688" x2="72.8063" y2="168.616" gradientUnits="userSpaceOnUse">
<stop stop-color="white"/>
<stop offset="1" stop-color="#6637ED"/>
<stop offset="1" stop-color="#6637ED"/>
</linearGradient>
<linearGradient id="paint14_linear_408_200" x1="32.8344" y1="28.6822" x2="68.0568" y2="169.421" gradientUnits="userSpaceOnUse">
<stop stop-color="white"/>
<stop offset="1" stop-color="#6637ED"/>
<stop offset="1" stop-color="#6637ED"/>
</linearGradient>
<linearGradient id="paint15_linear_408_200" x1="28.0548" y1="35.1644" x2="61.5568" y2="169.029" gradientUnits="userSpaceOnUse">
<stop stop-color="white"/>
<stop offset="1" stop-color="#6637ED"/>
<stop offset="1" stop-color="#6637ED"/>
</linearGradient>
<linearGradient id="paint16_linear_408_200" x1="22.5404" y1="44.7138" x2="52.8281" y2="165.735" gradientUnits="userSpaceOnUse">
<stop stop-color="white"/>
<stop offset="1" stop-color="#6637ED"/>
<stop offset="1" stop-color="#6637ED"/>
</linearGradient>
<linearGradient id="paint17_linear_408_200" x1="68.4951" y1="20.0457" x2="102.88" y2="157.438" gradientUnits="userSpaceOnUse">
<stop stop-color="white"/>
<stop offset="1" stop-color="#6637ED"/>
<stop offset="1" stop-color="#6637ED"/>
</linearGradient>
</defs>
</svg>
