<svg width="145" height="87" viewBox="0 0 145 87" fill="none" xmlns="http://www.w3.org/2000/svg">
<rect x="71.5" y="0.5" width="72" height="16" rx="2.5" stroke="white"/>
<path d="M95.3683 5.4H96.2883V11H95.3683V8.576H92.9683V11H92.0483V5.4H92.9683V7.696H95.3683V5.4ZM100.52 7H101.384V11H100.52V10.424C100.194 10.8773 99.7277 11.104 99.1197 11.104C98.5703 11.104 98.101 10.9013 97.7117 10.496C97.3223 10.0853 97.1277 9.58667 97.1277 9C97.1277 8.408 97.3223 7.90933 97.7117 7.504C98.101 7.09867 98.5703 6.896 99.1197 6.896C99.7277 6.896 100.194 7.12 100.52 7.568V7ZM98.3517 9.92C98.5917 10.16 98.893 10.28 99.2557 10.28C99.6183 10.28 99.9197 10.16 100.16 9.92C100.4 9.67467 100.52 9.368 100.52 9C100.52 8.632 100.4 8.328 100.16 8.088C99.9197 7.84267 99.6183 7.72 99.2557 7.72C98.893 7.72 98.5917 7.84267 98.3517 8.088C98.1117 8.328 97.9917 8.632 97.9917 9C97.9917 9.368 98.1117 9.67467 98.3517 9.92ZM104.495 6.896C104.953 6.896 105.324 7.04267 105.607 7.336C105.889 7.62933 106.031 8.032 106.031 8.544V11H105.167V8.632C105.167 8.33333 105.087 8.104 104.927 7.944C104.767 7.784 104.548 7.704 104.271 7.704C103.967 7.704 103.721 7.8 103.535 7.992C103.348 8.17867 103.255 8.46667 103.255 8.856V11H102.391V7H103.255V7.512C103.516 7.10133 103.929 6.896 104.495 6.896ZM110.129 5.4H110.993V11H110.129V10.424C109.804 10.8773 109.337 11.104 108.729 11.104C108.18 11.104 107.71 10.9013 107.321 10.496C106.932 10.0853 106.737 9.58667 106.737 9C106.737 8.408 106.932 7.90933 107.321 7.504C107.71 7.09867 108.18 6.896 108.729 6.896C109.337 6.896 109.804 7.12 110.129 7.568V5.4ZM107.961 9.92C108.201 10.16 108.502 10.28 108.865 10.28C109.228 10.28 109.529 10.16 109.769 9.92C110.009 9.67467 110.129 9.368 110.129 9C110.129 8.632 110.009 8.328 109.769 8.088C109.529 7.84267 109.228 7.72 108.865 7.72C108.502 7.72 108.201 7.84267 107.961 8.088C107.721 8.328 107.601 8.632 107.601 9C107.601 9.368 107.721 9.67467 107.961 9.92ZM112.753 8.104C112.753 8.23733 112.825 8.344 112.969 8.424C113.118 8.49867 113.297 8.56533 113.505 8.624C113.718 8.67733 113.931 8.74133 114.145 8.816C114.358 8.89067 114.537 9.01867 114.681 9.2C114.83 9.376 114.905 9.6 114.905 9.872C114.905 10.256 114.755 10.5573 114.457 10.776C114.163 10.9947 113.793 11.104 113.345 11.104C112.95 11.104 112.611 11.0213 112.329 10.856C112.046 10.6907 111.841 10.4613 111.713 10.168L112.457 9.736C112.595 10.12 112.891 10.312 113.345 10.312C113.798 10.312 114.025 10.1627 114.025 9.864C114.025 9.736 113.95 9.632 113.801 9.552C113.657 9.472 113.478 9.40533 113.265 9.352C113.057 9.29333 112.846 9.22667 112.633 9.152C112.419 9.07733 112.238 8.95467 112.089 8.784C111.945 8.608 111.873 8.38667 111.873 8.12C111.873 7.752 112.011 7.456 112.289 7.232C112.571 7.008 112.921 6.896 113.337 6.896C113.667 6.896 113.961 6.97067 114.217 7.12C114.478 7.264 114.678 7.46667 114.817 7.728L114.089 8.136C113.95 7.832 113.699 7.68 113.337 7.68C113.171 7.68 113.033 7.71733 112.921 7.792C112.809 7.86133 112.753 7.96533 112.753 8.104ZM119.552 11.104C118.965 11.104 118.467 10.9013 118.056 10.496C117.645 10.0907 117.44 9.592 117.44 9C117.44 8.408 117.645 7.90933 118.056 7.504C118.467 7.09867 118.965 6.896 119.552 6.896C120.144 6.896 120.643 7.09867 121.048 7.504C121.459 7.90933 121.664 8.408 121.664 9C121.664 9.592 121.459 10.0907 121.048 10.496C120.643 10.9013 120.144 11.104 119.552 11.104ZM118.664 9.904C118.904 10.144 119.2 10.264 119.552 10.264C119.904 10.264 120.2 10.144 120.44 9.904C120.68 9.664 120.8 9.36267 120.8 9C120.8 8.63733 120.68 8.336 120.44 8.096C120.2 7.856 119.904 7.736 119.552 7.736C119.2 7.736 118.904 7.856 118.664 8.096C118.424 8.336 118.304 8.63733 118.304 9C118.304 9.36267 118.424 9.664 118.664 9.904ZM124.549 6.896C125.008 6.896 125.379 7.04267 125.661 7.336C125.944 7.62933 126.085 8.032 126.085 8.544V11H125.221V8.632C125.221 8.33333 125.141 8.104 124.981 7.944C124.821 7.784 124.603 7.704 124.325 7.704C124.021 7.704 123.776 7.8 123.589 7.992C123.403 8.17867 123.309 8.46667 123.309 8.856V11H122.445V7H123.309V7.512C123.571 7.10133 123.984 6.896 124.549 6.896Z" fill="white"/>
<rect x="72.5" y="70.5" width="72" height="16" rx="2.5" stroke="white"/>
<path d="M93.4775 81.104C92.6349 81.104 91.9362 80.8267 91.3815 80.272C90.8269 79.712 90.5495 79.0213 90.5495 78.2C90.5495 77.3787 90.8269 76.6907 91.3815 76.136C91.9362 75.576 92.6349 75.296 93.4775 75.296C93.9842 75.296 94.4509 75.416 94.8775 75.656C95.3095 75.896 95.6455 76.2213 95.8855 76.632L95.0855 77.096C94.9362 76.8187 94.7175 76.6 94.4295 76.44C94.1469 76.2747 93.8295 76.192 93.4775 76.192C92.8802 76.192 92.3949 76.3813 92.0215 76.76C91.6535 77.1387 91.4695 77.6187 91.4695 78.2C91.4695 78.7813 91.6535 79.2613 92.0215 79.64C92.3949 80.0187 92.8802 80.208 93.4775 80.208C93.8295 80.208 94.1495 80.128 94.4375 79.968C94.7255 79.8027 94.9415 79.5813 95.0855 79.304L95.8855 79.76C95.6509 80.1707 95.3175 80.4987 94.8855 80.744C94.4589 80.984 93.9895 81.104 93.4775 81.104ZM98.474 81.104C97.8874 81.104 97.3887 80.9013 96.978 80.496C96.5674 80.0907 96.362 79.592 96.362 79C96.362 78.408 96.5674 77.9093 96.978 77.504C97.3887 77.0987 97.8874 76.896 98.474 76.896C99.066 76.896 99.5647 77.0987 99.97 77.504C100.381 77.9093 100.586 78.408 100.586 79C100.586 79.592 100.381 80.0907 99.97 80.496C99.5647 80.9013 99.066 81.104 98.474 81.104ZM97.586 79.904C97.826 80.144 98.122 80.264 98.474 80.264C98.826 80.264 99.122 80.144 99.362 79.904C99.602 79.664 99.722 79.3627 99.722 79C99.722 78.6373 99.602 78.336 99.362 78.096C99.122 77.856 98.826 77.736 98.474 77.736C98.122 77.736 97.826 77.856 97.586 78.096C97.346 78.336 97.226 78.6373 97.226 79C97.226 79.3627 97.346 79.664 97.586 79.904ZM105.735 76.896C106.189 76.896 106.554 77.0427 106.831 77.336C107.109 77.6293 107.247 78.024 107.247 78.52V81H106.383V78.576C106.383 78.2987 106.314 78.0853 106.175 77.936C106.037 77.7813 105.847 77.704 105.607 77.704C105.341 77.704 105.127 77.792 104.967 77.968C104.813 78.144 104.735 78.408 104.735 78.76V81H103.871V78.576C103.871 78.2987 103.805 78.0853 103.671 77.936C103.543 77.7813 103.359 77.704 103.119 77.704C102.858 77.704 102.645 77.7947 102.479 77.976C102.314 78.152 102.231 78.4133 102.231 78.76V81H101.367V77H102.231V77.48C102.487 77.0907 102.869 76.896 103.375 76.896C103.887 76.896 104.266 77.1067 104.511 77.528C104.778 77.1067 105.186 76.896 105.735 76.896ZM112.54 76.896C112.993 76.896 113.359 77.0427 113.636 77.336C113.913 77.6293 114.052 78.024 114.052 78.52V81H113.188V78.576C113.188 78.2987 113.119 78.0853 112.98 77.936C112.841 77.7813 112.652 77.704 112.412 77.704C112.145 77.704 111.932 77.792 111.772 77.968C111.617 78.144 111.54 78.408 111.54 78.76V81H110.676V78.576C110.676 78.2987 110.609 78.0853 110.476 77.936C110.348 77.7813 110.164 77.704 109.924 77.704C109.663 77.704 109.449 77.7947 109.284 77.976C109.119 78.152 109.036 78.4133 109.036 78.76V81H108.172V77H109.036V77.48C109.292 77.0907 109.673 76.896 110.18 76.896C110.692 76.896 111.071 77.1067 111.316 77.528C111.583 77.1067 111.991 76.896 112.54 76.896ZM117.673 77H118.537V81H117.673V80.488C117.411 80.8987 116.998 81.104 116.433 81.104C115.974 81.104 115.603 80.9573 115.321 80.664C115.038 80.3707 114.897 79.968 114.897 79.456V77H115.761V79.368C115.761 79.6667 115.841 79.896 116.001 80.056C116.161 80.216 116.379 80.296 116.657 80.296C116.961 80.296 117.206 80.2027 117.393 80.016C117.579 79.824 117.673 79.5333 117.673 79.144V77ZM121.651 76.896C122.11 76.896 122.48 77.0427 122.763 77.336C123.046 77.6293 123.187 78.032 123.187 78.544V81H122.323V78.632C122.323 78.3333 122.243 78.104 122.083 77.944C121.923 77.784 121.704 77.704 121.427 77.704C121.123 77.704 120.878 77.8 120.691 77.992C120.504 78.1787 120.411 78.4667 120.411 78.856V81H119.547V77H120.411V77.512C120.672 77.1013 121.086 76.896 121.651 76.896ZM124.933 76.24C124.827 76.3467 124.699 76.4 124.549 76.4C124.4 76.4 124.269 76.3467 124.157 76.24C124.051 76.128 123.997 75.9973 123.997 75.848C123.997 75.6987 124.051 75.5707 124.157 75.464C124.264 75.352 124.395 75.296 124.549 75.296C124.704 75.296 124.835 75.352 124.941 75.464C125.048 75.5707 125.101 75.6987 125.101 75.848C125.101 75.9973 125.045 76.128 124.933 76.24ZM124.117 81V77H124.981V81H124.117ZM128.216 77.832H127.224V79.752C127.224 79.9173 127.262 80.0373 127.336 80.112C127.411 80.1813 127.52 80.2213 127.664 80.232C127.814 80.2373 127.998 80.2347 128.216 80.224V81C127.555 81.08 127.08 81.024 126.792 80.832C126.504 80.6347 126.36 80.2747 126.36 79.752V77.832H125.624V77H126.36V76.136L127.224 75.88V77H128.216V77.832ZM131.774 77H132.694L131.158 81.128C130.774 82.1627 130.124 82.6533 129.206 82.6V81.792C129.478 81.808 129.697 81.7493 129.862 81.616C130.028 81.488 130.164 81.2853 130.27 81.008L130.31 80.928L128.614 77H129.558L130.75 79.904L131.774 77Z" fill="white"/>
<rect x="71.5" y="36.5" width="72" height="16" rx="2.5" stroke="white"/>
<path d="M92.2831 47L90.6991 41.4H91.6671L92.8431 45.776L94.1151 41.4H94.9631L96.2271 45.776L97.4031 41.4H98.3711L96.7871 47H95.7231L94.5391 42.912L93.3471 47H92.2831ZM100.447 47.104C99.86 47.104 99.3614 46.9013 98.9507 46.496C98.54 46.0907 98.3347 45.592 98.3347 45C98.3347 44.408 98.54 43.9093 98.9507 43.504C99.3614 43.0987 99.86 42.896 100.447 42.896C101.039 42.896 101.537 43.0987 101.943 43.504C102.353 43.9093 102.559 44.408 102.559 45C102.559 45.592 102.353 46.0907 101.943 46.496C101.537 46.9013 101.039 47.104 100.447 47.104ZM99.5587 45.904C99.7987 46.144 100.095 46.264 100.447 46.264C100.799 46.264 101.095 46.144 101.335 45.904C101.575 45.664 101.695 45.3627 101.695 45C101.695 44.6373 101.575 44.336 101.335 44.096C101.095 43.856 100.799 43.736 100.447 43.736C100.095 43.736 99.7987 43.856 99.5587 44.096C99.3187 44.336 99.1987 44.6373 99.1987 45C99.1987 45.3627 99.3187 45.664 99.5587 45.904ZM103.34 47V41.16H104.204V47H103.34ZM108.375 41.4H109.239V47H108.375V46.424C108.05 46.8773 107.583 47.104 106.975 47.104C106.426 47.104 105.956 46.9013 105.567 46.496C105.178 46.0853 104.983 45.5867 104.983 45C104.983 44.408 105.178 43.9093 105.567 43.504C105.956 43.0987 106.426 42.896 106.975 42.896C107.583 42.896 108.05 43.12 108.375 43.568V41.4ZM106.207 45.92C106.447 46.16 106.748 46.28 107.111 46.28C107.474 46.28 107.775 46.16 108.015 45.92C108.255 45.6747 108.375 45.368 108.375 45C108.375 44.632 108.255 44.328 108.015 44.088C107.775 43.8427 107.474 43.72 107.111 43.72C106.748 43.72 106.447 43.8427 106.207 44.088C105.967 44.328 105.847 44.632 105.847 45C105.847 45.368 105.967 45.6747 106.207 45.92ZM114.854 43H115.766L114.51 47H113.662L112.83 44.304L111.99 47H111.142L109.886 43H110.798L111.574 45.76L112.414 43H113.238L114.07 45.76L114.854 43ZM117.218 42.24C117.112 42.3467 116.984 42.4 116.834 42.4C116.685 42.4 116.554 42.3467 116.442 42.24C116.336 42.128 116.282 41.9973 116.282 41.848C116.282 41.6987 116.336 41.5707 116.442 41.464C116.549 41.352 116.68 41.296 116.834 41.296C116.989 41.296 117.12 41.352 117.226 41.464C117.333 41.5707 117.386 41.6987 117.386 41.848C117.386 41.9973 117.33 42.128 117.218 42.24ZM116.402 47V43H117.266V47H116.402ZM121.438 41.4H122.302V47H121.438V46.424C121.112 46.8773 120.646 47.104 120.038 47.104C119.488 47.104 119.019 46.9013 118.63 46.496C118.24 46.0853 118.046 45.5867 118.046 45C118.046 44.408 118.24 43.9093 118.63 43.504C119.019 43.0987 119.488 42.896 120.038 42.896C120.646 42.896 121.112 43.12 121.438 43.568V41.4ZM119.27 45.92C119.51 46.16 119.811 46.28 120.174 46.28C120.536 46.28 120.838 46.16 121.078 45.92C121.318 45.6747 121.438 45.368 121.438 45C121.438 44.632 121.318 44.328 121.078 44.088C120.838 43.8427 120.536 43.72 120.174 43.72C119.811 43.72 119.51 43.8427 119.27 44.088C119.03 44.328 118.91 44.632 118.91 45C118.91 45.368 119.03 45.6747 119.27 45.92ZM123.989 45.368C124.053 45.672 124.199 45.9067 124.429 46.072C124.658 46.232 124.938 46.312 125.269 46.312C125.727 46.312 126.071 46.1467 126.301 45.816L127.013 46.232C126.618 46.8133 126.034 47.104 125.261 47.104C124.61 47.104 124.085 46.9067 123.685 46.512C123.285 46.112 123.085 45.608 123.085 45C123.085 44.4027 123.282 43.904 123.677 43.504C124.071 43.0987 124.578 42.896 125.197 42.896C125.783 42.896 126.263 43.1013 126.637 43.512C127.015 43.9227 127.205 44.4213 127.205 45.008C127.205 45.0987 127.194 45.2187 127.173 45.368H123.989ZM123.981 44.664H126.333C126.274 44.3387 126.138 44.0933 125.925 43.928C125.717 43.7627 125.471 43.68 125.189 43.68C124.869 43.68 124.602 43.768 124.389 43.944C124.175 44.12 124.039 44.36 123.981 44.664Z" fill="white"/>
<rect y="17" width="73" height="17" rx="3" fill="#844CFE"/>
<path d="M22.0894 27.12H24.3694V28H21.1694V22.4H22.0894V27.12ZM25.8122 23.24C25.7055 23.3467 25.5775 23.4 25.4282 23.4C25.2789 23.4 25.1482 23.3467 25.0362 23.24C24.9295 23.128 24.8762 22.9973 24.8762 22.848C24.8762 22.6987 24.9295 22.5707 25.0362 22.464C25.1429 22.352 25.2735 22.296 25.4282 22.296C25.5829 22.296 25.7135 22.352 25.8202 22.464C25.9269 22.5707 25.9802 22.6987 25.9802 22.848C25.9802 22.9973 25.9242 23.128 25.8122 23.24ZM24.9962 28V24H25.8602V28H24.9962ZM29.5754 24H30.5194L28.9594 28H27.9594L26.3994 24H27.3434L28.4634 27.04L29.5754 24ZM31.5903 26.368C31.6543 26.672 31.8009 26.9067 32.0303 27.072C32.2596 27.232 32.5396 27.312 32.8703 27.312C33.3289 27.312 33.6729 27.1467 33.9023 26.816L34.6143 27.232C34.2196 27.8133 33.6356 28.104 32.8623 28.104C32.2116 28.104 31.6863 27.9067 31.2863 27.512C30.8863 27.112 30.6863 26.608 30.6863 26C30.6863 25.4027 30.8836 24.904 31.2783 24.504C31.6729 24.0987 32.1796 23.896 32.7983 23.896C33.3849 23.896 33.8649 24.1013 34.2383 24.512C34.6169 24.9227 34.8063 25.4213 34.8063 26.008C34.8063 26.0987 34.7956 26.2187 34.7743 26.368H31.5903ZM31.5822 25.664H33.9343C33.8756 25.3387 33.7396 25.0933 33.5263 24.928C33.3183 24.7627 33.0729 24.68 32.7903 24.68C32.4703 24.68 32.2036 24.768 31.9903 24.944C31.7769 25.12 31.6409 25.36 31.5822 25.664ZM39.4545 28.104C38.8518 28.104 38.3478 27.9013 37.9425 27.496C37.5425 27.0907 37.3425 26.592 37.3425 26C37.3425 25.4027 37.5425 24.904 37.9425 24.504C38.3478 24.0987 38.8518 23.896 39.4545 23.896C39.8438 23.896 40.1985 23.9893 40.5185 24.176C40.8385 24.3627 41.0785 24.6133 41.2385 24.928L40.4945 25.36C40.4038 25.168 40.2652 25.0187 40.0785 24.912C39.8972 24.8 39.6865 24.744 39.4465 24.744C39.0945 24.744 38.7985 24.864 38.5585 25.104C38.3238 25.344 38.2065 25.6427 38.2065 26C38.2065 26.3573 38.3238 26.656 38.5585 26.896C38.7985 27.136 39.0945 27.256 39.4465 27.256C39.6812 27.256 39.8918 27.2 40.0785 27.088C40.2705 26.976 40.4145 26.8267 40.5105 26.64L41.2545 27.064C41.0838 27.384 40.8385 27.6373 40.5185 27.824C40.1985 28.0107 39.8438 28.104 39.4545 28.104ZM41.879 28V22.16H42.743V28H41.879ZM46.9142 24H47.7782V28H46.9142V27.424C46.5889 27.8773 46.1222 28.104 45.5142 28.104C44.9649 28.104 44.4955 27.9013 44.1062 27.496C43.7169 27.0853 43.5222 26.5867 43.5222 26C43.5222 25.408 43.7169 24.9093 44.1062 24.504C44.4955 24.0987 44.9649 23.896 45.5142 23.896C46.1222 23.896 46.5889 24.12 46.9142 24.568V24ZM44.7462 26.92C44.9862 27.16 45.2875 27.28 45.6502 27.28C46.0129 27.28 46.3142 27.16 46.5542 26.92C46.7942 26.6747 46.9142 26.368 46.9142 26C46.9142 25.632 46.7942 25.328 46.5542 25.088C46.3142 24.8427 46.0129 24.72 45.6502 24.72C45.2875 24.72 44.9862 24.8427 44.7462 25.088C44.5062 25.328 44.3862 25.632 44.3862 26C44.3862 26.368 44.5062 26.6747 44.7462 26.92ZM49.5378 25.104C49.5378 25.2373 49.6098 25.344 49.7538 25.424C49.9031 25.4987 50.0818 25.5653 50.2898 25.624C50.5031 25.6773 50.7165 25.7413 50.9298 25.816C51.1431 25.8907 51.3218 26.0187 51.4658 26.2C51.6151 26.376 51.6898 26.6 51.6898 26.872C51.6898 27.256 51.5405 27.5573 51.2418 27.776C50.9485 27.9947 50.5778 28.104 50.1298 28.104C49.7351 28.104 49.3965 28.0213 49.1138 27.856C48.8311 27.6907 48.6258 27.4613 48.4978 27.168L49.2418 26.736C49.3805 27.12 49.6765 27.312 50.1298 27.312C50.5831 27.312 50.8098 27.1627 50.8098 26.864C50.8098 26.736 50.7351 26.632 50.5858 26.552C50.4418 26.472 50.2631 26.4053 50.0498 26.352C49.8418 26.2933 49.6311 26.2267 49.4178 26.152C49.2045 26.0773 49.0231 25.9547 48.8738 25.784C48.7298 25.608 48.6578 25.3867 48.6578 25.12C48.6578 24.752 48.7965 24.456 49.0738 24.232C49.3565 24.008 49.7058 23.896 50.1218 23.896C50.4525 23.896 50.7458 23.9707 51.0018 24.12C51.2631 24.264 51.4631 24.4667 51.6018 24.728L50.8738 25.136C50.7351 24.832 50.4845 24.68 50.1218 24.68C49.9565 24.68 49.8178 24.7173 49.7058 24.792C49.5938 24.8613 49.5378 24.9653 49.5378 25.104ZM52.9831 25.104C52.9831 25.2373 53.0551 25.344 53.1991 25.424C53.3485 25.4987 53.5271 25.5653 53.7351 25.624C53.9485 25.6773 54.1618 25.7413 54.3751 25.816C54.5885 25.8907 54.7671 26.0187 54.9111 26.2C55.0605 26.376 55.1351 26.6 55.1351 26.872C55.1351 27.256 54.9858 27.5573 54.6871 27.776C54.3938 27.9947 54.0231 28.104 53.5751 28.104C53.1805 28.104 52.8418 28.0213 52.5591 27.856C52.2765 27.6907 52.0711 27.4613 51.9431 27.168L52.6871 26.736C52.8258 27.12 53.1218 27.312 53.5751 27.312C54.0285 27.312 54.2551 27.1627 54.2551 26.864C54.2551 26.736 54.1805 26.632 54.0311 26.552C53.8871 26.472 53.7085 26.4053 53.4951 26.352C53.2871 26.2933 53.0765 26.2267 52.8631 26.152C52.6498 26.0773 52.4685 25.9547 52.3191 25.784C52.1751 25.608 52.1031 25.3867 52.1031 25.12C52.1031 24.752 52.2418 24.456 52.5191 24.232C52.8018 24.008 53.1511 23.896 53.5671 23.896C53.8978 23.896 54.1911 23.9707 54.4471 24.12C54.7085 24.264 54.9085 24.4667 55.0471 24.728L54.3191 25.136C54.1805 24.832 53.9298 24.68 53.5671 24.68C53.4018 24.68 53.2631 24.7173 53.1511 24.792C53.0391 24.8613 52.9831 24.9653 52.9831 25.104Z" fill="white"/>
<rect y="53" width="73" height="17" rx="3" fill="#844CFE"/>
<path d="M29.0125 58.4V59.28H27.4365V64H26.5165V59.28H24.9325V58.4H29.0125ZM30.8061 64.104C30.2194 64.104 29.7207 63.9013 29.3101 63.496C28.8994 63.0907 28.6941 62.592 28.6941 62C28.6941 61.408 28.8994 60.9093 29.3101 60.504C29.7207 60.0987 30.2194 59.896 30.8061 59.896C31.3981 59.896 31.8967 60.0987 32.3021 60.504C32.7127 60.9093 32.9181 61.408 32.9181 62C32.9181 62.592 32.7127 63.0907 32.3021 63.496C31.8967 63.9013 31.3981 64.104 30.8061 64.104ZM29.9181 62.904C30.1581 63.144 30.4541 63.264 30.8061 63.264C31.1581 63.264 31.4541 63.144 31.6941 62.904C31.9341 62.664 32.0541 62.3627 32.0541 62C32.0541 61.6373 31.9341 61.336 31.6941 61.096C31.4541 60.856 31.1581 60.736 30.8061 60.736C30.4541 60.736 30.1581 60.856 29.9181 61.096C29.6781 61.336 29.5581 61.6373 29.5581 62C29.5581 62.3627 29.6781 62.664 29.9181 62.904ZM35.9633 59.896C36.5126 59.896 36.982 60.1013 37.3713 60.512C37.7606 60.9173 37.9553 61.4133 37.9553 62C37.9553 62.592 37.7606 63.0907 37.3713 63.496C36.982 63.9013 36.5126 64.104 35.9633 64.104C35.3553 64.104 34.8886 63.88 34.5633 63.432V65.6H33.6993V60H34.5633V60.576C34.8886 60.1227 35.3553 59.896 35.9633 59.896ZM34.9233 62.92C35.1633 63.16 35.4646 63.28 35.8273 63.28C36.19 63.28 36.4913 63.16 36.7313 62.92C36.9713 62.6747 37.0913 62.368 37.0913 62C37.0913 61.632 36.9713 61.328 36.7313 61.088C36.4913 60.8427 36.19 60.72 35.8273 60.72C35.4646 60.72 35.1633 60.8427 34.9233 61.088C34.6833 61.328 34.5633 61.632 34.5633 62C34.5633 62.368 34.6833 62.6747 34.9233 62.92ZM41.8104 58.4H42.6104V64H41.6904V59.384L40.5624 59.704L40.3384 58.92L41.8104 58.4ZM45.8509 60.488C45.6056 60.7333 45.2963 60.856 44.9229 60.856C44.5496 60.856 44.2376 60.7333 43.9869 60.488C43.7363 60.2373 43.6109 59.9333 43.6109 59.576C43.6109 59.2187 43.7363 58.9173 43.9869 58.672C44.2376 58.4213 44.5496 58.296 44.9229 58.296C45.2963 58.296 45.6056 58.4187 45.8509 58.664C46.1016 58.9093 46.2269 59.2133 46.2269 59.576C46.2269 59.9333 46.1016 60.2373 45.8509 60.488ZM44.9149 60.152C45.0856 60.152 45.2243 60.096 45.3309 59.984C45.4376 59.872 45.4909 59.736 45.4909 59.576C45.4909 59.4107 45.4376 59.272 45.3309 59.16C45.2243 59.048 45.0856 58.992 44.9149 58.992C44.7496 58.992 44.6136 59.048 44.5069 59.16C44.4003 59.272 44.3469 59.4107 44.3469 59.576C44.3469 59.736 44.4003 59.872 44.5069 59.984C44.6136 60.096 44.7496 60.152 44.9149 60.152ZM44.0829 63.176L47.7709 59.072L48.2029 59.32L44.5149 63.432L44.0829 63.176ZM47.4829 64.096C47.1096 64.096 46.7976 63.9733 46.5469 63.728C46.2963 63.4773 46.1709 63.1733 46.1709 62.816C46.1709 62.4587 46.2963 62.1573 46.5469 61.912C46.7976 61.6613 47.1096 61.536 47.4829 61.536C47.8509 61.536 48.1603 61.6613 48.4109 61.912C48.6616 62.1573 48.7869 62.4587 48.7869 62.816C48.7869 63.1733 48.6616 63.4773 48.4109 63.728C48.1603 63.9733 47.8509 64.096 47.4829 64.096ZM47.4749 63.392C47.6456 63.392 47.7843 63.336 47.8909 63.224C47.9976 63.112 48.0509 62.976 48.0509 62.816C48.0509 62.6507 47.9976 62.512 47.8909 62.4C47.7843 62.288 47.6456 62.232 47.4749 62.232C47.3096 62.232 47.1736 62.288 47.0669 62.4C46.9603 62.512 46.9069 62.6507 46.9069 62.816C46.9069 62.976 46.9603 63.112 47.0669 63.224C47.1736 63.336 47.3096 63.392 47.4749 63.392Z" fill="white"/>
</svg>
