<svg width="1706" height="532" viewBox="0 0 1706 532" fill="none" xmlns="http://www.w3.org/2000/svg">
<circle cx="15" cy="517" r="12.5" stroke="#6637ED" stroke-width="5"/>
<path d="M14.5 3V54.5M14.5 492.5V54.5M280 3V3C280 31.4427 256.943 54.5 228.5 54.5H14.5" stroke="url(#paint0_linear_346_603)" stroke-width="5" stroke-linecap="round" stroke-linejoin="round"/>
<rect x="1383.82" y="54" width="159.76" height="44.3777" rx="10" fill="#6637ED"/>
<rect x="1218.35" y="10.5" width="158.76" height="43.3777" rx="9.5" stroke="white"/>
<rect x="1052.76" y="141" width="159.76" height="44.3777" rx="10" fill="#6637ED"/>
<rect x="1386.48" y="141" width="159.76" height="44.3777" rx="10" fill="#6637ED"/>
<rect x="1224.56" y="186.5" width="158.76" height="43.3777" rx="9.5" stroke="white"/>
<rect x="1546.74" y="99.5" width="158.76" height="43.3777" rx="9.5" stroke="white"/>
<rect x="893.5" y="99.5" width="158.76" height="43.3777" rx="9.5" stroke="white"/>
<rect x="1219.62" y="99" width="159.76" height="44.3777" rx="10" fill="#6637ED"/>
<rect x="1052.76" y="54" width="159.76" height="44.3777" rx="10" fill="#6637ED"/>
<path d="M1094.52 83.6219L1093.54 80.8019H1087.58L1086.6 83.6219H1084.1L1089.18 69.6219H1091.94L1097 83.6219H1094.52ZM1088.34 78.6419H1092.78L1090.56 72.3219L1088.34 78.6419ZM1108.79 71.2419C1107.22 71.0953 1106.43 71.7553 1106.43 73.2219V73.6219H1108.79V75.7019H1106.43V83.6219H1104.27V75.7019H1100.93V83.6219H1098.77V75.7019H1097.25V73.6219H1098.77V73.4219C1098.77 72.0486 1099.15 71.0086 1099.91 70.3019C1100.69 69.5819 1101.81 69.2686 1103.29 69.3619V71.4419C1101.72 71.2953 1100.93 71.9553 1100.93 73.4219V73.6219H1104.27V73.2219C1104.27 71.8486 1104.65 70.8086 1105.41 70.1019C1106.19 69.3819 1107.31 69.0686 1108.79 69.1619V71.2419ZM1114.3 83.8819C1112.83 83.8819 1111.58 83.3753 1110.56 82.3619C1109.53 81.3486 1109.02 80.1019 1109.02 78.6219C1109.02 77.1419 1109.53 75.8953 1110.56 74.8819C1111.58 73.8686 1112.83 73.3619 1114.3 73.3619C1115.78 73.3619 1117.02 73.8686 1118.04 74.8819C1119.06 75.8953 1119.58 77.1419 1119.58 78.6219C1119.58 80.1019 1119.06 81.3486 1118.04 82.3619C1117.02 83.3753 1115.78 83.8819 1114.3 83.8819ZM1112.08 80.8819C1112.68 81.4819 1113.42 81.7819 1114.3 81.7819C1115.18 81.7819 1115.92 81.4819 1116.52 80.8819C1117.12 80.2819 1117.42 79.5286 1117.42 78.6219C1117.42 77.7153 1117.12 76.9619 1116.52 76.3619C1115.92 75.7619 1115.18 75.4619 1114.3 75.4619C1113.42 75.4619 1112.68 75.7619 1112.08 76.3619C1111.48 76.9619 1111.18 77.7153 1111.18 78.6219C1111.18 79.5286 1111.48 80.2819 1112.08 80.8819ZM1123.69 75.3019C1124.24 74.0619 1125.26 73.4419 1126.77 73.4419V75.7819C1125.94 75.7286 1125.22 75.9286 1124.61 76.3819C1124 76.8219 1123.69 77.5553 1123.69 78.5819V83.6219H1121.53V73.6219H1123.69V75.3019ZM1135.82 69.6219H1137.98V83.6219H1135.82V82.1819C1135 83.3153 1133.84 83.8819 1132.32 83.8819C1130.94 83.8819 1129.77 83.3753 1128.8 82.3619C1127.82 81.3353 1127.34 80.0886 1127.34 78.6219C1127.34 77.1419 1127.82 75.8953 1128.8 74.8819C1129.77 73.8686 1130.94 73.3619 1132.32 73.3619C1133.84 73.3619 1135 73.9219 1135.82 75.0419V69.6219ZM1130.4 80.9219C1131 81.5219 1131.75 81.8219 1132.66 81.8219C1133.56 81.8219 1134.32 81.5219 1134.92 80.9219C1135.52 80.3086 1135.82 79.5419 1135.82 78.6219C1135.82 77.7019 1135.52 76.9419 1134.92 76.3419C1134.32 75.7286 1133.56 75.4219 1132.66 75.4219C1131.75 75.4219 1131 75.7286 1130.4 76.3419C1129.8 76.9419 1129.5 77.7019 1129.5 78.6219C1129.5 79.5419 1129.8 80.3086 1130.4 80.9219ZM1148.41 73.6219H1150.57V83.6219H1148.41V82.1819C1147.6 83.3153 1146.43 83.8819 1144.91 83.8819C1143.54 83.8819 1142.37 83.3753 1141.39 82.3619C1140.42 81.3353 1139.93 80.0886 1139.93 78.6219C1139.93 77.1419 1140.42 75.8953 1141.39 74.8819C1142.37 73.8686 1143.54 73.3619 1144.91 73.3619C1146.43 73.3619 1147.6 73.9219 1148.41 75.0419V73.6219ZM1142.99 80.9219C1143.59 81.5219 1144.35 81.8219 1145.25 81.8219C1146.16 81.8219 1146.91 81.5219 1147.51 80.9219C1148.11 80.3086 1148.41 79.5419 1148.41 78.6219C1148.41 77.7019 1148.11 76.9419 1147.51 76.3419C1146.91 75.7286 1146.16 75.4219 1145.25 75.4219C1144.35 75.4219 1143.59 75.7286 1142.99 76.3419C1142.39 76.9419 1142.09 77.7019 1142.09 78.6219C1142.09 79.5419 1142.39 80.3086 1142.99 80.9219ZM1158.75 73.3619C1160.13 73.3619 1161.3 73.8686 1162.27 74.8819C1163.25 75.8953 1163.73 77.1419 1163.73 78.6219C1163.73 80.0886 1163.25 81.3353 1162.27 82.3619C1161.3 83.3753 1160.13 83.8819 1158.75 83.8819C1157.23 83.8819 1156.07 83.3153 1155.25 82.1819V83.6219H1153.09V69.6219H1155.25V75.0419C1156.07 73.9219 1157.23 73.3619 1158.75 73.3619ZM1156.15 80.9219C1156.75 81.5219 1157.51 81.8219 1158.41 81.8219C1159.32 81.8219 1160.07 81.5219 1160.67 80.9219C1161.27 80.3086 1161.57 79.5419 1161.57 78.6219C1161.57 77.7019 1161.27 76.9419 1160.67 76.3419C1160.07 75.7286 1159.32 75.4219 1158.41 75.4219C1157.51 75.4219 1156.75 75.7286 1156.15 76.3419C1155.55 76.9419 1155.25 77.7019 1155.25 78.6219C1155.25 79.5419 1155.55 80.3086 1156.15 80.9219ZM1165.69 83.6219V69.0219H1167.85V83.6219H1165.69ZM1172.06 79.5419C1172.22 80.3019 1172.58 80.8886 1173.16 81.3019C1173.73 81.7019 1174.43 81.9019 1175.26 81.9019C1176.4 81.9019 1177.26 81.4886 1177.84 80.6619L1179.62 81.7019C1178.63 83.1553 1177.17 83.8819 1175.24 83.8819C1173.61 83.8819 1172.3 83.3886 1171.3 82.4019C1170.3 81.4019 1169.8 80.1419 1169.8 78.6219C1169.8 77.1286 1170.29 75.8819 1171.28 74.8819C1172.26 73.8686 1173.53 73.3619 1175.08 73.3619C1176.54 73.3619 1177.74 73.8753 1178.68 74.9019C1179.62 75.9286 1180.1 77.1753 1180.1 78.6419C1180.1 78.8686 1180.07 79.1686 1180.02 79.5419H1172.06ZM1172.04 77.7819H1177.92C1177.77 76.9686 1177.43 76.3553 1176.9 75.9419C1176.38 75.5286 1175.76 75.3219 1175.06 75.3219C1174.26 75.3219 1173.59 75.5419 1173.06 75.9819C1172.52 76.4219 1172.18 77.0219 1172.04 77.7819Z" fill="white"/>
<path d="M1277.5 201V203.2H1273.56V215H1271.26V203.2H1267.3V201H1277.5ZM1279.91 206.68C1280.46 205.44 1281.49 204.82 1282.99 204.82V207.16C1282.17 207.107 1281.45 207.307 1280.83 207.76C1280.22 208.2 1279.91 208.933 1279.91 209.96V215H1277.75V205H1279.91V206.68ZM1292.04 205H1294.2V215H1292.04V213.56C1291.23 214.693 1290.06 215.26 1288.54 215.26C1287.17 215.26 1285.99 214.753 1285.02 213.74C1284.05 212.713 1283.56 211.467 1283.56 210C1283.56 208.52 1284.05 207.273 1285.02 206.26C1285.99 205.247 1287.17 204.74 1288.54 204.74C1290.06 204.74 1291.23 205.3 1292.04 206.42V205ZM1286.62 212.3C1287.22 212.9 1287.97 213.2 1288.88 213.2C1289.79 213.2 1290.54 212.9 1291.14 212.3C1291.74 211.687 1292.04 210.92 1292.04 210C1292.04 209.08 1291.74 208.32 1291.14 207.72C1290.54 207.107 1289.79 206.8 1288.88 206.8C1287.97 206.8 1287.22 207.107 1286.62 207.72C1286.02 208.32 1285.72 209.08 1285.72 210C1285.72 210.92 1286.02 211.687 1286.62 212.3ZM1298.76 203.1C1298.49 203.367 1298.17 203.5 1297.8 203.5C1297.42 203.5 1297.1 203.367 1296.82 203.1C1296.55 202.82 1296.42 202.493 1296.42 202.12C1296.42 201.747 1296.55 201.427 1296.82 201.16C1297.08 200.88 1297.41 200.74 1297.8 200.74C1298.18 200.74 1298.51 200.88 1298.78 201.16C1299.04 201.427 1299.18 201.747 1299.18 202.12C1299.18 202.493 1299.04 202.82 1298.76 203.1ZM1296.72 215V205H1298.88V215H1296.72ZM1306.65 204.74C1307.79 204.74 1308.72 205.107 1309.43 205.84C1310.13 206.573 1310.49 207.58 1310.49 208.86V215H1308.33V209.08C1308.33 208.333 1308.13 207.76 1307.73 207.36C1307.33 206.96 1306.78 206.76 1306.09 206.76C1305.33 206.76 1304.71 207 1304.25 207.48C1303.78 207.947 1303.55 208.667 1303.55 209.64V215H1301.39V205H1303.55V206.28C1304.2 205.253 1305.23 204.74 1306.65 204.74ZM1314.85 203.1C1314.58 203.367 1314.26 203.5 1313.89 203.5C1313.52 203.5 1313.19 203.367 1312.91 203.1C1312.64 202.82 1312.51 202.493 1312.51 202.12C1312.51 201.747 1312.64 201.427 1312.91 201.16C1313.18 200.88 1313.5 200.74 1313.89 200.74C1314.28 200.74 1314.6 200.88 1314.87 201.16C1315.14 201.427 1315.27 201.747 1315.27 202.12C1315.27 202.493 1315.13 202.82 1314.85 203.1ZM1312.81 215V205H1314.97V215H1312.81ZM1322.74 204.74C1323.89 204.74 1324.81 205.107 1325.52 205.84C1326.23 206.573 1326.58 207.58 1326.58 208.86V215H1324.42V209.08C1324.42 208.333 1324.22 207.76 1323.82 207.36C1323.42 206.96 1322.87 206.76 1322.18 206.76C1321.42 206.76 1320.81 207 1320.34 207.48C1319.87 207.947 1319.64 208.667 1319.64 209.64V215H1317.48V205H1319.64V206.28C1320.29 205.253 1321.33 204.74 1322.74 204.74ZM1336.86 205H1338.98V214.54C1338.98 216.06 1338.48 217.227 1337.48 218.04C1336.48 218.853 1335.27 219.26 1333.84 219.26C1331.54 219.26 1329.96 218.453 1329.1 216.84L1330.96 215.76C1331.48 216.787 1332.46 217.3 1333.88 217.3C1334.82 217.3 1335.54 217.053 1336.06 216.56C1336.6 216.08 1336.86 215.407 1336.86 214.54V213.32C1336.05 214.48 1334.89 215.06 1333.38 215.06C1331.97 215.06 1330.78 214.56 1329.8 213.56C1328.83 212.547 1328.34 211.327 1328.34 209.9C1328.34 208.473 1328.83 207.26 1329.8 206.26C1330.78 205.247 1331.97 204.74 1333.38 204.74C1334.89 204.74 1336.05 205.32 1336.86 206.48V205ZM1331.4 212.14C1332.02 212.74 1332.78 213.04 1333.68 213.04C1334.59 213.04 1335.34 212.74 1335.94 212.14C1336.56 211.54 1336.86 210.793 1336.86 209.9C1336.86 209.007 1336.56 208.26 1335.94 207.66C1335.34 207.06 1334.59 206.76 1333.68 206.76C1332.78 206.76 1332.02 207.06 1331.4 207.66C1330.8 208.26 1330.5 209.007 1330.5 209.9C1330.5 210.793 1330.8 211.54 1331.4 212.14Z" fill="white"/>
<path d="M929.8 114H932.1V128H930.3L923.7 118.5V128H921.4V114H923.2L929.8 123.5V114ZM936.456 123.92C936.616 124.68 936.983 125.267 937.556 125.68C938.129 126.08 938.829 126.28 939.656 126.28C940.803 126.28 941.663 125.867 942.236 125.04L944.016 126.08C943.029 127.533 941.569 128.26 939.636 128.26C938.009 128.26 936.696 127.767 935.696 126.78C934.696 125.78 934.196 124.52 934.196 123C934.196 121.507 934.689 120.26 935.676 119.26C936.663 118.247 937.929 117.74 939.476 117.74C940.943 117.74 942.143 118.253 943.076 119.28C944.023 120.307 944.496 121.553 944.496 123.02C944.496 123.247 944.469 123.547 944.416 123.92H936.456ZM936.436 122.16H942.316C942.169 121.347 941.829 120.733 941.296 120.32C940.776 119.907 940.163 119.7 939.456 119.7C938.656 119.7 937.989 119.92 937.456 120.36C936.923 120.8 936.583 121.4 936.436 122.16ZM951.664 120.08H949.184V124.88C949.184 125.293 949.278 125.593 949.464 125.78C949.651 125.953 949.924 126.053 950.284 126.08C950.658 126.093 951.118 126.087 951.664 126.06V128C950.011 128.2 948.824 128.06 948.104 127.58C947.384 127.087 947.024 126.187 947.024 124.88V120.08H945.184V118H947.024V115.84L949.184 115.2V118H951.664V120.08ZM965.241 118H967.521L964.381 128H962.261L960.181 121.26L958.081 128H955.961L952.821 118H955.101L957.041 124.9L959.141 118H961.201L963.281 124.9L965.241 118ZM973.441 128.26C971.974 128.26 970.728 127.753 969.701 126.74C968.674 125.727 968.161 124.48 968.161 123C968.161 121.52 968.674 120.273 969.701 119.26C970.728 118.247 971.974 117.74 973.441 117.74C974.921 117.74 976.168 118.247 977.181 119.26C978.208 120.273 978.721 121.52 978.721 123C978.721 124.48 978.208 125.727 977.181 126.74C976.168 127.753 974.921 128.26 973.441 128.26ZM971.221 125.26C971.821 125.86 972.561 126.16 973.441 126.16C974.321 126.16 975.061 125.86 975.661 125.26C976.261 124.66 976.561 123.907 976.561 123C976.561 122.093 976.261 121.34 975.661 120.74C975.061 120.14 974.321 119.84 973.441 119.84C972.561 119.84 971.821 120.14 971.221 120.74C970.621 121.34 970.321 122.093 970.321 123C970.321 123.907 970.621 124.66 971.221 125.26ZM982.834 119.68C983.381 118.44 984.407 117.82 985.914 117.82V120.16C985.087 120.107 984.367 120.307 983.754 120.76C983.141 121.2 982.834 121.933 982.834 122.96V128H980.674V118H982.834V119.68ZM996.35 128H993.77L989.67 123.38V128H987.51V114H989.67V122.42L993.55 118H996.19L991.79 122.9L996.35 128ZM999.843 116.1C999.576 116.367 999.256 116.5 998.883 116.5C998.51 116.5 998.183 116.367 997.903 116.1C997.636 115.82 997.503 115.493 997.503 115.12C997.503 114.747 997.636 114.427 997.903 114.16C998.17 113.88 998.496 113.74 998.883 113.74C999.27 113.74 999.596 113.88 999.863 114.16C1000.13 114.427 1000.26 114.747 1000.26 115.12C1000.26 115.493 1000.12 115.82 999.843 116.1ZM997.803 128V118H999.963V128H997.803ZM1007.73 117.74C1008.88 117.74 1009.8 118.107 1010.51 118.84C1011.22 119.573 1011.57 120.58 1011.57 121.86V128H1009.41V122.08C1009.41 121.333 1009.21 120.76 1008.81 120.36C1008.41 119.96 1007.86 119.76 1007.17 119.76C1006.41 119.76 1005.8 120 1005.33 120.48C1004.86 120.947 1004.63 121.667 1004.63 122.64V128H1002.47V118H1004.63V119.28C1005.28 118.253 1006.32 117.74 1007.73 117.74ZM1021.86 118H1023.98V127.54C1023.98 129.06 1023.48 130.227 1022.48 131.04C1021.48 131.853 1020.26 132.26 1018.84 132.26C1016.53 132.26 1014.95 131.453 1014.1 129.84L1015.96 128.76C1016.48 129.787 1017.45 130.3 1018.88 130.3C1019.81 130.3 1020.54 130.053 1021.06 129.56C1021.59 129.08 1021.86 128.407 1021.86 127.54V126.32C1021.04 127.48 1019.88 128.06 1018.38 128.06C1016.96 128.06 1015.77 127.56 1014.8 126.56C1013.82 125.547 1013.34 124.327 1013.34 122.9C1013.34 121.473 1013.82 120.26 1014.8 119.26C1015.77 118.247 1016.96 117.74 1018.38 117.74C1019.88 117.74 1021.04 118.32 1021.86 119.48V118ZM1016.4 125.14C1017.01 125.74 1017.77 126.04 1018.68 126.04C1019.58 126.04 1020.34 125.74 1020.94 125.14C1021.55 124.54 1021.86 123.793 1021.86 122.9C1021.86 122.007 1021.55 121.26 1020.94 120.66C1020.34 120.06 1019.58 119.76 1018.68 119.76C1017.77 119.76 1017.01 120.06 1016.4 120.66C1015.8 121.26 1015.5 122.007 1015.5 122.9C1015.5 123.793 1015.8 124.54 1016.4 125.14Z" fill="white"/>
<path d="M1112.5 157V159.2H1108.56V171H1106.26V159.2H1102.3V157H1112.5ZM1116.98 171.26C1115.52 171.26 1114.27 170.753 1113.24 169.74C1112.22 168.727 1111.7 167.48 1111.7 166C1111.7 164.52 1112.22 163.273 1113.24 162.26C1114.27 161.247 1115.52 160.74 1116.98 160.74C1118.46 160.74 1119.71 161.247 1120.72 162.26C1121.75 163.273 1122.26 164.52 1122.26 166C1122.26 167.48 1121.75 168.727 1120.72 169.74C1119.71 170.753 1118.46 171.26 1116.98 171.26ZM1114.76 168.26C1115.36 168.86 1116.1 169.16 1116.98 169.16C1117.86 169.16 1118.6 168.86 1119.2 168.26C1119.8 167.66 1120.1 166.907 1120.1 166C1120.1 165.093 1119.8 164.34 1119.2 163.74C1118.6 163.14 1117.86 162.84 1116.98 162.84C1116.1 162.84 1115.36 163.14 1114.76 163.74C1114.16 164.34 1113.86 165.093 1113.86 166C1113.86 166.907 1114.16 167.66 1114.76 168.26ZM1129.88 160.74C1131.25 160.74 1132.42 161.253 1133.4 162.28C1134.37 163.293 1134.86 164.533 1134.86 166C1134.86 167.48 1134.37 168.727 1133.4 169.74C1132.42 170.753 1131.25 171.26 1129.88 171.26C1128.36 171.26 1127.19 170.7 1126.38 169.58V175H1124.22V161H1126.38V162.44C1127.19 161.307 1128.36 160.74 1129.88 160.74ZM1127.28 168.3C1127.88 168.9 1128.63 169.2 1129.54 169.2C1130.44 169.2 1131.2 168.9 1131.8 168.3C1132.4 167.687 1132.7 166.92 1132.7 166C1132.7 165.08 1132.4 164.32 1131.8 163.72C1131.2 163.107 1130.44 162.8 1129.54 162.8C1128.63 162.8 1127.88 163.107 1127.28 163.72C1126.68 164.32 1126.38 165.08 1126.38 166C1126.38 166.92 1126.68 167.687 1127.28 168.3ZM1144.49 157H1146.49V171H1144.19V159.46L1141.37 160.26L1140.81 158.3L1144.49 157ZM1154.6 162.22C1153.98 162.833 1153.21 163.14 1152.28 163.14C1151.34 163.14 1150.56 162.833 1149.94 162.22C1149.31 161.593 1149 160.833 1149 159.94C1149 159.047 1149.31 158.293 1149.94 157.68C1150.56 157.053 1151.34 156.74 1152.28 156.74C1153.21 156.74 1153.98 157.047 1154.6 157.66C1155.22 158.273 1155.54 159.033 1155.54 159.94C1155.54 160.833 1155.22 161.593 1154.6 162.22ZM1152.26 161.38C1152.68 161.38 1153.03 161.24 1153.3 160.96C1153.56 160.68 1153.7 160.34 1153.7 159.94C1153.7 159.527 1153.56 159.18 1153.3 158.9C1153.03 158.62 1152.68 158.48 1152.26 158.48C1151.84 158.48 1151.5 158.62 1151.24 158.9C1150.97 159.18 1150.84 159.527 1150.84 159.94C1150.84 160.34 1150.97 160.68 1151.24 160.96C1151.5 161.24 1151.84 161.38 1152.26 161.38ZM1150.18 168.94L1159.4 158.68L1160.48 159.3L1151.26 169.58L1150.18 168.94ZM1158.68 171.24C1157.74 171.24 1156.96 170.933 1156.34 170.32C1155.71 169.693 1155.4 168.933 1155.4 168.04C1155.4 167.147 1155.71 166.393 1156.34 165.78C1156.96 165.153 1157.74 164.84 1158.68 164.84C1159.6 164.84 1160.37 165.153 1161 165.78C1161.62 166.393 1161.94 167.147 1161.94 168.04C1161.94 168.933 1161.62 169.693 1161 170.32C1160.37 170.933 1159.6 171.24 1158.68 171.24ZM1158.66 169.48C1159.08 169.48 1159.43 169.34 1159.7 169.06C1159.96 168.78 1160.1 168.44 1160.1 168.04C1160.1 167.627 1159.96 167.28 1159.7 167C1159.43 166.72 1159.08 166.58 1158.66 166.58C1158.24 166.58 1157.9 166.72 1157.64 167C1157.37 167.28 1157.24 167.627 1157.24 168.04C1157.24 168.44 1157.37 168.78 1157.64 169.06C1157.9 169.34 1158.24 169.48 1158.66 169.48Z" fill="white"/>
<path d="M1256.7 125.8H1262.4V128H1254.4V114H1256.7V125.8ZM1266.01 116.1C1265.74 116.367 1265.42 116.5 1265.05 116.5C1264.67 116.5 1264.35 116.367 1264.07 116.1C1263.8 115.82 1263.67 115.493 1263.67 115.12C1263.67 114.747 1263.8 114.427 1264.07 114.16C1264.33 113.88 1264.66 113.74 1265.05 113.74C1265.43 113.74 1265.76 113.88 1266.03 114.16C1266.29 114.427 1266.43 114.747 1266.43 115.12C1266.43 115.493 1266.29 115.82 1266.01 116.1ZM1263.97 128V118H1266.13V128H1263.97ZM1275.42 118H1277.78L1273.88 128H1271.38L1267.48 118H1269.84L1272.64 125.6L1275.42 118ZM1280.45 123.92C1280.61 124.68 1280.98 125.267 1281.55 125.68C1282.13 126.08 1282.83 126.28 1283.65 126.28C1284.8 126.28 1285.66 125.867 1286.23 125.04L1288.01 126.08C1287.03 127.533 1285.57 128.26 1283.63 128.26C1282.01 128.26 1280.69 127.767 1279.69 126.78C1278.69 125.78 1278.19 124.52 1278.19 123C1278.19 121.507 1278.69 120.26 1279.67 119.26C1280.66 118.247 1281.93 117.74 1283.47 117.74C1284.94 117.74 1286.14 118.253 1287.07 119.28C1288.02 120.307 1288.49 121.553 1288.49 123.02C1288.49 123.247 1288.47 123.547 1288.41 123.92H1280.45ZM1280.43 122.16H1286.31C1286.17 121.347 1285.83 120.733 1285.29 120.32C1284.77 119.907 1284.16 119.7 1283.45 119.7C1282.65 119.7 1281.99 119.92 1281.45 120.36C1280.92 120.8 1280.58 121.4 1280.43 122.16ZM1302.15 128.26C1300.05 128.26 1298.3 127.567 1296.91 126.18C1295.53 124.78 1294.83 123.053 1294.83 121C1294.83 118.947 1295.53 117.227 1296.91 115.84C1298.3 114.44 1300.05 113.74 1302.15 113.74C1303.42 113.74 1304.59 114.04 1305.65 114.64C1306.73 115.24 1307.57 116.053 1308.17 117.08L1306.17 118.24C1305.8 117.547 1305.25 117 1304.53 116.6C1303.83 116.187 1303.03 115.98 1302.15 115.98C1300.66 115.98 1299.45 116.453 1298.51 117.4C1297.59 118.347 1297.13 119.547 1297.13 121C1297.13 122.453 1297.59 123.653 1298.51 124.6C1299.45 125.547 1300.66 126.02 1302.15 126.02C1303.03 126.02 1303.83 125.82 1304.55 125.42C1305.27 125.007 1305.81 124.453 1306.17 123.76L1308.17 124.9C1307.59 125.927 1306.75 126.747 1305.67 127.36C1304.61 127.96 1303.43 128.26 1302.15 128.26ZM1310.04 128V113.4H1312.2V128H1310.04ZM1322.63 118H1324.79V128H1322.63V126.56C1321.82 127.693 1320.65 128.26 1319.13 128.26C1317.76 128.26 1316.58 127.753 1315.61 126.74C1314.64 125.713 1314.15 124.467 1314.15 123C1314.15 121.52 1314.64 120.273 1315.61 119.26C1316.58 118.247 1317.76 117.74 1319.13 117.74C1320.65 117.74 1321.82 118.3 1322.63 119.42V118ZM1317.21 125.3C1317.81 125.9 1318.56 126.2 1319.47 126.2C1320.38 126.2 1321.13 125.9 1321.73 125.3C1322.33 124.687 1322.63 123.92 1322.63 123C1322.63 122.08 1322.33 121.32 1321.73 120.72C1321.13 120.107 1320.38 119.8 1319.47 119.8C1318.56 119.8 1317.81 120.107 1317.21 120.72C1316.61 121.32 1316.31 122.08 1316.31 123C1316.31 123.92 1316.61 124.687 1317.21 125.3ZM1329.19 120.76C1329.19 121.093 1329.37 121.36 1329.73 121.56C1330.1 121.747 1330.55 121.913 1331.07 122.06C1331.6 122.193 1332.13 122.353 1332.67 122.54C1333.2 122.727 1333.65 123.047 1334.01 123.5C1334.38 123.94 1334.57 124.5 1334.57 125.18C1334.57 126.14 1334.19 126.893 1333.45 127.44C1332.71 127.987 1331.79 128.26 1330.67 128.26C1329.68 128.26 1328.83 128.053 1328.13 127.64C1327.42 127.227 1326.91 126.653 1326.59 125.92L1328.45 124.84C1328.79 125.8 1329.53 126.28 1330.67 126.28C1331.8 126.28 1332.37 125.907 1332.37 125.16C1332.37 124.84 1332.18 124.58 1331.81 124.38C1331.45 124.18 1331 124.013 1330.47 123.88C1329.95 123.733 1329.42 123.567 1328.89 123.38C1328.35 123.193 1327.9 122.887 1327.53 122.46C1327.17 122.02 1326.99 121.467 1326.99 120.8C1326.99 119.88 1327.33 119.14 1328.03 118.58C1328.73 118.02 1329.61 117.74 1330.65 117.74C1331.47 117.74 1332.21 117.927 1332.85 118.3C1333.5 118.66 1334 119.167 1334.35 119.82L1332.53 120.84C1332.18 120.08 1331.55 119.7 1330.65 119.7C1330.23 119.7 1329.89 119.793 1329.61 119.98C1329.33 120.153 1329.19 120.413 1329.19 120.76ZM1337.8 120.76C1337.8 121.093 1337.98 121.36 1338.34 121.56C1338.71 121.747 1339.16 121.913 1339.68 122.06C1340.21 122.193 1340.75 122.353 1341.28 122.54C1341.81 122.727 1342.26 123.047 1342.62 123.5C1342.99 123.94 1343.18 124.5 1343.18 125.18C1343.18 126.14 1342.81 126.893 1342.06 127.44C1341.33 127.987 1340.4 128.26 1339.28 128.26C1338.29 128.26 1337.45 128.053 1336.74 127.64C1336.03 127.227 1335.52 126.653 1335.2 125.92L1337.06 124.84C1337.41 125.8 1338.15 126.28 1339.28 126.28C1340.41 126.28 1340.98 125.907 1340.98 125.16C1340.98 124.84 1340.79 124.58 1340.42 124.38C1340.06 124.18 1339.61 124.013 1339.08 123.88C1338.56 123.733 1338.03 123.567 1337.5 123.38C1336.97 123.193 1336.51 122.887 1336.14 122.46C1335.78 122.02 1335.6 121.467 1335.6 120.8C1335.6 119.88 1335.95 119.14 1336.64 118.58C1337.35 118.02 1338.22 117.74 1339.26 117.74C1340.09 117.74 1340.82 117.927 1341.46 118.3C1342.11 118.66 1342.61 119.167 1342.96 119.82L1341.14 120.84C1340.79 120.08 1340.17 119.7 1339.26 119.7C1338.85 119.7 1338.5 119.793 1338.22 119.98C1337.94 120.153 1337.8 120.413 1337.8 120.76Z" fill="white"/>
<path d="M1253.02 39.26C1250.91 39.26 1249.17 38.5667 1247.78 37.18C1246.39 35.78 1245.7 34.0533 1245.7 32C1245.7 29.9467 1246.39 28.2267 1247.78 26.84C1249.17 25.44 1250.91 24.74 1253.02 24.74C1254.29 24.74 1255.45 25.04 1256.52 25.64C1257.6 26.24 1258.44 27.0533 1259.04 28.08L1257.04 29.24C1256.67 28.5467 1256.12 28 1255.4 27.6C1254.69 27.1867 1253.9 26.98 1253.02 26.98C1251.53 26.98 1250.31 27.4533 1249.38 28.4C1248.46 29.3467 1248 30.5467 1248 32C1248 33.4533 1248.46 34.6533 1249.38 35.6C1250.31 36.5467 1251.53 37.02 1253.02 37.02C1253.9 37.02 1254.7 36.82 1255.42 36.42C1256.14 36.0067 1256.68 35.4533 1257.04 34.76L1259.04 35.9C1258.45 36.9267 1257.62 37.7467 1256.54 38.36C1255.47 38.96 1254.3 39.26 1253.02 39.26ZM1265.51 39.26C1264.04 39.26 1262.8 38.7533 1261.77 37.74C1260.74 36.7267 1260.23 35.48 1260.23 34C1260.23 32.52 1260.74 31.2733 1261.77 30.26C1262.8 29.2467 1264.04 28.74 1265.51 28.74C1266.99 28.74 1268.24 29.2467 1269.25 30.26C1270.28 31.2733 1270.79 32.52 1270.79 34C1270.79 35.48 1270.28 36.7267 1269.25 37.74C1268.24 38.7533 1266.99 39.26 1265.51 39.26ZM1263.29 36.26C1263.89 36.86 1264.63 37.16 1265.51 37.16C1266.39 37.16 1267.13 36.86 1267.73 36.26C1268.33 35.66 1268.63 34.9067 1268.63 34C1268.63 33.0933 1268.33 32.34 1267.73 31.74C1267.13 31.14 1266.39 30.84 1265.51 30.84C1264.63 30.84 1263.89 31.14 1263.29 31.74C1262.69 32.34 1262.39 33.0933 1262.39 34C1262.39 34.9067 1262.69 35.66 1263.29 36.26ZM1283.66 28.74C1284.8 28.74 1285.71 29.1067 1286.4 29.84C1287.1 30.5733 1287.44 31.56 1287.44 32.8V39H1285.28V32.94C1285.28 32.2467 1285.11 31.7133 1284.76 31.34C1284.42 30.9533 1283.94 30.76 1283.34 30.76C1282.68 30.76 1282.14 30.98 1281.74 31.42C1281.36 31.86 1281.16 32.52 1281.16 33.4V39H1279V32.94C1279 32.2467 1278.84 31.7133 1278.5 31.34C1278.18 30.9533 1277.72 30.76 1277.12 30.76C1276.47 30.76 1275.94 30.9867 1275.52 31.44C1275.11 31.88 1274.9 32.5333 1274.9 33.4V39H1272.74V29H1274.9V30.2C1275.54 29.2267 1276.5 28.74 1277.76 28.74C1279.04 28.74 1279.99 29.2667 1280.6 30.32C1281.27 29.2667 1282.29 28.74 1283.66 28.74ZM1300.68 28.74C1301.81 28.74 1302.72 29.1067 1303.42 29.84C1304.11 30.5733 1304.46 31.56 1304.46 32.8V39H1302.3V32.94C1302.3 32.2467 1302.12 31.7133 1301.78 31.34C1301.43 30.9533 1300.96 30.76 1300.36 30.76C1299.69 30.76 1299.16 30.98 1298.76 31.42C1298.37 31.86 1298.18 32.52 1298.18 33.4V39H1296.02V32.94C1296.02 32.2467 1295.85 31.7133 1295.52 31.34C1295.2 30.9533 1294.74 30.76 1294.14 30.76C1293.48 30.76 1292.95 30.9867 1292.54 31.44C1292.12 31.88 1291.92 32.5333 1291.92 33.4V39H1289.76V29H1291.92V30.2C1292.56 29.2267 1293.51 28.74 1294.78 28.74C1296.06 28.74 1297 29.2667 1297.62 30.32C1298.28 29.2667 1299.3 28.74 1300.68 28.74ZM1313.51 29H1315.67V39H1313.51V37.72C1312.85 38.7467 1311.82 39.26 1310.41 39.26C1309.26 39.26 1308.33 38.8933 1307.63 38.16C1306.92 37.4267 1306.57 36.42 1306.57 35.14V29H1308.73V34.92C1308.73 35.6667 1308.93 36.24 1309.33 36.64C1309.73 37.04 1310.27 37.24 1310.97 37.24C1311.73 37.24 1312.34 37.0067 1312.81 36.54C1313.27 36.06 1313.51 35.3333 1313.51 34.36V29ZM1323.45 28.74C1324.6 28.74 1325.53 29.1067 1326.23 29.84C1326.94 30.5733 1327.29 31.58 1327.29 32.86V39H1325.13V33.08C1325.13 32.3333 1324.93 31.76 1324.53 31.36C1324.13 30.96 1323.59 30.76 1322.89 30.76C1322.13 30.76 1321.52 31 1321.05 31.48C1320.59 31.9467 1320.35 32.6667 1320.35 33.64V39H1318.19V29H1320.35V30.28C1321.01 29.2533 1322.04 28.74 1323.45 28.74ZM1331.66 27.1C1331.39 27.3667 1331.07 27.5 1330.7 27.5C1330.33 27.5 1330 27.3667 1329.72 27.1C1329.45 26.82 1329.32 26.4933 1329.32 26.12C1329.32 25.7467 1329.45 25.4267 1329.72 25.16C1329.99 24.88 1330.31 24.74 1330.7 24.74C1331.09 24.74 1331.41 24.88 1331.68 25.16C1331.95 25.4267 1332.08 25.7467 1332.08 26.12C1332.08 26.4933 1331.94 26.82 1331.66 27.1ZM1329.62 39V29H1331.78V39H1329.62ZM1339.87 31.08H1337.39V35.88C1337.39 36.2933 1337.48 36.5933 1337.67 36.78C1337.85 36.9533 1338.13 37.0533 1338.49 37.08C1338.86 37.0933 1339.32 37.0867 1339.87 37.06V39C1338.21 39.2 1337.03 39.06 1336.31 38.58C1335.59 38.0867 1335.23 37.1867 1335.23 35.88V31.08H1333.39V29H1335.23V26.84L1337.39 26.2V29H1339.87V31.08ZM1348.76 29H1351.06L1347.22 39.32C1346.26 41.9067 1344.64 43.1333 1342.34 43V40.98C1343.02 41.02 1343.57 40.8733 1343.98 40.54C1344.4 40.22 1344.74 39.7133 1345 39.02L1345.1 38.82L1340.86 29H1343.22L1346.2 36.26L1348.76 29Z" fill="white"/>
<path d="M1424.7 70H1427V84H1424.7V77.94H1418.7V84H1416.4V70H1418.7V75.74H1424.7V70ZM1437.58 74H1439.74V84H1437.58V82.56C1436.77 83.6933 1435.6 84.26 1434.08 84.26C1432.71 84.26 1431.53 83.7533 1430.56 82.74C1429.59 81.7133 1429.1 80.4667 1429.1 79C1429.1 77.52 1429.59 76.2733 1430.56 75.26C1431.53 74.2467 1432.71 73.74 1434.08 73.74C1435.6 73.74 1436.77 74.3 1437.58 75.42V74ZM1432.16 81.3C1432.76 81.9 1433.51 82.2 1434.42 82.2C1435.33 82.2 1436.08 81.9 1436.68 81.3C1437.28 80.6867 1437.58 79.92 1437.58 79C1437.58 78.08 1437.28 77.32 1436.68 76.72C1436.08 76.1067 1435.33 75.8 1434.42 75.8C1433.51 75.8 1432.76 76.1067 1432.16 76.72C1431.56 77.32 1431.26 78.08 1431.26 79C1431.26 79.92 1431.56 80.6867 1432.16 81.3ZM1447.52 73.74C1448.66 73.74 1449.59 74.1067 1450.3 74.84C1451 75.5733 1451.36 76.58 1451.36 77.86V84H1449.2V78.08C1449.2 77.3333 1449 76.76 1448.6 76.36C1448.2 75.96 1447.65 75.76 1446.96 75.76C1446.2 75.76 1445.58 76 1445.12 76.48C1444.65 76.9467 1444.42 77.6667 1444.42 78.64V84H1442.26V74H1444.42V75.28C1445.07 74.2533 1446.1 73.74 1447.52 73.74ZM1461.6 70H1463.76V84H1461.6V82.56C1460.79 83.6933 1459.62 84.26 1458.1 84.26C1456.73 84.26 1455.56 83.7533 1454.58 82.74C1453.61 81.7133 1453.12 80.4667 1453.12 79C1453.12 77.52 1453.61 76.2733 1454.58 75.26C1455.56 74.2467 1456.73 73.74 1458.1 73.74C1459.62 73.74 1460.79 74.3 1461.6 75.42V70ZM1456.18 81.3C1456.78 81.9 1457.54 82.2 1458.44 82.2C1459.35 82.2 1460.1 81.9 1460.7 81.3C1461.3 80.6867 1461.6 79.92 1461.6 79C1461.6 78.08 1461.3 77.32 1460.7 76.72C1460.1 76.1067 1459.35 75.8 1458.44 75.8C1457.54 75.8 1456.78 76.1067 1456.18 76.72C1455.58 77.32 1455.28 78.08 1455.28 79C1455.28 79.92 1455.58 80.6867 1456.18 81.3ZM1468.16 76.76C1468.16 77.0933 1468.34 77.36 1468.7 77.56C1469.07 77.7467 1469.52 77.9133 1470.04 78.06C1470.57 78.1933 1471.11 78.3533 1471.64 78.54C1472.17 78.7267 1472.62 79.0467 1472.98 79.5C1473.35 79.94 1473.54 80.5 1473.54 81.18C1473.54 82.14 1473.17 82.8933 1472.42 83.44C1471.69 83.9867 1470.76 84.26 1469.64 84.26C1468.65 84.26 1467.81 84.0533 1467.1 83.64C1466.39 83.2267 1465.88 82.6533 1465.56 81.92L1467.42 80.84C1467.77 81.8 1468.51 82.28 1469.64 82.28C1470.77 82.28 1471.34 81.9067 1471.34 81.16C1471.34 80.84 1471.15 80.58 1470.78 80.38C1470.42 80.18 1469.97 80.0133 1469.44 79.88C1468.92 79.7333 1468.39 79.5667 1467.86 79.38C1467.33 79.1933 1466.87 78.8867 1466.5 78.46C1466.14 78.02 1465.96 77.4667 1465.96 76.8C1465.96 75.88 1466.31 75.14 1467 74.58C1467.71 74.02 1468.58 73.74 1469.62 73.74C1470.45 73.74 1471.18 73.9267 1471.82 74.3C1472.47 74.66 1472.97 75.1667 1473.32 75.82L1471.5 76.84C1471.15 76.08 1470.53 75.7 1469.62 75.7C1469.21 75.7 1468.86 75.7933 1468.58 75.98C1468.3 76.1533 1468.16 76.4133 1468.16 76.76ZM1475.19 78.96V76.88H1482.59V78.96H1475.19ZM1497.08 82.16C1495.68 83.56 1493.97 84.26 1491.94 84.26C1489.92 84.26 1488.2 83.56 1486.78 82.16C1485.38 80.7467 1484.68 79.0267 1484.68 77C1484.68 74.9733 1485.38 73.26 1486.78 71.86C1488.2 70.4467 1489.92 69.74 1491.94 69.74C1493.97 69.74 1495.68 70.4467 1497.08 71.86C1498.5 73.26 1499.2 74.9733 1499.2 77C1499.2 79.0267 1498.5 80.7467 1497.08 82.16ZM1488.4 80.6C1489.36 81.5467 1490.54 82.02 1491.94 82.02C1493.34 82.02 1494.52 81.5467 1495.46 80.6C1496.42 79.64 1496.9 78.44 1496.9 77C1496.9 75.56 1496.42 74.3667 1495.46 73.42C1494.52 72.46 1493.34 71.98 1491.94 71.98C1490.54 71.98 1489.36 72.46 1488.4 73.42C1487.46 74.3667 1486.98 75.56 1486.98 77C1486.98 78.44 1487.46 79.64 1488.4 80.6ZM1506.42 73.74C1507.57 73.74 1508.5 74.1067 1509.2 74.84C1509.91 75.5733 1510.26 76.58 1510.26 77.86V84H1508.1V78.08C1508.1 77.3333 1507.9 76.76 1507.5 76.36C1507.1 75.96 1506.56 75.76 1505.86 75.76C1505.1 75.76 1504.49 76 1504.02 76.48C1503.56 76.9467 1503.32 77.6667 1503.32 78.64V84H1501.16V74H1503.32V75.28C1503.98 74.2533 1505.01 73.74 1506.42 73.74Z" fill="white"/>
<path d="M1419.36 171L1415.4 157H1417.82L1420.76 167.94L1423.94 157H1426.06L1429.22 167.94L1432.16 157H1434.58L1430.62 171H1427.96L1425 160.78L1422.02 171H1419.36ZM1439.77 171.26C1438.3 171.26 1437.06 170.753 1436.03 169.74C1435 168.727 1434.49 167.48 1434.49 166C1434.49 164.52 1435 163.273 1436.03 162.26C1437.06 161.247 1438.3 160.74 1439.77 160.74C1441.25 160.74 1442.5 161.247 1443.51 162.26C1444.54 163.273 1445.05 164.52 1445.05 166C1445.05 167.48 1444.54 168.727 1443.51 169.74C1442.5 170.753 1441.25 171.26 1439.77 171.26ZM1437.55 168.26C1438.15 168.86 1438.89 169.16 1439.77 169.16C1440.65 169.16 1441.39 168.86 1441.99 168.26C1442.59 167.66 1442.89 166.907 1442.89 166C1442.89 165.093 1442.59 164.34 1441.99 163.74C1441.39 163.14 1440.65 162.84 1439.77 162.84C1438.89 162.84 1438.15 163.14 1437.55 163.74C1436.95 164.34 1436.65 165.093 1436.65 166C1436.65 166.907 1436.95 167.66 1437.55 168.26ZM1449.16 162.68C1449.71 161.44 1450.74 160.82 1452.24 160.82V163.16C1451.42 163.107 1450.7 163.307 1450.08 163.76C1449.47 164.2 1449.16 164.933 1449.16 165.96V171H1447V161H1449.16V162.68ZM1462.68 171H1460.1L1456 166.38V171H1453.84V157H1456V165.42L1459.88 161H1462.52L1458.12 165.9L1462.68 171ZM1465.37 163.76C1465.37 164.093 1465.55 164.36 1465.91 164.56C1466.28 164.747 1466.73 164.913 1467.25 165.06C1467.78 165.193 1468.31 165.353 1468.85 165.54C1469.38 165.727 1469.83 166.047 1470.19 166.5C1470.56 166.94 1470.75 167.5 1470.75 168.18C1470.75 169.14 1470.37 169.893 1469.63 170.44C1468.89 170.987 1467.97 171.26 1466.85 171.26C1465.86 171.26 1465.01 171.053 1464.31 170.64C1463.6 170.227 1463.09 169.653 1462.77 168.92L1464.63 167.84C1464.97 168.8 1465.71 169.28 1466.85 169.28C1467.98 169.28 1468.55 168.907 1468.55 168.16C1468.55 167.84 1468.36 167.58 1467.99 167.38C1467.63 167.18 1467.18 167.013 1466.65 166.88C1466.13 166.733 1465.6 166.567 1465.07 166.38C1464.53 166.193 1464.08 165.887 1463.71 165.46C1463.35 165.02 1463.17 164.467 1463.17 163.8C1463.17 162.88 1463.51 162.14 1464.21 161.58C1464.91 161.02 1465.79 160.74 1466.83 160.74C1467.65 160.74 1468.39 160.927 1469.03 161.3C1469.68 161.66 1470.18 162.167 1470.53 162.82L1468.71 163.84C1468.36 163.08 1467.73 162.7 1466.83 162.7C1466.41 162.7 1466.07 162.793 1465.79 162.98C1465.51 163.153 1465.37 163.413 1465.37 163.76ZM1477.79 160.74C1478.94 160.74 1479.86 161.107 1480.57 161.84C1481.28 162.573 1481.63 163.58 1481.63 164.86V171H1479.47V165.08C1479.47 164.333 1479.27 163.76 1478.87 163.36C1478.47 162.96 1477.92 162.76 1477.23 162.76C1476.47 162.76 1475.86 163 1475.39 163.48C1474.92 163.947 1474.69 164.667 1474.69 165.64V171H1472.53V157H1474.69V162.28C1475.34 161.253 1476.38 160.74 1477.79 160.74ZM1488.68 171.26C1487.21 171.26 1485.96 170.753 1484.94 169.74C1483.91 168.727 1483.4 167.48 1483.4 166C1483.4 164.52 1483.91 163.273 1484.94 162.26C1485.96 161.247 1487.21 160.74 1488.68 160.74C1490.16 160.74 1491.4 161.247 1492.42 162.26C1493.44 163.273 1493.96 164.52 1493.96 166C1493.96 167.48 1493.44 168.727 1492.42 169.74C1491.4 170.753 1490.16 171.26 1488.68 171.26ZM1486.46 168.26C1487.06 168.86 1487.8 169.16 1488.68 169.16C1489.56 169.16 1490.3 168.86 1490.9 168.26C1491.5 167.66 1491.8 166.907 1491.8 166C1491.8 165.093 1491.5 164.34 1490.9 163.74C1490.3 163.14 1489.56 162.84 1488.68 162.84C1487.8 162.84 1487.06 163.14 1486.46 163.74C1485.86 164.34 1485.56 165.093 1485.56 166C1485.56 166.907 1485.86 167.66 1486.46 168.26ZM1501.57 160.74C1502.94 160.74 1504.12 161.253 1505.09 162.28C1506.06 163.293 1506.55 164.533 1506.55 166C1506.55 167.48 1506.06 168.727 1505.09 169.74C1504.12 170.753 1502.94 171.26 1501.57 171.26C1500.05 171.26 1498.88 170.7 1498.07 169.58V175H1495.91V161H1498.07V162.44C1498.88 161.307 1500.05 160.74 1501.57 160.74ZM1498.97 168.3C1499.57 168.9 1500.32 169.2 1501.23 169.2C1502.14 169.2 1502.89 168.9 1503.49 168.3C1504.09 167.687 1504.39 166.92 1504.39 166C1504.39 165.08 1504.09 164.32 1503.49 163.72C1502.89 163.107 1502.14 162.8 1501.23 162.8C1500.32 162.8 1499.57 163.107 1498.97 163.72C1498.37 164.32 1498.07 165.08 1498.07 166C1498.07 166.92 1498.37 167.687 1498.97 168.3ZM1510.25 163.76C1510.25 164.093 1510.43 164.36 1510.79 164.56C1511.16 164.747 1511.61 164.913 1512.13 165.06C1512.66 165.193 1513.2 165.353 1513.73 165.54C1514.26 165.727 1514.71 166.047 1515.07 166.5C1515.44 166.94 1515.63 167.5 1515.63 168.18C1515.63 169.14 1515.26 169.893 1514.51 170.44C1513.78 170.987 1512.85 171.26 1511.73 171.26C1510.74 171.26 1509.9 171.053 1509.19 170.64C1508.48 170.227 1507.97 169.653 1507.65 168.92L1509.51 167.84C1509.86 168.8 1510.6 169.28 1511.73 169.28C1512.86 169.28 1513.43 168.907 1513.43 168.16C1513.43 167.84 1513.24 167.58 1512.87 167.38C1512.51 167.18 1512.06 167.013 1511.53 166.88C1511.01 166.733 1510.48 166.567 1509.95 166.38C1509.42 166.193 1508.96 165.887 1508.59 165.46C1508.23 165.02 1508.05 164.467 1508.05 163.8C1508.05 162.88 1508.4 162.14 1509.09 161.58C1509.8 161.02 1510.67 160.74 1511.71 160.74C1512.54 160.74 1513.27 160.927 1513.91 161.3C1514.56 161.66 1515.06 162.167 1515.41 162.82L1513.59 163.84C1513.24 163.08 1512.62 162.7 1511.71 162.7C1511.3 162.7 1510.95 162.793 1510.67 162.98C1510.39 163.153 1510.25 163.413 1510.25 163.76Z" fill="white"/>
<path d="M1580.36 128L1576.4 114H1578.82L1581.76 124.94L1584.94 114H1587.06L1590.22 124.94L1593.16 114H1595.58L1591.62 128H1588.96L1586 117.78L1583.02 128H1580.36ZM1600.77 128.26C1599.3 128.26 1598.06 127.753 1597.03 126.74C1596 125.727 1595.49 124.48 1595.49 123C1595.49 121.52 1596 120.273 1597.03 119.26C1598.06 118.247 1599.3 117.74 1600.77 117.74C1602.25 117.74 1603.5 118.247 1604.51 119.26C1605.54 120.273 1606.05 121.52 1606.05 123C1606.05 124.48 1605.54 125.727 1604.51 126.74C1603.5 127.753 1602.25 128.26 1600.77 128.26ZM1598.55 125.26C1599.15 125.86 1599.89 126.16 1600.77 126.16C1601.65 126.16 1602.39 125.86 1602.99 125.26C1603.59 124.66 1603.89 123.907 1603.89 123C1603.89 122.093 1603.59 121.34 1602.99 120.74C1602.39 120.14 1601.65 119.84 1600.77 119.84C1599.89 119.84 1599.15 120.14 1598.55 120.74C1597.95 121.34 1597.65 122.093 1597.65 123C1597.65 123.907 1597.95 124.66 1598.55 125.26ZM1610.16 119.68C1610.71 118.44 1611.74 117.82 1613.24 117.82V120.16C1612.42 120.107 1611.7 120.307 1611.08 120.76C1610.47 121.2 1610.16 121.933 1610.16 122.96V128H1608V118H1610.16V119.68ZM1614.84 128V113.4H1617V128H1614.84ZM1627.43 114H1629.59V128H1627.43V126.56C1626.61 127.693 1625.45 128.26 1623.93 128.26C1622.55 128.26 1621.38 127.753 1620.41 126.74C1619.43 125.713 1618.95 124.467 1618.95 123C1618.95 121.52 1619.43 120.273 1620.41 119.26C1621.38 118.247 1622.55 117.74 1623.93 117.74C1625.45 117.74 1626.61 118.3 1627.43 119.42V114ZM1622.01 125.3C1622.61 125.9 1623.36 126.2 1624.27 126.2C1625.17 126.2 1625.93 125.9 1626.53 125.3C1627.13 124.687 1627.43 123.92 1627.43 123C1627.43 122.08 1627.13 121.32 1626.53 120.72C1625.93 120.107 1625.17 119.8 1624.27 119.8C1623.36 119.8 1622.61 120.107 1622.01 120.72C1621.41 121.32 1621.11 122.08 1621.11 123C1621.11 123.92 1621.41 124.687 1622.01 125.3ZM1643.62 118H1645.9L1642.76 128H1640.64L1638.56 121.26L1636.46 128H1634.34L1631.2 118H1633.48L1635.42 124.9L1637.52 118H1639.58L1641.66 124.9L1643.62 118ZM1649.53 116.1C1649.27 116.367 1648.95 116.5 1648.57 116.5C1648.2 116.5 1647.87 116.367 1647.59 116.1C1647.33 115.82 1647.19 115.493 1647.19 115.12C1647.19 114.747 1647.33 114.427 1647.59 114.16C1647.86 113.88 1648.19 113.74 1648.57 113.74C1648.96 113.74 1649.29 113.88 1649.55 114.16C1649.82 114.427 1649.95 114.747 1649.95 115.12C1649.95 115.493 1649.81 115.82 1649.53 116.1ZM1647.49 128V118H1649.65V128H1647.49ZM1660.08 114H1662.24V128H1660.08V126.56C1659.27 127.693 1658.1 128.26 1656.58 128.26C1655.21 128.26 1654.04 127.753 1653.06 126.74C1652.09 125.713 1651.6 124.467 1651.6 123C1651.6 121.52 1652.09 120.273 1653.06 119.26C1654.04 118.247 1655.21 117.74 1656.58 117.74C1658.1 117.74 1659.27 118.3 1660.08 119.42V114ZM1654.66 125.3C1655.26 125.9 1656.02 126.2 1656.92 126.2C1657.83 126.2 1658.58 125.9 1659.18 125.3C1659.78 124.687 1660.08 123.92 1660.08 123C1660.08 122.08 1659.78 121.32 1659.18 120.72C1658.58 120.107 1657.83 119.8 1656.92 119.8C1656.02 119.8 1655.26 120.107 1654.66 120.72C1654.06 121.32 1653.76 122.08 1653.76 123C1653.76 123.92 1654.06 124.687 1654.66 125.3ZM1666.46 123.92C1666.62 124.68 1666.99 125.267 1667.56 125.68C1668.13 126.08 1668.83 126.28 1669.66 126.28C1670.81 126.28 1671.67 125.867 1672.24 125.04L1674.02 126.08C1673.03 127.533 1671.57 128.26 1669.64 128.26C1668.01 128.26 1666.7 127.767 1665.7 126.78C1664.7 125.78 1664.2 124.52 1664.2 123C1664.2 121.507 1664.69 120.26 1665.68 119.26C1666.67 118.247 1667.93 117.74 1669.48 117.74C1670.95 117.74 1672.15 118.253 1673.08 119.28C1674.03 120.307 1674.5 121.553 1674.5 123.02C1674.5 123.247 1674.47 123.547 1674.42 123.92H1666.46ZM1666.44 122.16H1672.32C1672.17 121.347 1671.83 120.733 1671.3 120.32C1670.78 119.907 1670.17 119.7 1669.46 119.7C1668.66 119.7 1667.99 119.92 1667.46 120.36C1666.93 120.8 1666.59 121.4 1666.44 122.16Z" fill="white"/>
<defs>
<linearGradient id="paint0_linear_346_603" x1="152.5" y1="139" x2="147" y2="511" gradientUnits="userSpaceOnUse">
<stop stop-color="#6637ED"/>
<stop offset="1" stop-color="#6637ED" stop-opacity="0"/>
</linearGradient>
</defs>
</svg>
