<svg width="360" height="1194" viewBox="0 0 360 1194" fill="none" xmlns="http://www.w3.org/2000/svg">
<g clip-path="url(#clip0_345_295)">
<rect width="475" height="1194" transform="translate(-56)" fill="url(#paint0_linear_345_295)"/>
<line x1="29.9976" y1="679.205" x2="29.9976" y2="-141" stroke="url(#paint1_linear_345_295)" stroke-opacity="0.12"/>
<line x1="64.2729" y1="679.213" x2="64.2729" y2="-140.992" stroke="url(#paint2_linear_345_295)" stroke-opacity="0.12"/>
<line x1="97.7534" y1="679.205" x2="97.7534" y2="-141" stroke="url(#paint3_linear_345_295)" stroke-opacity="0.12"/>
<line x1="131.23" y1="679.213" x2="131.23" y2="-140.992" stroke="url(#paint4_linear_345_295)" stroke-opacity="0.12"/>
<line x1="164.709" y1="679.205" x2="164.709" y2="-141" stroke="url(#paint5_linear_345_295)" stroke-opacity="0.12"/>
<line x1="198.984" y1="679.213" x2="198.984" y2="-140.992" stroke="url(#paint6_linear_345_295)" stroke-opacity="0.12"/>
<line x1="232.462" y1="679.205" x2="232.462" y2="-141" stroke="url(#paint7_linear_345_295)" stroke-opacity="0.12"/>
<line x1="267.536" y1="679.213" x2="267.536" y2="-140.991" stroke="url(#paint8_linear_345_295)" stroke-opacity="0.12"/>
<line x1="301.014" y1="679.205" x2="301.014" y2="-140.999" stroke="url(#paint9_linear_345_295)" stroke-opacity="0.12"/>
<line x1="335.29" y1="679.213" x2="335.29" y2="-140.991" stroke="url(#paint10_linear_345_295)" stroke-opacity="0.12"/>
<line x1="-1053.98" y1="2.54697" x2="867.245" y2="2.54697" stroke="url(#paint11_linear_345_295)" stroke-opacity="0.12"/>
<line x1="-1054" y1="43.2271" x2="867.225" y2="43.2271" stroke="url(#paint12_linear_345_295)" stroke-opacity="0.12"/>
<line x1="-1053.98" y1="82.9612" x2="867.245" y2="82.9612" stroke="url(#paint13_linear_345_295)" stroke-opacity="0.12"/>
<line x1="-1054" y1="122.695" x2="867.225" y2="122.695" stroke="url(#paint14_linear_345_295)" stroke-opacity="0.12"/>
<line x1="-1053.98" y1="162.429" x2="867.244" y2="162.429" stroke="url(#paint15_linear_345_295)" stroke-opacity="0.12"/>
<line x1="-1054" y1="203.109" x2="867.226" y2="203.109" stroke="url(#paint16_linear_345_295)" stroke-opacity="0.12"/>
<line x1="-1053.98" y1="242.843" x2="867.244" y2="242.843" stroke="url(#paint17_linear_345_295)" stroke-opacity="0.12"/>
<line x1="-1054" y1="284.47" x2="867.226" y2="284.47" stroke="url(#paint18_linear_345_295)" stroke-opacity="0.12"/>
<line x1="-1053.98" y1="324.204" x2="867.245" y2="324.204" stroke="url(#paint19_linear_345_295)" stroke-opacity="0.12"/>
<line x1="-1054" y1="364.884" x2="867.225" y2="364.884" stroke="url(#paint20_linear_345_295)" stroke-opacity="0.12"/>
<line x1="-1053.98" y1="404.618" x2="867.245" y2="404.618" stroke="url(#paint21_linear_345_295)" stroke-opacity="0.12"/>
<line x1="-1054" y1="444.352" x2="867.225" y2="444.352" stroke="url(#paint22_linear_345_295)" stroke-opacity="0.12"/>
<line x1="-1053.98" y1="484.086" x2="867.244" y2="484.086" stroke="url(#paint23_linear_345_295)" stroke-opacity="0.12"/>
<line x1="-1054" y1="524.766" x2="867.225" y2="524.766" stroke="url(#paint24_linear_345_295)" stroke-opacity="0.12"/>
<line x1="-1053.98" y1="564.5" x2="867.244" y2="564.5" stroke="url(#paint25_linear_345_295)" stroke-opacity="0.12"/>
<line x1="334.794" y1="478.356" x2="334.483" y2="1298.56" stroke="url(#paint26_linear_345_295)" stroke-opacity="0.12"/>
<line x1="301.315" y1="478.351" x2="301.004" y2="1298.56" stroke="url(#paint27_linear_345_295)" stroke-opacity="0.12"/>
<line x1="266.241" y1="478.33" x2="265.93" y2="1298.53" stroke="url(#paint28_linear_345_295)" stroke-opacity="0.12"/>
<line x1="232.762" y1="478.325" x2="232.452" y2="1298.53" stroke="url(#paint29_linear_345_295)" stroke-opacity="0.12"/>
<line x1="198.487" y1="478.304" x2="198.176" y2="1298.51" stroke="url(#paint30_linear_345_295)" stroke-opacity="0.12"/>
<line x1="165.006" y1="478.3" x2="164.696" y2="1298.5" stroke="url(#paint31_linear_345_295)" stroke-opacity="0.12"/>
<line x1="131.53" y1="478.279" x2="131.219" y2="1298.48" stroke="url(#paint32_linear_345_295)" stroke-opacity="0.12"/>
<line x1="98.0508" y1="478.274" x2="97.7402" y2="1298.48" stroke="url(#paint33_linear_345_295)" stroke-opacity="0.12"/>
<line x1="63.7754" y1="478.253" x2="63.4648" y2="1298.46" stroke="url(#paint34_linear_345_295)" stroke-opacity="0.12"/>
<line x1="30.2974" y1="478.249" x2="29.9868" y2="1298.45" stroke="url(#paint35_linear_345_295)" stroke-opacity="0.12"/>
<line x1="1316.49" y1="1195.13" x2="-604.737" y2="1194.4" stroke="url(#paint36_linear_345_295)" stroke-opacity="0.12"/>
<line x1="1316.48" y1="1155.39" x2="-604.741" y2="1154.67" stroke="url(#paint37_linear_345_295)" stroke-opacity="0.12"/>
<line x1="1316.52" y1="1114.71" x2="-604.706" y2="1113.99" stroke="url(#paint38_linear_345_295)" stroke-opacity="0.12"/>
<line x1="1316.51" y1="1074.98" x2="-604.71" y2="1074.25" stroke="url(#paint39_linear_345_295)" stroke-opacity="0.12"/>
<line x1="1316.55" y1="1035.24" x2="-604.676" y2="1034.52" stroke="url(#paint40_linear_345_295)" stroke-opacity="0.12"/>
<line x1="1316.54" y1="995.511" x2="-604.68" y2="994.784" stroke="url(#paint41_linear_345_295)" stroke-opacity="0.12"/>
<line x1="1316.58" y1="954.831" x2="-604.646" y2="954.104" stroke="url(#paint42_linear_345_295)" stroke-opacity="0.12"/>
<line x1="1316.58" y1="915.097" x2="-604.65" y2="914.369" stroke="url(#paint43_linear_345_295)" stroke-opacity="0.12"/>
<line x1="1316.61" y1="873.471" x2="-604.616" y2="872.743" stroke="url(#paint44_linear_345_295)" stroke-opacity="0.12"/>
<line x1="1316.61" y1="833.737" x2="-604.619" y2="833.009" stroke="url(#paint45_linear_345_295)" stroke-opacity="0.12"/>
<line x1="1316.64" y1="793.056" x2="-604.585" y2="792.329" stroke="url(#paint46_linear_345_295)" stroke-opacity="0.12"/>
<line x1="1316.64" y1="753.323" x2="-604.589" y2="752.595" stroke="url(#paint47_linear_345_295)" stroke-opacity="0.12"/>
<line x1="1316.67" y1="713.588" x2="-604.555" y2="712.861" stroke="url(#paint48_linear_345_295)" stroke-opacity="0.12"/>
<line x1="1316.67" y1="673.854" x2="-604.558" y2="673.127" stroke="url(#paint49_linear_345_295)" stroke-opacity="0.12"/>
<line x1="1316.7" y1="633.174" x2="-604.524" y2="632.447" stroke="url(#paint50_linear_345_295)" stroke-opacity="0.12"/>
<line x1="1316.7" y1="593.44" x2="-604.528" y2="592.713" stroke="url(#paint51_linear_345_295)" stroke-opacity="0.12"/>
<mask id="path-52-outside-1_345_295" maskUnits="userSpaceOnUse" x="-7" y="1095" width="233" height="150" fill="black">
<rect fill="white" x="-7" y="1095" width="233" height="150"/>
<path d="M32.6 1100H60.6V1240H28.6V1133.8L3.8 1140.6L-4 1113.2L32.6 1100ZM117.464 1165.2C97.4641 1165.2 82.6641 1150 82.6641 1131.2C82.6641 1112.4 97.4641 1097.2 117.464 1097.2C137.264 1097.2 152.064 1111.8 152.064 1131.2C152.064 1150 137.264 1165.2 117.464 1165.2ZM99.2641 1218L189.664 1118L202.864 1125.6L112.464 1225.8L99.2641 1218ZM117.264 1142.2C123.664 1142.2 128.064 1137 128.064 1131.2C128.064 1125 123.664 1120.2 117.264 1120.2C111.064 1120.2 106.664 1125 106.664 1131.2C106.664 1137.4 111.064 1142.2 117.264 1142.2ZM188.864 1242.4C168.864 1242.4 154.064 1227.2 154.064 1208.4C154.064 1189.6 168.864 1174.4 188.864 1174.4C208.664 1174.4 223.464 1189.6 223.464 1208.4C223.464 1227.2 208.664 1242.4 188.864 1242.4ZM188.664 1219.4C195.064 1219.4 199.464 1214.2 199.464 1208.4C199.464 1202.2 195.064 1197.4 188.664 1197.4C182.464 1197.4 178.064 1202.2 178.064 1208.4C178.064 1214.6 182.464 1219.4 188.664 1219.4Z"/>
</mask>
<path d="M32.6 1100V1098H32.2504L31.9215 1098.12L32.6 1100ZM60.6 1100H62.6V1098H60.6V1100ZM60.6 1240V1242H62.6V1240H60.6ZM28.6 1240H26.6V1242H28.6V1240ZM28.6 1133.8H30.6V1131.18L28.0711 1131.87L28.6 1133.8ZM3.8 1140.6L1.87642 1141.15L2.41871 1143.05L4.32887 1142.53L3.8 1140.6ZM-4 1113.2L-4.67853 1111.32L-6.43473 1111.95L-5.92358 1113.75L-4 1113.2ZM32.6 1102H60.6V1098H32.6V1102ZM58.6 1100V1240H62.6V1100H58.6ZM60.6 1238H28.6V1242H60.6V1238ZM30.6 1240V1133.8H26.6V1240H30.6ZM28.0711 1131.87L3.27113 1138.67L4.32887 1142.53L29.1289 1135.73L28.0711 1131.87ZM5.72358 1140.05L-2.07642 1112.65L-5.92358 1113.75L1.87642 1141.15L5.72358 1140.05ZM-3.32147 1115.08L33.2785 1101.88L31.9215 1098.12L-4.67853 1111.32L-3.32147 1115.08ZM99.2641 1218L97.7804 1216.66L96.1379 1218.48L98.2466 1219.72L99.2641 1218ZM189.664 1118L190.662 1116.27L189.263 1115.46L188.18 1116.66L189.664 1118ZM202.864 1125.6L204.349 1126.94L206.007 1125.1L203.862 1123.87L202.864 1125.6ZM112.464 1225.8L111.447 1227.52L112.854 1228.35L113.949 1227.14L112.464 1225.8ZM117.464 1163.2C98.5533 1163.2 84.6641 1148.88 84.6641 1131.2H80.6641C80.6641 1151.12 96.3748 1167.2 117.464 1167.2V1163.2ZM84.6641 1131.2C84.6641 1113.52 98.5533 1099.2 117.464 1099.2V1095.2C96.3748 1095.2 80.6641 1111.28 80.6641 1131.2H84.6641ZM117.464 1099.2C136.19 1099.2 150.064 1112.94 150.064 1131.2H154.064C154.064 1110.66 138.338 1095.2 117.464 1095.2V1099.2ZM150.064 1131.2C150.064 1148.89 136.167 1163.2 117.464 1163.2V1167.2C138.361 1167.2 154.064 1151.11 154.064 1131.2H150.064ZM100.748 1219.34L191.148 1119.34L188.18 1116.66L97.7804 1216.66L100.748 1219.34ZM188.666 1119.73L201.866 1127.33L203.862 1123.87L190.662 1116.27L188.666 1119.73ZM201.379 1124.26L110.979 1224.46L113.949 1227.14L204.349 1126.94L201.379 1124.26ZM113.482 1224.08L100.282 1216.28L98.2466 1219.72L111.447 1227.52L113.482 1224.08ZM117.264 1144.2C124.887 1144.2 130.064 1137.98 130.064 1131.2H126.064C126.064 1136.02 122.441 1140.2 117.264 1140.2V1144.2ZM130.064 1131.2C130.064 1123.97 124.841 1118.2 117.264 1118.2V1122.2C122.487 1122.2 126.064 1126.03 126.064 1131.2H130.064ZM117.264 1118.2C109.863 1118.2 104.664 1123.99 104.664 1131.2H108.664C108.664 1126.01 112.265 1122.2 117.264 1122.2V1118.2ZM104.664 1131.2C104.664 1138.41 109.863 1144.2 117.264 1144.2V1140.2C112.265 1140.2 108.664 1136.39 108.664 1131.2H104.664ZM188.864 1240.4C169.953 1240.4 156.064 1226.08 156.064 1208.4H152.064C152.064 1228.32 167.775 1244.4 188.864 1244.4V1240.4ZM156.064 1208.4C156.064 1190.72 169.953 1176.4 188.864 1176.4V1172.4C167.775 1172.4 152.064 1188.48 152.064 1208.4H156.064ZM188.864 1176.4C207.567 1176.4 221.464 1190.71 221.464 1208.4H225.464C225.464 1188.49 209.761 1172.4 188.864 1172.4V1176.4ZM221.464 1208.4C221.464 1226.09 207.567 1240.4 188.864 1240.4V1244.4C209.761 1244.4 225.464 1228.31 225.464 1208.4H221.464ZM188.664 1221.4C196.287 1221.4 201.464 1215.18 201.464 1208.4H197.464C197.464 1213.22 193.841 1217.4 188.664 1217.4V1221.4ZM201.464 1208.4C201.464 1201.17 196.241 1195.4 188.664 1195.4V1199.4C193.887 1199.4 197.464 1203.23 197.464 1208.4H201.464ZM188.664 1195.4C181.263 1195.4 176.064 1201.19 176.064 1208.4H180.064C180.064 1203.21 183.665 1199.4 188.664 1199.4V1195.4ZM176.064 1208.4C176.064 1215.61 181.263 1221.4 188.664 1221.4V1217.4C183.665 1217.4 180.064 1213.59 180.064 1208.4H176.064Z" fill="url(#paint52_linear_345_295)" mask="url(#path-52-outside-1_345_295)"/>
</g>
<defs>
<linearGradient id="paint0_linear_345_295" x1="237.5" y1="0" x2="-271.107" y2="1117.08" gradientUnits="userSpaceOnUse">
<stop stop-color="white"/>
<stop offset="1" stop-color="#D7D3D3"/>
</linearGradient>
<linearGradient id="paint1_linear_345_295" x1="30.4976" y1="269.103" x2="31.4976" y2="269.103" gradientUnits="userSpaceOnUse">
<stop stop-color="#1700FF"/>
<stop offset="0.5625" stop-color="#4F27FE" stop-opacity="0"/>
<stop offset="1" stop-color="#844CFE"/>
</linearGradient>
<linearGradient id="paint2_linear_345_295" x1="64.7729" y1="269.111" x2="65.7729" y2="269.111" gradientUnits="userSpaceOnUse">
<stop stop-color="#1700FF"/>
<stop offset="0.5625" stop-color="#4F27FE" stop-opacity="0"/>
<stop offset="1" stop-color="#844CFE"/>
</linearGradient>
<linearGradient id="paint3_linear_345_295" x1="98.2534" y1="269.103" x2="99.2534" y2="269.103" gradientUnits="userSpaceOnUse">
<stop stop-color="#1700FF"/>
<stop offset="0.5625" stop-color="#4F27FE" stop-opacity="0"/>
<stop offset="1" stop-color="#844CFE"/>
</linearGradient>
<linearGradient id="paint4_linear_345_295" x1="131.73" y1="269.111" x2="132.73" y2="269.111" gradientUnits="userSpaceOnUse">
<stop stop-color="#1700FF"/>
<stop offset="0.5625" stop-color="#4F27FE" stop-opacity="0"/>
<stop offset="1" stop-color="#844CFE"/>
</linearGradient>
<linearGradient id="paint5_linear_345_295" x1="165.209" y1="269.103" x2="166.209" y2="269.103" gradientUnits="userSpaceOnUse">
<stop stop-color="#1700FF"/>
<stop offset="0.5625" stop-color="#4F27FE" stop-opacity="0"/>
<stop offset="1" stop-color="#844CFE"/>
</linearGradient>
<linearGradient id="paint6_linear_345_295" x1="199.484" y1="269.111" x2="200.484" y2="269.111" gradientUnits="userSpaceOnUse">
<stop stop-color="#1700FF"/>
<stop offset="0.5625" stop-color="#4F27FE" stop-opacity="0"/>
<stop offset="1" stop-color="#844CFE"/>
</linearGradient>
<linearGradient id="paint7_linear_345_295" x1="232.962" y1="269.103" x2="233.962" y2="269.103" gradientUnits="userSpaceOnUse">
<stop stop-color="#1700FF"/>
<stop offset="0.5625" stop-color="#4F27FE" stop-opacity="0"/>
<stop offset="1" stop-color="#844CFE"/>
</linearGradient>
<linearGradient id="paint8_linear_345_295" x1="268.036" y1="269.111" x2="269.036" y2="269.111" gradientUnits="userSpaceOnUse">
<stop stop-color="#1700FF"/>
<stop offset="0.5625" stop-color="#4F27FE" stop-opacity="0"/>
<stop offset="1" stop-color="#844CFE"/>
</linearGradient>
<linearGradient id="paint9_linear_345_295" x1="301.514" y1="269.103" x2="302.514" y2="269.103" gradientUnits="userSpaceOnUse">
<stop stop-color="#1700FF"/>
<stop offset="0.5625" stop-color="#4F27FE" stop-opacity="0"/>
<stop offset="1" stop-color="#844CFE"/>
</linearGradient>
<linearGradient id="paint10_linear_345_295" x1="335.79" y1="269.111" x2="336.79" y2="269.111" gradientUnits="userSpaceOnUse">
<stop stop-color="#1700FF"/>
<stop offset="0.5625" stop-color="#4F27FE" stop-opacity="0"/>
<stop offset="1" stop-color="#844CFE"/>
</linearGradient>
<linearGradient id="paint11_linear_345_295" x1="-93.3678" y1="3.04697" x2="-93.3678" y2="4.04697" gradientUnits="userSpaceOnUse">
<stop stop-color="#1700FF"/>
<stop offset="0.5625" stop-color="#4F27FE" stop-opacity="0"/>
<stop offset="1" stop-color="#844CFE"/>
</linearGradient>
<linearGradient id="paint12_linear_345_295" x1="-93.3871" y1="43.7271" x2="-93.3871" y2="44.7271" gradientUnits="userSpaceOnUse">
<stop stop-color="#1700FF"/>
<stop offset="0.5625" stop-color="#4F27FE" stop-opacity="0"/>
<stop offset="1" stop-color="#844CFE"/>
</linearGradient>
<linearGradient id="paint13_linear_345_295" x1="-93.3678" y1="83.4612" x2="-93.3678" y2="84.4612" gradientUnits="userSpaceOnUse">
<stop stop-color="#1700FF"/>
<stop offset="0.5625" stop-color="#4F27FE" stop-opacity="0"/>
<stop offset="1" stop-color="#844CFE"/>
</linearGradient>
<linearGradient id="paint14_linear_345_295" x1="-93.3871" y1="123.195" x2="-93.3871" y2="124.195" gradientUnits="userSpaceOnUse">
<stop stop-color="#1700FF"/>
<stop offset="0.5625" stop-color="#4F27FE" stop-opacity="0"/>
<stop offset="1" stop-color="#844CFE"/>
</linearGradient>
<linearGradient id="paint15_linear_345_295" x1="-93.368" y1="162.929" x2="-93.368" y2="163.929" gradientUnits="userSpaceOnUse">
<stop stop-color="#1700FF"/>
<stop offset="0.5625" stop-color="#4F27FE" stop-opacity="0"/>
<stop offset="1" stop-color="#844CFE"/>
</linearGradient>
<linearGradient id="paint16_linear_345_295" x1="-93.3868" y1="203.609" x2="-93.3868" y2="204.609" gradientUnits="userSpaceOnUse">
<stop stop-color="#1700FF"/>
<stop offset="0.5625" stop-color="#4F27FE" stop-opacity="0"/>
<stop offset="1" stop-color="#844CFE"/>
</linearGradient>
<linearGradient id="paint17_linear_345_295" x1="-93.368" y1="243.343" x2="-93.368" y2="244.343" gradientUnits="userSpaceOnUse">
<stop stop-color="#1700FF"/>
<stop offset="0.5625" stop-color="#4F27FE" stop-opacity="0"/>
<stop offset="1" stop-color="#844CFE"/>
</linearGradient>
<linearGradient id="paint18_linear_345_295" x1="-93.3868" y1="284.97" x2="-93.3868" y2="285.97" gradientUnits="userSpaceOnUse">
<stop stop-color="#1700FF"/>
<stop offset="0.5625" stop-color="#4F27FE" stop-opacity="0"/>
<stop offset="1" stop-color="#844CFE"/>
</linearGradient>
<linearGradient id="paint19_linear_345_295" x1="-93.3678" y1="324.704" x2="-93.3678" y2="325.704" gradientUnits="userSpaceOnUse">
<stop stop-color="#1700FF"/>
<stop offset="0.5625" stop-color="#4F27FE" stop-opacity="0"/>
<stop offset="1" stop-color="#844CFE"/>
</linearGradient>
<linearGradient id="paint20_linear_345_295" x1="-93.3871" y1="365.384" x2="-93.3871" y2="366.384" gradientUnits="userSpaceOnUse">
<stop stop-color="#1700FF"/>
<stop offset="0.5625" stop-color="#4F27FE" stop-opacity="0"/>
<stop offset="1" stop-color="#844CFE"/>
</linearGradient>
<linearGradient id="paint21_linear_345_295" x1="-93.3678" y1="405.118" x2="-93.3678" y2="406.118" gradientUnits="userSpaceOnUse">
<stop stop-color="#1700FF"/>
<stop offset="0.5625" stop-color="#4F27FE" stop-opacity="0"/>
<stop offset="1" stop-color="#844CFE"/>
</linearGradient>
<linearGradient id="paint22_linear_345_295" x1="-93.3873" y1="444.852" x2="-93.3873" y2="445.852" gradientUnits="userSpaceOnUse">
<stop stop-color="#1700FF"/>
<stop offset="0.5625" stop-color="#4F27FE" stop-opacity="0"/>
<stop offset="1" stop-color="#844CFE"/>
</linearGradient>
<linearGradient id="paint23_linear_345_295" x1="-93.368" y1="484.586" x2="-93.368" y2="485.586" gradientUnits="userSpaceOnUse">
<stop stop-color="#1700FF"/>
<stop offset="0.5625" stop-color="#4F27FE" stop-opacity="0"/>
<stop offset="1" stop-color="#844CFE"/>
</linearGradient>
<linearGradient id="paint24_linear_345_295" x1="-93.3876" y1="525.266" x2="-93.3876" y2="526.266" gradientUnits="userSpaceOnUse">
<stop stop-color="#1700FF"/>
<stop offset="0.5625" stop-color="#4F27FE" stop-opacity="0"/>
<stop offset="1" stop-color="#844CFE"/>
</linearGradient>
<linearGradient id="paint25_linear_345_295" x1="-93.368" y1="565" x2="-93.368" y2="566" gradientUnits="userSpaceOnUse">
<stop stop-color="#1700FF"/>
<stop offset="0.5625" stop-color="#4F27FE" stop-opacity="0"/>
<stop offset="1" stop-color="#844CFE"/>
</linearGradient>
<linearGradient id="paint26_linear_345_295" x1="334.139" y1="888.458" x2="333.139" y2="888.458" gradientUnits="userSpaceOnUse">
<stop stop-color="#1700FF"/>
<stop offset="0.5625" stop-color="#4F27FE" stop-opacity="0"/>
<stop offset="1" stop-color="#844CFE"/>
</linearGradient>
<linearGradient id="paint27_linear_345_295" x1="300.66" y1="888.453" x2="299.66" y2="888.453" gradientUnits="userSpaceOnUse">
<stop stop-color="#1700FF"/>
<stop offset="0.5625" stop-color="#4F27FE" stop-opacity="0"/>
<stop offset="1" stop-color="#844CFE"/>
</linearGradient>
<linearGradient id="paint28_linear_345_295" x1="265.585" y1="888.432" x2="264.585" y2="888.431" gradientUnits="userSpaceOnUse">
<stop stop-color="#1700FF"/>
<stop offset="0.5625" stop-color="#4F27FE" stop-opacity="0"/>
<stop offset="1" stop-color="#844CFE"/>
</linearGradient>
<linearGradient id="paint29_linear_345_295" x1="232.107" y1="888.427" x2="231.107" y2="888.427" gradientUnits="userSpaceOnUse">
<stop stop-color="#1700FF"/>
<stop offset="0.5625" stop-color="#4F27FE" stop-opacity="0"/>
<stop offset="1" stop-color="#844CFE"/>
</linearGradient>
<linearGradient id="paint30_linear_345_295" x1="197.832" y1="888.406" x2="196.832" y2="888.406" gradientUnits="userSpaceOnUse">
<stop stop-color="#1700FF"/>
<stop offset="0.5625" stop-color="#4F27FE" stop-opacity="0"/>
<stop offset="1" stop-color="#844CFE"/>
</linearGradient>
<linearGradient id="paint31_linear_345_295" x1="164.351" y1="888.402" x2="163.351" y2="888.401" gradientUnits="userSpaceOnUse">
<stop stop-color="#1700FF"/>
<stop offset="0.5625" stop-color="#4F27FE" stop-opacity="0"/>
<stop offset="1" stop-color="#844CFE"/>
</linearGradient>
<linearGradient id="paint32_linear_345_295" x1="130.874" y1="888.381" x2="129.874" y2="888.381" gradientUnits="userSpaceOnUse">
<stop stop-color="#1700FF"/>
<stop offset="0.5625" stop-color="#4F27FE" stop-opacity="0"/>
<stop offset="1" stop-color="#844CFE"/>
</linearGradient>
<linearGradient id="paint33_linear_345_295" x1="97.3955" y1="888.376" x2="96.3955" y2="888.376" gradientUnits="userSpaceOnUse">
<stop stop-color="#1700FF"/>
<stop offset="0.5625" stop-color="#4F27FE" stop-opacity="0"/>
<stop offset="1" stop-color="#844CFE"/>
</linearGradient>
<linearGradient id="paint34_linear_345_295" x1="63.1201" y1="888.355" x2="62.1201" y2="888.355" gradientUnits="userSpaceOnUse">
<stop stop-color="#1700FF"/>
<stop offset="0.5625" stop-color="#4F27FE" stop-opacity="0"/>
<stop offset="1" stop-color="#844CFE"/>
</linearGradient>
<linearGradient id="paint35_linear_345_295" x1="29.6421" y1="888.351" x2="28.6421" y2="888.35" gradientUnits="userSpaceOnUse">
<stop stop-color="#1700FF"/>
<stop offset="0.5625" stop-color="#4F27FE" stop-opacity="0"/>
<stop offset="1" stop-color="#844CFE"/>
</linearGradient>
<linearGradient id="paint36_linear_345_295" x1="355.875" y1="1194.26" x2="355.876" y2="1193.26" gradientUnits="userSpaceOnUse">
<stop stop-color="#1700FF"/>
<stop offset="0.5625" stop-color="#4F27FE" stop-opacity="0"/>
<stop offset="1" stop-color="#844CFE"/>
</linearGradient>
<linearGradient id="paint37_linear_345_295" x1="355.872" y1="1154.53" x2="355.872" y2="1153.53" gradientUnits="userSpaceOnUse">
<stop stop-color="#1700FF"/>
<stop offset="0.5625" stop-color="#4F27FE" stop-opacity="0"/>
<stop offset="1" stop-color="#844CFE"/>
</linearGradient>
<linearGradient id="paint38_linear_345_295" x1="355.906" y1="1113.85" x2="355.907" y2="1112.85" gradientUnits="userSpaceOnUse">
<stop stop-color="#1700FF"/>
<stop offset="0.5625" stop-color="#4F27FE" stop-opacity="0"/>
<stop offset="1" stop-color="#844CFE"/>
</linearGradient>
<linearGradient id="paint39_linear_345_295" x1="355.902" y1="1074.12" x2="355.903" y2="1073.12" gradientUnits="userSpaceOnUse">
<stop stop-color="#1700FF"/>
<stop offset="0.5625" stop-color="#4F27FE" stop-opacity="0"/>
<stop offset="1" stop-color="#844CFE"/>
</linearGradient>
<linearGradient id="paint40_linear_345_295" x1="355.936" y1="1034.38" x2="355.937" y2="1033.38" gradientUnits="userSpaceOnUse">
<stop stop-color="#1700FF"/>
<stop offset="0.5625" stop-color="#4F27FE" stop-opacity="0"/>
<stop offset="1" stop-color="#844CFE"/>
</linearGradient>
<linearGradient id="paint41_linear_345_295" x1="355.933" y1="994.647" x2="355.933" y2="993.647" gradientUnits="userSpaceOnUse">
<stop stop-color="#1700FF"/>
<stop offset="0.5625" stop-color="#4F27FE" stop-opacity="0"/>
<stop offset="1" stop-color="#844CFE"/>
</linearGradient>
<linearGradient id="paint42_linear_345_295" x1="355.967" y1="953.967" x2="355.967" y2="952.967" gradientUnits="userSpaceOnUse">
<stop stop-color="#1700FF"/>
<stop offset="0.5625" stop-color="#4F27FE" stop-opacity="0"/>
<stop offset="1" stop-color="#844CFE"/>
</linearGradient>
<linearGradient id="paint43_linear_345_295" x1="355.963" y1="914.233" x2="355.963" y2="913.233" gradientUnits="userSpaceOnUse">
<stop stop-color="#1700FF"/>
<stop offset="0.5625" stop-color="#4F27FE" stop-opacity="0"/>
<stop offset="1" stop-color="#844CFE"/>
</linearGradient>
<linearGradient id="paint44_linear_345_295" x1="355.997" y1="872.607" x2="355.997" y2="871.607" gradientUnits="userSpaceOnUse">
<stop stop-color="#1700FF"/>
<stop offset="0.5625" stop-color="#4F27FE" stop-opacity="0"/>
<stop offset="1" stop-color="#844CFE"/>
</linearGradient>
<linearGradient id="paint45_linear_345_295" x1="355.993" y1="832.873" x2="355.993" y2="831.873" gradientUnits="userSpaceOnUse">
<stop stop-color="#1700FF"/>
<stop offset="0.5625" stop-color="#4F27FE" stop-opacity="0"/>
<stop offset="1" stop-color="#844CFE"/>
</linearGradient>
<linearGradient id="paint46_linear_345_295" x1="356.028" y1="792.193" x2="356.028" y2="791.193" gradientUnits="userSpaceOnUse">
<stop stop-color="#1700FF"/>
<stop offset="0.5625" stop-color="#4F27FE" stop-opacity="0"/>
<stop offset="1" stop-color="#844CFE"/>
</linearGradient>
<linearGradient id="paint47_linear_345_295" x1="356.024" y1="752.459" x2="356.024" y2="751.459" gradientUnits="userSpaceOnUse">
<stop stop-color="#1700FF"/>
<stop offset="0.5625" stop-color="#4F27FE" stop-opacity="0"/>
<stop offset="1" stop-color="#844CFE"/>
</linearGradient>
<linearGradient id="paint48_linear_345_295" x1="356.058" y1="712.725" x2="356.058" y2="711.725" gradientUnits="userSpaceOnUse">
<stop stop-color="#1700FF"/>
<stop offset="0.5625" stop-color="#4F27FE" stop-opacity="0"/>
<stop offset="1" stop-color="#844CFE"/>
</linearGradient>
<linearGradient id="paint49_linear_345_295" x1="356.054" y1="672.991" x2="356.055" y2="671.991" gradientUnits="userSpaceOnUse">
<stop stop-color="#1700FF"/>
<stop offset="0.5625" stop-color="#4F27FE" stop-opacity="0"/>
<stop offset="1" stop-color="#844CFE"/>
</linearGradient>
<linearGradient id="paint50_linear_345_295" x1="356.089" y1="632.31" x2="356.089" y2="631.31" gradientUnits="userSpaceOnUse">
<stop stop-color="#1700FF"/>
<stop offset="0.5625" stop-color="#4F27FE" stop-opacity="0"/>
<stop offset="1" stop-color="#844CFE"/>
</linearGradient>
<linearGradient id="paint51_linear_345_295" x1="356.084" y1="592.577" x2="356.085" y2="591.577" gradientUnits="userSpaceOnUse">
<stop stop-color="#1700FF"/>
<stop offset="0.5625" stop-color="#4F27FE" stop-opacity="0"/>
<stop offset="1" stop-color="#844CFE"/>
</linearGradient>
<linearGradient id="paint52_linear_345_295" x1="31.3176" y1="1103.63" x2="115.911" y2="1292.7" gradientUnits="userSpaceOnUse">
<stop stop-color="#844CFE"/>
<stop offset="1" stop-color="#1E1E1E"/>
</linearGradient>
<clipPath id="clip0_345_295">
<rect width="475" height="1194" fill="white" transform="translate(-56)"/>
</clipPath>
</defs>
</svg>
