<svg width="656" height="364" viewBox="0 0 656 364" fill="none" xmlns="http://www.w3.org/2000/svg">
<mask id="path-1-outside-1_182_188" maskUnits="userSpaceOnUse" x="-66" y="-2" width="724" height="442" fill="black">
<rect fill="white" x="-66" y="-2" width="724" height="442"/>
<path d="M51 8.99997H143.4V429H36V121.8L-37.2 140.4L-63 49.8L51 8.99997ZM313.838 215.4C282.638 215.4 256.438 205 235.238 184.2C214.038 163 203.438 137.4 203.438 107.4C203.438 77.4 214.038 52 235.238 31.2C256.438 10.4 282.638 -2.00272e-05 313.838 -2.00272e-05C345.038 -2.00272e-05 371.038 10.4 391.838 31.2C412.638 52 423.038 77.4 423.038 107.4C423.038 137.8 412.438 163.4 391.238 184.2C370.438 205 344.638 215.4 313.838 215.4ZM265.838 363L541.838 63L583.838 87L307.238 386.4L265.838 363ZM313.238 139.2C322.438 139.2 329.838 136.2 335.438 130.2C341.438 123.8 344.438 116.2 344.438 107.4C344.438 98.6 341.438 91.2 335.438 85.2C329.838 79.2 322.438 76.2 313.238 76.2C304.438 76.2 297.038 79.2 291.038 85.2C285.438 91.2 282.638 98.6 282.638 107.4C282.638 116.6 285.438 124.2 291.038 130.2C297.038 136.2 304.438 139.2 313.238 139.2ZM546.038 437.4C514.438 437.4 488.038 427 466.838 406.2C446.038 385.4 435.638 360 435.638 330C435.638 299.6 446.038 274 466.838 253.2C488.038 232.4 514.438 222 546.038 222C577.238 222 603.238 232.6 624.038 253.8C644.838 274.6 655.238 300 655.238 330C655.238 360 644.638 385.4 623.438 406.2C602.638 427 576.838 437.4 546.038 437.4ZM523.238 352.2C529.238 358.2 536.638 361.2 545.438 361.2C554.238 361.2 561.438 358.2 567.038 352.2C573.038 345.8 576.038 338.4 576.038 330C576.038 320.8 573.038 313.2 567.038 307.2C561.438 301.2 554.238 298.2 545.438 298.2C536.638 298.2 529.238 301.2 523.238 307.2C517.638 313.2 514.838 320.8 514.838 330C514.838 338.8 517.638 346.2 523.238 352.2Z"/>
</mask>
<path d="M51 8.99997V6.99997H50.6529L50.3261 7.11694L51 8.99997ZM143.4 8.99997H145.4V6.99997H143.4V8.99997ZM143.4 429V431H145.4V429H143.4ZM36 429H34V431H36V429ZM36 121.8H38V119.228L35.5075 119.862L36 121.8ZM-37.2 140.4L-39.1235 140.948L-38.5912 142.817L-36.7075 142.338L-37.2 140.4ZM-63 49.8L-63.6739 47.9169L-65.4361 48.5476L-64.9235 50.3477L-63 49.8ZM51 11H143.4V6.99997H51V11ZM141.4 8.99997V429H145.4V8.99997H141.4ZM143.4 427H36V431H143.4V427ZM38 429V121.8H34V429H38ZM35.5075 119.862L-37.6925 138.462L-36.7075 142.338L36.4925 123.738L35.5075 119.862ZM-35.2765 139.852L-61.0765 49.2522L-64.9235 50.3477L-39.1235 140.948L-35.2765 139.852ZM-62.3261 51.683L51.6739 10.883L50.3261 7.11694L-63.6739 47.9169L-62.3261 51.683ZM235.238 184.2L233.823 185.614L233.83 185.621L233.837 185.628L235.238 184.2ZM235.238 31.2L233.837 29.7724L235.238 31.2ZM391.837 31.2L393.252 29.7858L391.837 31.2ZM391.238 184.2L389.837 182.772L389.83 182.779L389.823 182.786L391.238 184.2ZM265.837 363L264.366 361.646L262.659 363.501L264.853 364.741L265.837 363ZM541.838 63L542.83 61.2635L541.445 60.4724L540.366 61.6459L541.838 63ZM583.838 87L585.307 88.3571L587.012 86.5107L584.83 85.2635L583.838 87ZM307.237 386.4L306.253 388.141L307.632 388.92L308.707 387.757L307.237 386.4ZM335.438 130.2L333.978 128.832L333.975 128.835L335.438 130.2ZM335.438 85.2L333.975 86.5646L333.999 86.5898L334.023 86.6142L335.438 85.2ZM291.038 85.2L289.623 83.7858L289.599 83.8102L289.575 83.8354L291.038 85.2ZM291.038 130.2L289.575 131.565L289.599 131.59L289.623 131.614L291.038 130.2ZM466.838 406.2L465.423 407.614L465.43 407.621L465.437 407.628L466.838 406.2ZM466.838 253.2L465.437 251.772L465.43 251.779L465.423 251.786L466.838 253.2ZM624.038 253.8L622.61 255.201L622.617 255.207L622.623 255.214L624.038 253.8ZM623.438 406.2L622.037 404.772L622.03 404.779L622.023 404.786L623.438 406.2ZM523.237 352.2L521.775 353.565L521.799 353.59L521.823 353.614L523.237 352.2ZM567.038 352.2L565.578 350.832L565.575 350.835L567.038 352.2ZM567.038 307.2L565.575 308.565L565.599 308.59L565.623 308.614L567.038 307.2ZM523.237 307.2L521.823 305.786L521.799 305.81L521.775 305.835L523.237 307.2ZM313.837 213.4C283.132 213.4 257.444 203.185 236.638 182.772L233.837 185.628C255.431 206.815 282.143 217.4 313.837 217.4V213.4ZM236.652 182.786C215.827 161.961 205.438 136.87 205.438 107.4H201.438C201.438 137.93 212.248 164.039 233.823 185.614L236.652 182.786ZM205.438 107.4C205.438 77.9309 215.826 53.0472 236.638 32.6276L233.837 29.7724C212.249 50.9527 201.438 76.8691 201.438 107.4H205.438ZM236.638 32.6276C257.444 12.2145 283.132 1.99998 313.837 1.99998V-2.00002C282.143 -2.00002 255.431 8.58543 233.837 29.7724L236.638 32.6276ZM313.837 1.99998C344.543 1.99998 370.023 12.2138 390.423 32.6142L393.252 29.7858C372.052 8.58617 345.532 -2.00002 313.837 -2.00002V1.99998ZM390.423 32.6142C410.84 53.0309 421.038 77.9186 421.038 107.4H425.038C425.038 76.8814 414.435 50.9691 393.252 29.7858L390.423 32.6142ZM421.038 107.4C421.038 137.277 410.643 162.358 389.837 182.772L392.638 185.628C414.232 164.442 425.038 138.323 425.038 107.4H421.038ZM389.823 182.786C369.418 203.191 344.135 213.4 313.837 213.4V217.4C345.14 217.4 371.457 206.809 392.652 185.614L389.823 182.786ZM267.309 364.354L543.309 64.3541L540.366 61.6459L264.366 361.646L267.309 364.354ZM540.845 64.7365L582.845 88.7365L584.83 85.2635L542.83 61.2635L540.845 64.7365ZM582.368 85.6428L305.768 385.043L308.707 387.757L585.307 88.3571L582.368 85.6428ZM308.222 384.659L266.822 361.259L264.853 364.741L306.253 388.141L308.222 384.659ZM313.238 141.2C322.918 141.2 330.874 138.021 336.9 131.565L333.975 128.835C328.801 134.379 321.957 137.2 313.238 137.2V141.2ZM336.897 131.568C343.245 124.796 346.438 116.706 346.438 107.4H342.438C342.438 115.694 339.63 122.804 333.978 128.832L336.897 131.568ZM346.438 107.4C346.438 98.0915 343.242 90.1761 336.852 83.7858L334.023 86.6142C339.633 92.2239 342.438 99.1085 342.438 107.4H346.438ZM336.9 83.8354C330.874 77.3789 322.918 74.2 313.238 74.2V78.2C321.957 78.2 328.801 81.0211 333.975 86.5646L336.9 83.8354ZM313.238 74.2C303.929 74.2 296.014 77.3955 289.623 83.7858L292.452 86.6142C298.061 81.0045 304.946 78.2 313.238 78.2V74.2ZM289.575 83.8354C283.603 90.234 280.638 98.1335 280.638 107.4H284.638C284.638 99.0665 287.272 92.166 292.5 86.5646L289.575 83.8354ZM280.638 107.4C280.638 117.04 283.587 125.149 289.575 131.565L292.5 128.835C287.288 123.251 284.638 116.16 284.638 107.4H280.638ZM289.623 131.614C296.014 138.005 303.929 141.2 313.238 141.2V137.2C304.946 137.2 298.061 134.395 292.452 128.786L289.623 131.614ZM546.037 435.4C514.924 435.4 489.039 425.18 468.238 404.772L465.437 407.628C487.036 428.82 513.951 439.4 546.037 439.4V435.4ZM468.252 404.786C447.835 384.369 437.638 359.481 437.638 330H433.638C433.638 360.519 444.24 386.431 465.423 407.614L468.252 404.786ZM437.638 330C437.638 300.111 447.841 275.025 468.252 254.614L465.423 251.786C444.234 272.975 433.638 299.089 433.638 330H437.638ZM468.238 254.628C489.039 234.22 514.924 224 546.037 224V220C513.951 220 487.036 230.58 465.437 251.772L468.238 254.628ZM546.037 224C576.731 224 602.207 234.405 622.61 255.201L625.465 252.399C604.268 230.795 577.744 220 546.037 220V224ZM622.623 255.214C643.04 275.631 653.238 300.519 653.238 330H657.238C657.238 299.481 646.635 273.569 625.452 252.386L622.623 255.214ZM653.238 330C653.238 359.469 642.849 384.353 622.037 404.772L624.838 407.628C646.426 386.447 657.238 360.531 657.238 330H653.238ZM622.023 404.786C601.618 425.192 576.335 435.4 546.037 435.4V439.4C577.34 439.4 603.657 428.808 624.852 407.614L622.023 404.786ZM521.823 353.614C528.214 360.005 536.129 363.2 545.438 363.2V359.2C537.146 359.2 530.261 356.395 524.652 350.786L521.823 353.614ZM545.438 363.2C554.747 363.2 562.492 360.002 568.5 353.565L565.575 350.835C560.383 356.398 553.728 359.2 545.438 359.2V363.2ZM568.497 353.568C574.827 346.815 578.038 338.932 578.038 330H574.038C574.038 337.868 571.248 344.785 565.578 350.832L568.497 353.568ZM578.038 330C578.038 320.319 574.86 312.194 568.452 305.786L565.623 308.614C571.215 314.206 574.038 321.281 574.038 330H578.038ZM568.5 305.835C562.492 299.398 554.747 296.2 545.438 296.2V300.2C553.728 300.2 560.383 303.002 565.575 308.565L568.5 305.835ZM545.438 296.2C536.129 296.2 528.214 299.395 521.823 305.786L524.652 308.614C530.261 303.005 537.146 300.2 545.438 300.2V296.2ZM521.775 305.835C515.787 312.251 512.838 320.36 512.838 330H516.838C516.838 321.24 519.488 314.149 524.7 308.565L521.775 305.835ZM512.838 330C512.838 339.267 515.803 347.166 521.775 353.565L524.7 350.835C519.472 345.234 516.838 338.333 516.838 330H512.838Z" fill="url(#paint0_linear_182_188)" mask="url(#path-1-outside-1_182_188)"/>
<defs>
<linearGradient id="paint0_linear_182_188" x1="50.5" y1="13" x2="305.5" y2="595" gradientUnits="userSpaceOnUse">
<stop stop-color="#844CFE"/>
<stop offset="1" stop-color="#1E1E1E"/>
</linearGradient>
</defs>
</svg>
