<svg width="1914" height="593" viewBox="0 0 1914 593" fill="none" xmlns="http://www.w3.org/2000/svg">
<g clip-path="url(#clip0_175_110)">
<rect x="-15.0103" width="1964.26" height="1093" fill="#FCFCFC"/>
<line x1="-7.95825" y1="0.611206" x2="1913.27" y2="0.611206" stroke="url(#paint0_linear_175_110)" stroke-opacity="0.12"/>
<line x1="-7.93921" y1="60.9303" x2="1913.29" y2="60.9303" stroke="url(#paint1_linear_175_110)" stroke-opacity="0.12"/>
<line x1="-7.9585" y1="122.686" x2="1913.27" y2="122.686" stroke="url(#paint2_linear_175_110)" stroke-opacity="0.12"/>
<line x1="-7.93921" y1="183.005" x2="1913.29" y2="183.005" stroke="url(#paint3_linear_175_110)" stroke-opacity="0.12"/>
<line x1="-7.95874" y1="243.324" x2="1913.27" y2="243.324" stroke="url(#paint4_linear_175_110)" stroke-opacity="0.12"/>
<line x1="-7.93945" y1="303.643" x2="1913.29" y2="303.643" stroke="url(#paint5_linear_175_110)" stroke-opacity="0.12"/>
<line x1="-7.95898" y1="365.398" x2="1913.27" y2="365.398" stroke="url(#paint6_linear_175_110)" stroke-opacity="0.12"/>
<line x1="-7.93945" y1="425.717" x2="1913.29" y2="425.717" stroke="url(#paint7_linear_175_110)" stroke-opacity="0.12"/>
<line x1="-7.95825" y1="488.908" x2="1913.27" y2="488.908" stroke="url(#paint8_linear_175_110)" stroke-opacity="0.12"/>
<line x1="-7.93921" y1="549.227" x2="1913.29" y2="549.227" stroke="url(#paint9_linear_175_110)" stroke-opacity="0.12"/>
<line x1="11.1277" y1="1551.11" x2="11.1277" y2="0.0153809" stroke="url(#paint10_linear_175_110)" stroke-opacity="0.12"/>
<line x1="85.8416" y1="1551.1" x2="85.8416" stroke="url(#paint11_linear_175_110)" stroke-opacity="0.12"/>
<line x1="162.333" y1="1551.11" x2="162.333" y2="0.0153809" stroke="url(#paint12_linear_175_110)" stroke-opacity="0.12"/>
<line x1="237.046" y1="1551.1" x2="237.046" stroke="url(#paint13_linear_175_110)" stroke-opacity="0.12"/>
<line x1="315.32" y1="1551.11" x2="315.32" y2="0.015625" stroke="url(#paint14_linear_175_110)" stroke-opacity="0.12"/>
<line x1="390.031" y1="1551.1" x2="390.031" y2="0.000244141" stroke="url(#paint15_linear_175_110)" stroke-opacity="0.12"/>
<line x1="466.522" y1="1551.11" x2="466.522" y2="0.015625" stroke="url(#paint16_linear_175_110)" stroke-opacity="0.12"/>
<line x1="541.239" y1="1551.1" x2="541.239" y2="0.000244141" stroke="url(#paint17_linear_175_110)" stroke-opacity="0.12"/>
<line x1="615.948" y1="1551.11" x2="615.948" y2="0.0155029" stroke="url(#paint18_linear_175_110)" stroke-opacity="0.12"/>
<line x1="690.66" y1="1551.1" x2="690.66" y2="0.00012207" stroke="url(#paint19_linear_175_110)" stroke-opacity="0.12"/>
<line x1="767.151" y1="1551.11" x2="767.151" y2="0.0155029" stroke="url(#paint20_linear_175_110)" stroke-opacity="0.12"/>
<line x1="841.863" y1="1551.1" x2="841.863" y2="0.00012207" stroke="url(#paint21_linear_175_110)" stroke-opacity="0.12"/>
<line x1="920.133" y1="1551.11" x2="920.133" y2="0.0159912" stroke="url(#paint22_linear_175_110)" stroke-opacity="0.12"/>
<line x1="994.846" y1="1551.1" x2="994.846" y2="0.000732422" stroke="url(#paint23_linear_175_110)" stroke-opacity="0.12"/>
<line x1="1071.34" y1="1551.11" x2="1071.34" y2="0.0159912" stroke="url(#paint24_linear_175_110)" stroke-opacity="0.12"/>
<line x1="1146.05" y1="1551.1" x2="1146.05" y2="0.000732422" stroke="url(#paint25_linear_175_110)" stroke-opacity="0.12"/>
<line x1="1220.76" y1="1551.11" x2="1220.76" y2="0.0159912" stroke="url(#paint26_linear_175_110)" stroke-opacity="0.12"/>
<line x1="1295.48" y1="1551.1" x2="1295.48" y2="0.000854492" stroke="url(#paint27_linear_175_110)" stroke-opacity="0.12"/>
<line x1="1371.97" y1="1551.11" x2="1371.97" y2="0.0159912" stroke="url(#paint28_linear_175_110)" stroke-opacity="0.12"/>
<line x1="1446.68" y1="1551.1" x2="1446.68" y2="0.000854492" stroke="url(#paint29_linear_175_110)" stroke-opacity="0.12"/>
<line x1="1524.95" y1="1551.11" x2="1524.95" y2="0.0158691" stroke="url(#paint30_linear_175_110)" stroke-opacity="0.12"/>
<line x1="1599.67" y1="1551.1" x2="1599.67" y2="0.000488281" stroke="url(#paint31_linear_175_110)" stroke-opacity="0.12"/>
<line x1="1676.16" y1="1551.11" x2="1676.16" y2="0.0158691" stroke="url(#paint32_linear_175_110)" stroke-opacity="0.12"/>
<line x1="1750.87" y1="1551.1" x2="1750.87" y2="0.000488281" stroke="url(#paint33_linear_175_110)" stroke-opacity="0.12"/>
<line x1="1825.58" y1="1551.11" x2="1825.58" y2="0.015625" stroke="url(#paint34_linear_175_110)" stroke-opacity="0.12"/>
<line x1="1900.3" y1="1551.1" x2="1900.3" y2="0.000366211" stroke="url(#paint35_linear_175_110)" stroke-opacity="0.12"/>
<path d="M0 -2H1920V1093H0V-2Z" fill="url(#paint36_linear_175_110)"/>
<path d="M1039 -377H2959V718H1039V-377Z" fill="url(#paint37_linear_175_110)"/>
<path d="M357.099 230H369.699V293H355.299V245.21L344.139 248.27L340.629 235.94L357.099 230ZM404.377 294.26C388.087 294.26 378.727 280.94 378.727 261.5C378.727 242.06 388.087 228.74 404.377 228.74C420.667 228.74 430.027 242.06 430.027 261.5C430.027 280.94 420.667 294.26 404.377 294.26ZM404.377 280.22C411.937 280.22 415.627 273.65 415.627 261.5C415.627 249.35 411.937 242.78 404.377 242.78C396.817 242.78 393.127 249.35 393.127 261.5C393.127 273.65 396.817 280.22 404.377 280.22ZM461.067 294.26C444.777 294.26 435.417 280.94 435.417 261.5C435.417 242.06 444.777 228.74 461.067 228.74C477.357 228.74 486.717 242.06 486.717 261.5C486.717 280.94 477.357 294.26 461.067 294.26ZM461.067 280.22C468.627 280.22 472.317 273.65 472.317 261.5C472.317 249.35 468.627 242.78 461.067 242.78C453.507 242.78 449.817 249.35 449.817 261.5C449.817 273.65 453.507 280.22 461.067 280.22ZM517.756 294.26C501.466 294.26 492.106 280.94 492.106 261.5C492.106 242.06 501.466 228.74 517.756 228.74C534.046 228.74 543.406 242.06 543.406 261.5C543.406 280.94 534.046 294.26 517.756 294.26ZM517.756 280.22C525.316 280.22 529.006 273.65 529.006 261.5C529.006 249.35 525.316 242.78 517.756 242.78C510.196 242.78 506.506 249.35 506.506 261.5C506.506 273.65 510.196 280.22 517.756 280.22ZM574.446 294.26C558.156 294.26 548.796 280.94 548.796 261.5C548.796 242.06 558.156 228.74 574.446 228.74C590.736 228.74 600.096 242.06 600.096 261.5C600.096 280.94 590.736 294.26 574.446 294.26ZM574.446 280.22C582.006 280.22 585.696 273.65 585.696 261.5C585.696 249.35 582.006 242.78 574.446 242.78C566.886 242.78 563.196 249.35 563.196 261.5C563.196 273.65 566.886 280.22 574.446 280.22ZM637.435 264.93V272.07H625.605V283.9H618.465V272.07H606.635V264.93H618.465V253.1H625.605V264.93H637.435ZM400.775 347.5H415.025V353H395.025V318H400.775V347.5ZM422.412 342.8C422.812 344.7 423.728 346.167 425.162 347.2C426.595 348.2 428.345 348.7 430.412 348.7C433.278 348.7 435.428 347.667 436.862 345.6L441.312 348.2C438.845 351.833 435.195 353.65 430.362 353.65C426.295 353.65 423.012 352.417 420.512 349.95C418.012 347.45 416.762 344.3 416.762 340.5C416.762 336.767 417.995 333.65 420.462 331.15C422.928 328.617 426.095 327.35 429.962 327.35C433.628 327.35 436.628 328.633 438.962 331.2C441.328 333.767 442.512 336.883 442.512 340.55C442.512 341.117 442.445 341.867 442.312 342.8H422.412ZM422.362 338.4H437.062C436.695 336.367 435.845 334.833 434.512 333.8C433.212 332.767 431.678 332.25 429.912 332.25C427.912 332.25 426.245 332.8 424.912 333.9C423.578 335 422.728 336.5 422.362 338.4ZM466.917 328H472.317V353H466.917V349.4C464.883 352.233 461.967 353.65 458.167 353.65C454.733 353.65 451.8 352.383 449.367 349.85C446.933 347.283 445.717 344.167 445.717 340.5C445.717 336.8 446.933 333.683 449.367 331.15C451.8 328.617 454.733 327.35 458.167 327.35C461.967 327.35 464.883 328.75 466.917 331.55V328ZM453.367 346.25C454.867 347.75 456.75 348.5 459.017 348.5C461.283 348.5 463.167 347.75 464.667 346.25C466.167 344.717 466.917 342.8 466.917 340.5C466.917 338.2 466.167 336.3 464.667 334.8C463.167 333.267 461.283 332.5 459.017 332.5C456.75 332.5 454.867 333.267 453.367 334.8C451.867 336.3 451.117 338.2 451.117 340.5C451.117 342.8 451.867 344.717 453.367 346.25ZM484.011 332.2C485.378 329.1 487.944 327.55 491.711 327.55V333.4C489.644 333.267 487.844 333.767 486.311 334.9C484.778 336 484.011 337.833 484.011 340.4V353H478.611V328H484.011V332.2ZM508.851 327.35C511.717 327.35 514.034 328.267 515.801 330.1C517.567 331.933 518.451 334.45 518.451 337.65V353H513.051V338.2C513.051 336.333 512.551 334.9 511.551 333.9C510.551 332.9 509.184 332.4 507.451 332.4C505.551 332.4 504.017 333 502.851 334.2C501.684 335.367 501.101 337.167 501.101 339.6V353H495.701V328H501.101V331.2C502.734 328.633 505.317 327.35 508.851 327.35ZM528.515 342.8C528.915 344.7 529.832 346.167 531.265 347.2C532.699 348.2 534.449 348.7 536.515 348.7C539.382 348.7 541.532 347.667 542.965 345.6L547.415 348.2C544.949 351.833 541.299 353.65 536.465 353.65C532.399 353.65 529.115 352.417 526.615 349.95C524.115 347.45 522.865 344.3 522.865 340.5C522.865 336.767 524.099 333.65 526.565 331.15C529.032 328.617 532.199 327.35 536.065 327.35C539.732 327.35 542.732 328.633 545.065 331.2C547.432 333.767 548.615 336.883 548.615 340.55C548.615 341.117 548.549 341.867 548.415 342.8H528.515ZM528.465 338.4H543.165C542.799 336.367 541.949 334.833 540.615 333.8C539.315 332.767 537.782 332.25 536.015 332.25C534.015 332.25 532.349 332.8 531.015 333.9C529.682 335 528.832 336.5 528.465 338.4ZM558.767 332.2C560.133 329.1 562.7 327.55 566.467 327.55V333.4C564.4 333.267 562.6 333.767 561.067 334.9C559.533 336 558.767 337.833 558.767 340.4V353H553.367V328H558.767V332.2ZM574.428 334.9C574.428 335.733 574.878 336.4 575.778 336.9C576.711 337.367 577.828 337.783 579.128 338.15C580.461 338.483 581.794 338.883 583.128 339.35C584.461 339.817 585.578 340.617 586.478 341.75C587.411 342.85 587.878 344.25 587.878 345.95C587.878 348.35 586.944 350.233 585.078 351.6C583.244 352.967 580.928 353.65 578.128 353.65C575.661 353.65 573.544 353.133 571.778 352.1C570.011 351.067 568.728 349.633 567.928 347.8L572.578 345.1C573.444 347.5 575.294 348.7 578.128 348.7C580.961 348.7 582.378 347.767 582.378 345.9C582.378 345.1 581.911 344.45 580.978 343.95C580.078 343.45 578.961 343.033 577.628 342.7C576.328 342.333 575.011 341.917 573.678 341.45C572.344 340.983 571.211 340.217 570.278 339.15C569.378 338.05 568.928 336.667 568.928 335C568.928 332.7 569.794 330.85 571.528 329.45C573.294 328.05 575.478 327.35 578.078 327.35C580.144 327.35 581.978 327.817 583.578 328.75C585.211 329.65 586.461 330.917 587.328 332.55L582.778 335.1C581.911 333.2 580.344 332.25 578.078 332.25C577.044 332.25 576.178 332.483 575.478 332.95C574.778 333.383 574.428 334.033 574.428 334.9Z" fill="#1B1B1B"/>
<path d="M901.788 230H914.388V293H899.988V245.21L888.828 248.27L885.318 235.94L901.788 230ZM949.067 294.26C932.777 294.26 923.417 280.94 923.417 261.5C923.417 242.06 932.777 228.74 949.067 228.74C965.357 228.74 974.717 242.06 974.717 261.5C974.717 280.94 965.357 294.26 949.067 294.26ZM949.067 280.22C956.627 280.22 960.317 273.65 960.317 261.5C960.317 249.35 956.627 242.78 949.067 242.78C941.507 242.78 937.817 249.35 937.817 261.5C937.817 273.65 941.507 280.22 949.067 280.22ZM1005.76 294.26C989.466 294.26 980.106 280.94 980.106 261.5C980.106 242.06 989.466 228.74 1005.76 228.74C1022.05 228.74 1031.41 242.06 1031.41 261.5C1031.41 280.94 1022.05 294.26 1005.76 294.26ZM1005.76 280.22C1013.32 280.22 1017.01 273.65 1017.01 261.5C1017.01 249.35 1013.32 242.78 1005.76 242.78C998.196 242.78 994.506 249.35 994.506 261.5C994.506 273.65 998.196 280.22 1005.76 280.22ZM1068.75 264.93V272.07H1056.92V283.9H1049.78V272.07H1037.95V264.93H1049.78V253.1H1056.92V264.93H1068.75ZM885.256 318C888.556 318 891.306 319.1 893.506 321.3C895.74 323.5 896.856 326.233 896.856 329.5C896.856 332.733 895.74 335.467 893.506 337.7C891.306 339.9 888.556 341 885.256 341H878.106V353H872.356V318H885.256ZM885.256 335.6C886.956 335.6 888.356 335.033 889.456 333.9C890.556 332.733 891.106 331.267 891.106 329.5C891.106 327.733 890.556 326.283 889.456 325.15C888.356 323.983 886.956 323.4 885.256 323.4H878.106V335.6H885.256ZM906.41 332.2C907.777 329.1 910.344 327.55 914.11 327.55V333.4C912.044 333.267 910.244 333.767 908.71 334.9C907.177 336 906.41 337.833 906.41 340.4V353H901.01V328H906.41V332.2ZM928.728 353.65C925.062 353.65 921.945 352.383 919.378 349.85C916.812 347.317 915.528 344.2 915.528 340.5C915.528 336.8 916.812 333.683 919.378 331.15C921.945 328.617 925.062 327.35 928.728 327.35C932.428 327.35 935.545 328.617 938.078 331.15C940.645 333.683 941.928 336.8 941.928 340.5C941.928 344.2 940.645 347.317 938.078 349.85C935.545 352.383 932.428 353.65 928.728 353.65ZM923.178 346.15C924.678 347.65 926.528 348.4 928.728 348.4C930.928 348.4 932.778 347.65 934.278 346.15C935.778 344.65 936.528 342.767 936.528 340.5C936.528 338.233 935.778 336.35 934.278 334.85C932.778 333.35 930.928 332.6 928.728 332.6C926.528 332.6 924.678 333.35 923.178 334.85C921.678 336.35 920.928 338.233 920.928 340.5C920.928 342.767 921.678 344.65 923.178 346.15ZM966.711 328H972.011V351.85C972.011 355.65 970.761 358.567 968.261 360.6C965.761 362.633 962.728 363.65 959.161 363.65C953.394 363.65 949.444 361.633 947.311 357.6L951.961 354.9C953.261 357.467 955.694 358.75 959.261 358.75C961.594 358.75 963.411 358.133 964.711 356.9C966.044 355.7 966.711 354.017 966.711 351.85V348.8C964.678 351.7 961.778 353.15 958.011 353.15C954.478 353.15 951.494 351.9 949.061 349.4C946.628 346.867 945.411 343.817 945.411 340.25C945.411 336.683 946.628 333.65 949.061 331.15C951.494 328.617 954.478 327.35 958.011 327.35C961.778 327.35 964.678 328.8 966.711 331.7V328ZM953.061 345.85C954.594 347.35 956.494 348.1 958.761 348.1C961.028 348.1 962.911 347.35 964.411 345.85C965.944 344.35 966.711 342.483 966.711 340.25C966.711 338.017 965.944 336.15 964.411 334.65C962.911 333.15 961.028 332.4 958.761 332.4C956.494 332.4 954.594 333.15 953.061 334.65C951.561 336.15 950.811 338.017 950.811 340.25C950.811 342.483 951.561 344.35 953.061 345.85ZM983.705 332.2C985.072 329.1 987.639 327.55 991.405 327.55V333.4C989.339 333.267 987.539 333.767 986.005 334.9C984.472 336 983.705 337.833 983.705 340.4V353H978.305V328H983.705V332.2ZM1014.02 328H1019.42V353H1014.02V349.4C1011.99 352.233 1009.07 353.65 1005.27 353.65C1001.84 353.65 998.907 352.383 996.473 349.85C994.04 347.283 992.823 344.167 992.823 340.5C992.823 336.8 994.04 333.683 996.473 331.15C998.907 328.617 1001.84 327.35 1005.27 327.35C1009.07 327.35 1011.99 328.75 1014.02 331.55V328ZM1000.47 346.25C1001.97 347.75 1003.86 348.5 1006.12 348.5C1008.39 348.5 1010.27 347.75 1011.77 346.25C1013.27 344.717 1014.02 342.8 1014.02 340.5C1014.02 338.2 1013.27 336.3 1011.77 334.8C1010.27 333.267 1008.39 332.5 1006.12 332.5C1003.86 332.5 1001.97 333.267 1000.47 334.8C998.973 336.3 998.223 338.2 998.223 340.5C998.223 342.8 998.973 344.717 1000.47 346.25ZM1053.02 327.35C1055.85 327.35 1058.13 328.267 1059.87 330.1C1061.6 331.933 1062.47 334.4 1062.47 337.5V353H1057.07V337.85C1057.07 336.117 1056.63 334.783 1055.77 333.85C1054.9 332.883 1053.72 332.4 1052.22 332.4C1050.55 332.4 1049.22 332.95 1048.22 334.05C1047.25 335.15 1046.77 336.8 1046.77 339V353H1041.37V337.85C1041.37 336.117 1040.95 334.783 1040.12 333.85C1039.32 332.883 1038.17 332.4 1036.67 332.4C1035.03 332.4 1033.7 332.967 1032.67 334.1C1031.63 335.2 1031.12 336.833 1031.12 339V353H1025.72V328H1031.12V331C1032.72 328.567 1035.1 327.35 1038.27 327.35C1041.47 327.35 1043.83 328.667 1045.37 331.3C1047.03 328.667 1049.58 327.35 1053.02 327.35ZM1073.1 334.9C1073.1 335.733 1073.55 336.4 1074.45 336.9C1075.38 337.367 1076.5 337.783 1077.8 338.15C1079.13 338.483 1080.46 338.883 1081.8 339.35C1083.13 339.817 1084.25 340.617 1085.15 341.75C1086.08 342.85 1086.55 344.25 1086.55 345.95C1086.55 348.35 1085.61 350.233 1083.75 351.6C1081.91 352.967 1079.6 353.65 1076.8 353.65C1074.33 353.65 1072.21 353.133 1070.45 352.1C1068.68 351.067 1067.4 349.633 1066.6 347.8L1071.25 345.1C1072.11 347.5 1073.96 348.7 1076.8 348.7C1079.63 348.7 1081.05 347.767 1081.05 345.9C1081.05 345.1 1080.58 344.45 1079.65 343.95C1078.75 343.45 1077.63 343.033 1076.3 342.7C1075 342.333 1073.68 341.917 1072.35 341.45C1071.01 340.983 1069.88 340.217 1068.95 339.15C1068.05 338.05 1067.6 336.667 1067.6 335C1067.6 332.7 1068.46 330.85 1070.2 329.45C1071.96 328.05 1074.15 327.35 1076.75 327.35C1078.81 327.35 1080.65 327.817 1082.25 328.75C1083.88 329.65 1085.13 330.917 1086 332.55L1081.45 335.1C1080.58 333.2 1079.01 332.25 1076.75 332.25C1075.71 332.25 1074.85 332.483 1074.15 332.95C1073.45 333.383 1073.1 334.033 1073.1 334.9Z" fill="#1B1B1B"/>
<path d="M1362.04 252.14C1373.74 252.14 1383.64 259.34 1383.64 273.2C1383.64 287.06 1372.84 294.26 1360.69 294.26C1350.7 294.26 1342.06 290.03 1338.19 280.76L1350.61 273.56C1352.05 277.7 1354.75 280.22 1360.69 280.22C1366.63 280.22 1369.24 277.07 1369.24 273.2C1369.24 269.33 1366.63 266.18 1361.14 266.18H1341.43L1344.04 230H1380.49V243.5H1357.54L1356.91 252.14H1362.04ZM1413.78 294.26C1397.49 294.26 1388.13 280.94 1388.13 261.5C1388.13 242.06 1397.49 228.74 1413.78 228.74C1430.07 228.74 1439.43 242.06 1439.43 261.5C1439.43 280.94 1430.07 294.26 1413.78 294.26ZM1413.78 280.22C1421.34 280.22 1425.03 273.65 1425.03 261.5C1425.03 249.35 1421.34 242.78 1413.78 242.78C1406.22 242.78 1402.53 249.35 1402.53 261.5C1402.53 273.65 1406.22 280.22 1413.78 280.22ZM1476.77 264.93V272.07H1464.94V283.9H1457.8V272.07H1445.97V264.93H1457.8V253.1H1464.94V264.93H1476.77ZM1352.95 318V353H1347.2V328.05L1336.55 345.65H1335.85L1325.2 328V353H1319.45V318H1325.65L1336.2 335.5L1346.8 318H1352.95ZM1363.82 342.8C1364.22 344.7 1365.14 346.167 1366.57 347.2C1368.01 348.2 1369.76 348.7 1371.82 348.7C1374.69 348.7 1376.84 347.667 1378.27 345.6L1382.72 348.2C1380.26 351.833 1376.61 353.65 1371.77 353.65C1367.71 353.65 1364.42 352.417 1361.92 349.95C1359.42 347.45 1358.17 344.3 1358.17 340.5C1358.17 336.767 1359.41 333.65 1361.87 331.15C1364.34 328.617 1367.51 327.35 1371.37 327.35C1375.04 327.35 1378.04 328.633 1380.37 331.2C1382.74 333.767 1383.92 336.883 1383.92 340.55C1383.92 341.117 1383.86 341.867 1383.72 342.8H1363.82ZM1363.77 338.4H1378.47C1378.11 336.367 1377.26 334.833 1375.92 333.8C1374.62 332.767 1373.09 332.25 1371.32 332.25C1369.32 332.25 1367.66 332.8 1366.32 333.9C1364.99 335 1364.14 336.5 1363.77 338.4ZM1401.83 327.35C1404.69 327.35 1407.01 328.267 1408.78 330.1C1410.54 331.933 1411.43 334.45 1411.43 337.65V353H1406.03V338.2C1406.03 336.333 1405.53 334.9 1404.53 333.9C1403.53 332.9 1402.16 332.4 1400.43 332.4C1398.53 332.4 1396.99 333 1395.83 334.2C1394.66 335.367 1394.08 337.167 1394.08 339.6V353H1388.68V328H1394.08V331.2C1395.71 328.633 1398.29 327.35 1401.83 327.35ZM1431.19 333.2H1424.99V345.2C1424.99 346.233 1425.22 346.983 1425.69 347.45C1426.16 347.883 1426.84 348.133 1427.74 348.2C1428.67 348.233 1429.82 348.217 1431.19 348.15V353C1427.06 353.5 1424.09 353.15 1422.29 351.95C1420.49 350.717 1419.59 348.467 1419.59 345.2V333.2H1414.99V328H1419.59V322.6L1424.99 321V328H1431.19V333.2ZM1446.86 353.65C1443.2 353.65 1440.08 352.383 1437.51 349.85C1434.95 347.317 1433.66 344.2 1433.66 340.5C1433.66 336.8 1434.95 333.683 1437.51 331.15C1440.08 328.617 1443.2 327.35 1446.86 327.35C1450.56 327.35 1453.68 328.617 1456.21 331.15C1458.78 333.683 1460.06 336.8 1460.06 340.5C1460.06 344.2 1458.78 347.317 1456.21 349.85C1453.68 352.383 1450.56 353.65 1446.86 353.65ZM1441.31 346.15C1442.81 347.65 1444.66 348.4 1446.86 348.4C1449.06 348.4 1450.91 347.65 1452.41 346.15C1453.91 344.65 1454.66 342.767 1454.66 340.5C1454.66 338.233 1453.91 336.35 1452.41 334.85C1450.91 333.35 1449.06 332.6 1446.86 332.6C1444.66 332.6 1442.81 333.35 1441.31 334.85C1439.81 336.35 1439.06 338.233 1439.06 340.5C1439.06 342.767 1439.81 344.65 1441.31 346.15ZM1470.35 332.2C1471.71 329.1 1474.28 327.55 1478.05 327.55V333.4C1475.98 333.267 1474.18 333.767 1472.65 334.9C1471.11 336 1470.35 337.833 1470.35 340.4V353H1464.95V328H1470.35V332.2ZM1486.01 334.9C1486.01 335.733 1486.46 336.4 1487.36 336.9C1488.29 337.367 1489.41 337.783 1490.71 338.15C1492.04 338.483 1493.37 338.883 1494.71 339.35C1496.04 339.817 1497.16 340.617 1498.06 341.75C1498.99 342.85 1499.46 344.25 1499.46 345.95C1499.46 348.35 1498.52 350.233 1496.66 351.6C1494.82 352.967 1492.51 353.65 1489.71 353.65C1487.24 353.65 1485.12 353.133 1483.36 352.1C1481.59 351.067 1480.31 349.633 1479.51 347.8L1484.16 345.1C1485.02 347.5 1486.87 348.7 1489.71 348.7C1492.54 348.7 1493.96 347.767 1493.96 345.9C1493.96 345.1 1493.49 344.45 1492.56 343.95C1491.66 343.45 1490.54 343.033 1489.21 342.7C1487.91 342.333 1486.59 341.917 1485.26 341.45C1483.92 340.983 1482.79 340.217 1481.86 339.15C1480.96 338.05 1480.51 336.667 1480.51 335C1480.51 332.7 1481.37 330.85 1483.11 329.45C1484.87 328.05 1487.06 327.35 1489.66 327.35C1491.72 327.35 1493.56 327.817 1495.16 328.75C1496.79 329.65 1498.04 330.917 1498.91 332.55L1494.36 335.1C1493.49 333.2 1491.92 332.25 1489.66 332.25C1488.62 332.25 1487.76 332.483 1487.06 332.95C1486.36 333.383 1486.01 334.033 1486.01 334.9Z" fill="#1B1B1B"/>
<g clip-path="url(#clip1_175_110)">
<path d="M1012.5 90.742L986.477 90.7421V84.2649C986.477 82.4692 985.023 81.0149 983.227 81.0149C981.432 81.0149 979.977 82.4692 979.977 84.2649V90.7405H953.977V84.2649C953.977 82.4692 952.523 81.0149 950.727 81.0149C948.932 81.0149 947.477 82.4692 947.477 84.2649V90.7405H921.5C917.91 90.7405 915 93.6509 915 97.2405V178.491C915 182.08 917.91 184.991 921.5 184.991H1012.5C1016.09 184.991 1019 182.08 1019 178.491V97.2405C1019 93.6524 1016.09 90.742 1012.5 90.742ZM1012.5 178.491H921.5V97.2405H947.477V100.515C947.477 102.31 948.932 103.765 950.727 103.765C952.523 103.765 953.977 102.31 953.977 100.515V97.2421H979.977V100.516C979.977 102.312 981.432 103.766 983.227 103.766C985.023 103.766 986.477 102.312 986.477 100.516V97.2421H1012.5V178.491ZM989.75 132.992H996.25C998.044 132.992 999.5 131.536 999.5 129.742V123.242C999.5 121.448 998.044 119.992 996.25 119.992H989.75C987.956 119.992 986.5 121.448 986.5 123.242V129.742C986.5 131.536 987.956 132.992 989.75 132.992ZM989.75 158.99H996.25C998.044 158.99 999.5 157.536 999.5 155.74V149.24C999.5 147.446 998.044 145.99 996.25 145.99H989.75C987.956 145.99 986.5 147.446 986.5 149.24V155.74C986.5 157.538 987.956 158.99 989.75 158.99ZM970.25 145.99H963.75C961.956 145.99 960.5 147.446 960.5 149.24V155.74C960.5 157.536 961.956 158.99 963.75 158.99H970.25C972.044 158.99 973.5 157.536 973.5 155.74V149.24C973.5 147.448 972.044 145.99 970.25 145.99ZM970.25 119.992H963.75C961.956 119.992 960.5 121.448 960.5 123.242V129.742C960.5 131.536 961.956 132.992 963.75 132.992H970.25C972.044 132.992 973.5 131.536 973.5 129.742V123.242C973.5 121.446 972.044 119.992 970.25 119.992ZM944.25 119.992H937.75C935.956 119.992 934.5 121.448 934.5 123.242V129.742C934.5 131.536 935.956 132.992 937.75 132.992H944.25C946.044 132.992 947.5 131.536 947.5 129.742V123.242C947.5 121.446 946.044 119.992 944.25 119.992ZM944.25 145.99H937.75C935.956 145.99 934.5 147.446 934.5 149.24V155.74C934.5 157.536 935.956 158.99 937.75 158.99H944.25C946.044 158.99 947.5 157.536 947.5 155.74V149.24C947.5 147.448 946.044 145.99 944.25 145.99Z" fill="#844CFE"/>
</g>
<path d="M536.589 151.931C536.212 152.214 535.784 152.419 535.327 152.536C534.871 152.653 534.397 152.679 533.93 152.612C533.464 152.546 533.016 152.388 532.61 152.148C532.205 151.908 531.851 151.591 531.569 151.214C528.576 147.191 524.681 143.927 520.196 141.685C515.712 139.443 510.764 138.285 505.75 138.305C504.799 138.305 503.887 137.927 503.214 137.254C502.542 136.582 502.164 135.67 502.164 134.719C502.164 133.768 502.542 132.856 503.214 132.183C503.887 131.511 504.799 131.133 505.75 131.133C508.656 131.132 511.504 130.317 513.97 128.779C516.436 127.241 518.421 125.042 519.7 122.432C520.979 119.823 521.501 116.907 521.205 114.016C520.91 111.125 519.81 108.374 518.03 106.077C516.25 103.779 513.862 102.027 511.136 101.019C508.41 100.011 505.457 99.7879 502.61 100.375C499.764 100.961 497.139 102.334 495.034 104.338C492.929 106.341 491.428 108.895 490.701 111.709C490.463 112.63 489.869 113.419 489.05 113.902C488.231 114.385 487.253 114.523 486.332 114.285C485.411 114.047 484.622 113.453 484.139 112.634C483.656 111.815 483.518 110.837 483.756 109.916C484.658 106.41 486.384 103.171 488.791 100.468C491.198 97.7645 494.217 95.6758 497.595 94.3758C500.973 93.0758 504.613 92.6021 508.212 92.9941C511.81 93.3862 515.263 94.6327 518.282 96.6297C521.301 98.6267 523.798 101.316 525.567 104.475C527.336 107.633 528.324 111.168 528.449 114.786C528.574 118.403 527.833 121.998 526.287 125.271C524.741 128.544 522.435 131.4 519.562 133.601C526.633 136.24 532.794 140.861 537.306 146.911C537.589 147.288 537.794 147.716 537.911 148.173C538.028 148.629 538.054 149.103 537.987 149.57C537.921 150.036 537.763 150.484 537.523 150.889C537.283 151.295 536.966 151.649 536.589 151.931ZM504.071 190.301C504.307 190.708 504.46 191.159 504.522 191.626C504.584 192.093 504.553 192.567 504.432 193.022C504.31 193.477 504.1 193.904 503.813 194.278C503.527 194.652 503.17 194.966 502.762 195.202C502.218 195.52 501.599 195.687 500.969 195.686C500.339 195.686 499.72 195.521 499.174 195.206C498.629 194.891 498.176 194.438 497.861 193.893C494.744 188.612 490.304 184.235 484.978 181.194C479.653 178.153 473.626 176.554 467.494 176.554C461.362 176.554 455.335 178.153 450.01 181.194C444.684 184.235 440.244 188.612 437.127 193.893C436.903 194.321 436.594 194.7 436.22 195.006C435.846 195.312 435.413 195.54 434.949 195.674C434.484 195.809 433.997 195.849 433.517 195.79C433.037 195.732 432.574 195.577 432.155 195.335C431.736 195.093 431.371 194.769 431.081 194.382C430.791 193.995 430.582 193.553 430.467 193.084C430.352 192.614 430.333 192.126 430.411 191.648C430.49 191.171 430.664 190.715 430.923 190.307C435.808 181.915 443.455 175.48 452.559 172.102C447.586 168.873 443.79 164.124 441.738 158.561C439.685 152.999 439.486 146.922 441.169 141.237C442.853 135.552 446.33 130.564 451.08 127.016C455.831 123.468 461.601 121.552 467.53 121.552C473.459 121.552 479.229 123.468 483.98 127.016C488.73 130.564 492.207 135.552 493.89 141.237C495.574 146.922 495.375 152.999 493.322 158.561C491.27 164.124 487.474 168.873 482.501 172.102C491.579 175.491 499.202 181.923 504.071 190.301ZM467.5 169.383C471.519 169.383 475.448 168.191 478.789 165.958C482.131 163.725 484.736 160.552 486.274 156.839C487.812 153.126 488.214 149.04 487.43 145.098C486.646 141.156 484.71 137.536 481.869 134.694C479.027 131.852 475.406 129.917 471.464 129.133C467.523 128.349 463.437 128.751 459.724 130.289C456.011 131.827 452.837 134.431 450.604 137.773C448.371 141.115 447.18 145.044 447.18 149.062C447.18 154.452 449.321 159.62 453.131 163.431C456.942 167.242 462.111 169.383 467.5 169.383ZM432.836 134.719C432.836 133.768 432.458 132.856 431.786 132.183C431.113 131.511 430.201 131.133 429.25 131.133C426.344 131.132 423.497 130.316 421.031 128.778C418.566 127.24 416.581 125.042 415.302 122.433C414.023 119.824 413.501 116.908 413.796 114.017C414.091 111.126 415.19 108.376 416.97 106.079C418.749 103.781 421.137 102.029 423.862 101.02C426.588 100.012 429.541 99.7879 432.387 100.374C435.233 100.959 437.858 102.332 439.964 104.334C442.07 106.337 443.571 108.89 444.299 111.703C444.417 112.159 444.623 112.587 444.906 112.964C445.19 113.34 445.544 113.657 445.95 113.896C446.356 114.135 446.804 114.292 447.271 114.358C447.737 114.423 448.212 114.397 448.668 114.279C449.124 114.161 449.552 113.955 449.928 113.672C450.305 113.388 450.621 113.034 450.861 112.628C451.1 112.222 451.257 111.773 451.322 111.307C451.388 110.841 451.361 110.366 451.244 109.91C450.342 106.404 448.616 103.165 446.209 100.462C443.802 97.7585 440.783 95.6699 437.405 94.3698C434.027 93.0698 430.387 92.5961 426.788 92.9882C423.19 93.3802 419.737 94.6267 416.718 96.6237C413.699 98.6208 411.202 101.31 409.433 104.469C407.664 107.627 406.676 111.162 406.551 114.78C406.426 118.397 407.167 121.992 408.713 125.265C410.259 128.538 412.565 131.394 415.438 133.595C408.366 136.236 402.205 140.859 397.694 146.911C397.411 147.288 397.206 147.716 397.089 148.173C396.972 148.629 396.946 149.103 397.013 149.57C397.079 150.036 397.237 150.484 397.477 150.889C397.717 151.295 398.034 151.649 398.411 151.931C398.788 152.214 399.216 152.419 399.673 152.536C400.129 152.653 400.603 152.679 401.07 152.612C401.536 152.546 401.984 152.388 402.39 152.148C402.795 151.908 403.149 151.591 403.431 151.214C406.424 147.191 410.319 143.927 414.804 141.685C419.288 139.443 424.236 138.285 429.25 138.305C430.201 138.305 431.113 137.927 431.786 137.254C432.458 136.582 432.836 135.67 432.836 134.719Z" fill="#6637ED"/>
<path d="M1392.5 86.125C1374.07 86.125 1359.03 101.162 1359.03 119.594C1359.03 130.968 1364.82 141.033 1373.52 147.086C1353.9 154.745 1339.91 173.87 1339.91 196.094H1349.47C1349.47 175.066 1364.73 157.49 1384.73 153.808L1387.72 162.625H1397.28L1400.27 153.808C1420.27 157.49 1435.53 175.066 1435.53 196.094H1445.09C1445.09 173.87 1431.1 154.745 1411.48 147.086C1420.18 141.033 1425.97 130.968 1425.97 119.594C1425.97 101.162 1410.93 86.125 1392.5 86.125ZM1392.5 95.6875C1405.76 95.6875 1416.41 106.335 1416.41 119.594C1416.41 132.852 1405.76 143.5 1392.5 143.5C1379.24 143.5 1368.59 132.852 1368.59 119.594C1368.59 106.335 1379.24 95.6875 1392.5 95.6875ZM1387.72 167.406L1382.94 196.094H1402.06L1397.28 167.406H1387.72Z" fill="#844CFE"/>
</g>
<defs>
<linearGradient id="paint0_linear_175_110" x1="952.654" y1="1.11121" x2="952.654" y2="2.11121" gradientUnits="userSpaceOnUse">
<stop stop-color="#1700FF"/>
<stop offset="0.5625" stop-color="#4F27FE" stop-opacity="0"/>
<stop offset="1" stop-color="#844CFE"/>
</linearGradient>
<linearGradient id="paint1_linear_175_110" x1="952.673" y1="61.4303" x2="952.673" y2="62.4303" gradientUnits="userSpaceOnUse">
<stop stop-color="#1700FF"/>
<stop offset="0.5625" stop-color="#4F27FE" stop-opacity="0"/>
<stop offset="1" stop-color="#844CFE"/>
</linearGradient>
<linearGradient id="paint2_linear_175_110" x1="952.654" y1="123.186" x2="952.654" y2="124.186" gradientUnits="userSpaceOnUse">
<stop stop-color="#1700FF"/>
<stop offset="0.5625" stop-color="#4F27FE" stop-opacity="0"/>
<stop offset="1" stop-color="#844CFE"/>
</linearGradient>
<linearGradient id="paint3_linear_175_110" x1="952.673" y1="183.505" x2="952.673" y2="184.505" gradientUnits="userSpaceOnUse">
<stop stop-color="#1700FF"/>
<stop offset="0.5625" stop-color="#4F27FE" stop-opacity="0"/>
<stop offset="1" stop-color="#844CFE"/>
</linearGradient>
<linearGradient id="paint4_linear_175_110" x1="952.654" y1="243.824" x2="952.654" y2="244.824" gradientUnits="userSpaceOnUse">
<stop stop-color="#1700FF"/>
<stop offset="0.5625" stop-color="#4F27FE" stop-opacity="0"/>
<stop offset="1" stop-color="#844CFE"/>
</linearGradient>
<linearGradient id="paint5_linear_175_110" x1="952.673" y1="304.143" x2="952.673" y2="305.143" gradientUnits="userSpaceOnUse">
<stop stop-color="#1700FF"/>
<stop offset="0.5625" stop-color="#4F27FE" stop-opacity="0"/>
<stop offset="1" stop-color="#844CFE"/>
</linearGradient>
<linearGradient id="paint6_linear_175_110" x1="952.653" y1="365.898" x2="952.653" y2="366.898" gradientUnits="userSpaceOnUse">
<stop stop-color="#1700FF"/>
<stop offset="0.5625" stop-color="#4F27FE" stop-opacity="0"/>
<stop offset="1" stop-color="#844CFE"/>
</linearGradient>
<linearGradient id="paint7_linear_175_110" x1="952.673" y1="426.217" x2="952.673" y2="427.217" gradientUnits="userSpaceOnUse">
<stop stop-color="#1700FF"/>
<stop offset="0.5625" stop-color="#4F27FE" stop-opacity="0"/>
<stop offset="1" stop-color="#844CFE"/>
</linearGradient>
<linearGradient id="paint8_linear_175_110" x1="952.654" y1="489.408" x2="952.654" y2="490.408" gradientUnits="userSpaceOnUse">
<stop stop-color="#1700FF"/>
<stop offset="0.5625" stop-color="#4F27FE" stop-opacity="0"/>
<stop offset="1" stop-color="#844CFE"/>
</linearGradient>
<linearGradient id="paint9_linear_175_110" x1="952.673" y1="549.727" x2="952.673" y2="550.727" gradientUnits="userSpaceOnUse">
<stop stop-color="#1700FF"/>
<stop offset="0.5625" stop-color="#4F27FE" stop-opacity="0"/>
<stop offset="1" stop-color="#844CFE"/>
</linearGradient>
<linearGradient id="paint10_linear_175_110" x1="11.6277" y1="775.563" x2="12.6277" y2="775.563" gradientUnits="userSpaceOnUse">
<stop stop-color="#1700FF"/>
<stop offset="0.5625" stop-color="#4F27FE" stop-opacity="0"/>
<stop offset="1" stop-color="#844CFE"/>
</linearGradient>
<linearGradient id="paint11_linear_175_110" x1="86.3416" y1="775.548" x2="87.3416" y2="775.548" gradientUnits="userSpaceOnUse">
<stop stop-color="#1700FF"/>
<stop offset="0.5625" stop-color="#4F27FE" stop-opacity="0"/>
<stop offset="1" stop-color="#844CFE"/>
</linearGradient>
<linearGradient id="paint12_linear_175_110" x1="162.833" y1="775.563" x2="163.833" y2="775.563" gradientUnits="userSpaceOnUse">
<stop stop-color="#1700FF"/>
<stop offset="0.5625" stop-color="#4F27FE" stop-opacity="0"/>
<stop offset="1" stop-color="#844CFE"/>
</linearGradient>
<linearGradient id="paint13_linear_175_110" x1="237.546" y1="775.548" x2="238.546" y2="775.548" gradientUnits="userSpaceOnUse">
<stop stop-color="#1700FF"/>
<stop offset="0.5625" stop-color="#4F27FE" stop-opacity="0"/>
<stop offset="1" stop-color="#844CFE"/>
</linearGradient>
<linearGradient id="paint14_linear_175_110" x1="315.82" y1="775.563" x2="316.82" y2="775.563" gradientUnits="userSpaceOnUse">
<stop stop-color="#1700FF"/>
<stop offset="0.5625" stop-color="#4F27FE" stop-opacity="0"/>
<stop offset="1" stop-color="#844CFE"/>
</linearGradient>
<linearGradient id="paint15_linear_175_110" x1="390.531" y1="775.548" x2="391.531" y2="775.548" gradientUnits="userSpaceOnUse">
<stop stop-color="#1700FF"/>
<stop offset="0.5625" stop-color="#4F27FE" stop-opacity="0"/>
<stop offset="1" stop-color="#844CFE"/>
</linearGradient>
<linearGradient id="paint16_linear_175_110" x1="467.022" y1="775.563" x2="468.022" y2="775.563" gradientUnits="userSpaceOnUse">
<stop stop-color="#1700FF"/>
<stop offset="0.5625" stop-color="#4F27FE" stop-opacity="0"/>
<stop offset="1" stop-color="#844CFE"/>
</linearGradient>
<linearGradient id="paint17_linear_175_110" x1="541.739" y1="775.548" x2="542.739" y2="775.548" gradientUnits="userSpaceOnUse">
<stop stop-color="#1700FF"/>
<stop offset="0.5625" stop-color="#4F27FE" stop-opacity="0"/>
<stop offset="1" stop-color="#844CFE"/>
</linearGradient>
<linearGradient id="paint18_linear_175_110" x1="616.448" y1="775.563" x2="617.448" y2="775.563" gradientUnits="userSpaceOnUse">
<stop stop-color="#1700FF"/>
<stop offset="0.5625" stop-color="#4F27FE" stop-opacity="0"/>
<stop offset="1" stop-color="#844CFE"/>
</linearGradient>
<linearGradient id="paint19_linear_175_110" x1="691.16" y1="775.548" x2="692.16" y2="775.548" gradientUnits="userSpaceOnUse">
<stop stop-color="#1700FF"/>
<stop offset="0.5625" stop-color="#4F27FE" stop-opacity="0"/>
<stop offset="1" stop-color="#844CFE"/>
</linearGradient>
<linearGradient id="paint20_linear_175_110" x1="767.651" y1="775.563" x2="768.651" y2="775.563" gradientUnits="userSpaceOnUse">
<stop stop-color="#1700FF"/>
<stop offset="0.5625" stop-color="#4F27FE" stop-opacity="0"/>
<stop offset="1" stop-color="#844CFE"/>
</linearGradient>
<linearGradient id="paint21_linear_175_110" x1="842.363" y1="775.548" x2="843.363" y2="775.548" gradientUnits="userSpaceOnUse">
<stop stop-color="#1700FF"/>
<stop offset="0.5625" stop-color="#4F27FE" stop-opacity="0"/>
<stop offset="1" stop-color="#844CFE"/>
</linearGradient>
<linearGradient id="paint22_linear_175_110" x1="920.633" y1="775.564" x2="921.633" y2="775.564" gradientUnits="userSpaceOnUse">
<stop stop-color="#1700FF"/>
<stop offset="0.5625" stop-color="#4F27FE" stop-opacity="0"/>
<stop offset="1" stop-color="#844CFE"/>
</linearGradient>
<linearGradient id="paint23_linear_175_110" x1="995.346" y1="775.548" x2="996.346" y2="775.548" gradientUnits="userSpaceOnUse">
<stop stop-color="#1700FF"/>
<stop offset="0.5625" stop-color="#4F27FE" stop-opacity="0"/>
<stop offset="1" stop-color="#844CFE"/>
</linearGradient>
<linearGradient id="paint24_linear_175_110" x1="1071.84" y1="775.564" x2="1072.84" y2="775.564" gradientUnits="userSpaceOnUse">
<stop stop-color="#1700FF"/>
<stop offset="0.5625" stop-color="#4F27FE" stop-opacity="0"/>
<stop offset="1" stop-color="#844CFE"/>
</linearGradient>
<linearGradient id="paint25_linear_175_110" x1="1146.55" y1="775.548" x2="1147.55" y2="775.548" gradientUnits="userSpaceOnUse">
<stop stop-color="#1700FF"/>
<stop offset="0.5625" stop-color="#4F27FE" stop-opacity="0"/>
<stop offset="1" stop-color="#844CFE"/>
</linearGradient>
<linearGradient id="paint26_linear_175_110" x1="1221.26" y1="775.564" x2="1222.26" y2="775.564" gradientUnits="userSpaceOnUse">
<stop stop-color="#1700FF"/>
<stop offset="0.5625" stop-color="#4F27FE" stop-opacity="0"/>
<stop offset="1" stop-color="#844CFE"/>
</linearGradient>
<linearGradient id="paint27_linear_175_110" x1="1295.98" y1="775.549" x2="1296.98" y2="775.549" gradientUnits="userSpaceOnUse">
<stop stop-color="#1700FF"/>
<stop offset="0.5625" stop-color="#4F27FE" stop-opacity="0"/>
<stop offset="1" stop-color="#844CFE"/>
</linearGradient>
<linearGradient id="paint28_linear_175_110" x1="1372.47" y1="775.564" x2="1373.47" y2="775.564" gradientUnits="userSpaceOnUse">
<stop stop-color="#1700FF"/>
<stop offset="0.5625" stop-color="#4F27FE" stop-opacity="0"/>
<stop offset="1" stop-color="#844CFE"/>
</linearGradient>
<linearGradient id="paint29_linear_175_110" x1="1447.18" y1="775.549" x2="1448.18" y2="775.549" gradientUnits="userSpaceOnUse">
<stop stop-color="#1700FF"/>
<stop offset="0.5625" stop-color="#4F27FE" stop-opacity="0"/>
<stop offset="1" stop-color="#844CFE"/>
</linearGradient>
<linearGradient id="paint30_linear_175_110" x1="1525.45" y1="775.564" x2="1526.45" y2="775.564" gradientUnits="userSpaceOnUse">
<stop stop-color="#1700FF"/>
<stop offset="0.5625" stop-color="#4F27FE" stop-opacity="0"/>
<stop offset="1" stop-color="#844CFE"/>
</linearGradient>
<linearGradient id="paint31_linear_175_110" x1="1600.17" y1="775.548" x2="1601.17" y2="775.548" gradientUnits="userSpaceOnUse">
<stop stop-color="#1700FF"/>
<stop offset="0.5625" stop-color="#4F27FE" stop-opacity="0"/>
<stop offset="1" stop-color="#844CFE"/>
</linearGradient>
<linearGradient id="paint32_linear_175_110" x1="1676.66" y1="775.564" x2="1677.66" y2="775.564" gradientUnits="userSpaceOnUse">
<stop stop-color="#1700FF"/>
<stop offset="0.5625" stop-color="#4F27FE" stop-opacity="0"/>
<stop offset="1" stop-color="#844CFE"/>
</linearGradient>
<linearGradient id="paint33_linear_175_110" x1="1751.37" y1="775.548" x2="1752.37" y2="775.548" gradientUnits="userSpaceOnUse">
<stop stop-color="#1700FF"/>
<stop offset="0.5625" stop-color="#4F27FE" stop-opacity="0"/>
<stop offset="1" stop-color="#844CFE"/>
</linearGradient>
<linearGradient id="paint34_linear_175_110" x1="1826.08" y1="775.563" x2="1827.08" y2="775.563" gradientUnits="userSpaceOnUse">
<stop stop-color="#1700FF"/>
<stop offset="0.5625" stop-color="#4F27FE" stop-opacity="0"/>
<stop offset="1" stop-color="#844CFE"/>
</linearGradient>
<linearGradient id="paint35_linear_175_110" x1="1900.8" y1="775.548" x2="1901.8" y2="775.548" gradientUnits="userSpaceOnUse">
<stop stop-color="#1700FF"/>
<stop offset="0.5625" stop-color="#4F27FE" stop-opacity="0"/>
<stop offset="1" stop-color="#844CFE"/>
</linearGradient>
<linearGradient id="paint36_linear_175_110" x1="27.0001" y1="4.00004" x2="1920" y2="1093" gradientUnits="userSpaceOnUse">
<stop stop-color="#D9D9D9" stop-opacity="0"/>
<stop offset="1" stop-color="white" stop-opacity="0.45"/>
</linearGradient>
<linearGradient id="paint37_linear_175_110" x1="27.0001" y1="4.00004" x2="1920" y2="1093" gradientUnits="userSpaceOnUse">
<stop stop-color="#D9D9D9" stop-opacity="0"/>
<stop offset="1" stop-color="white" stop-opacity="0.45"/>
</linearGradient>
<clipPath id="clip0_175_110">
<rect width="1914" height="593" fill="white"/>
</clipPath>
<clipPath id="clip1_175_110">
<rect width="104" height="104" fill="white" transform="translate(915 81)"/>
</clipPath>
</defs>
</svg>
