<svg width="1920" height="849" viewBox="0 0 1920 849" fill="none" xmlns="http://www.w3.org/2000/svg">
<g clip-path="url(#clip0_605_2)">
<rect width="1920" height="849" fill="#1B1B1B"/>
<path d="M78.7029 105H247.663M26.04 126.577H299.229M-18.9429 156.931H345.674M-57.3429 193.503H383.709M-87.6971 235.194H412.234M-108.909 282.372H437.103M-124.269 331.743H450.634M-125 433.777H451M-112.2 482.783H438.2M416.623 529.96H-90.2571M-61.3657 572.017H387.366M351.16 608.589H-24.7943M16.8971 638.212H308.737M261.926 660.52H64.8057" stroke="#535353" stroke-opacity="0.64"/>
<path d="M457.719 382.674C457.719 545.279 325.902 677.096 163.296 677.096C0.691132 677.096 -131.126 545.279 -131.126 382.674C-131.126 220.068 0.691132 88.251 163.296 88.251C325.902 88.251 457.719 220.068 457.719 382.674Z" stroke="#535353" stroke-opacity="0.64"/>
<path fill-rule="evenodd" clip-rule="evenodd" d="M-78.0412 378.857C-12.5726 341.179 67.2429 302.302 144.667 270.515C220.72 239.29 300.92 212.015 371.731 192.657C442.659 173.268 503.8 161.925 541.889 162.338C551.382 162.441 559.279 163.275 565.459 164.825C571.696 166.389 575.791 168.585 578.136 171.104C580.308 173.438 581.268 176.35 580.621 180.368C579.94 184.596 577.457 190.046 572.463 196.853C562.489 210.447 543.432 228.217 513.254 250.681C487.161 270.105 452.935 292.906 409.453 319.411C407.621 320.51 405.793 321.607 404 322.683C396.853 326.971 390.261 330.928 386.157 333.394C384.73 334.252 383.601 334.931 382.855 335.382C382.483 335.607 382.2 335.778 382.021 335.887C381.939 335.937 381.856 335.988 381.796 336.025C381.782 336.035 381.751 336.054 381.715 336.078C381.695 336.091 381.646 336.124 381.615 336.146C381.553 336.19 381.311 336.38 381.138 336.536C379.904 339.769 383.42 343.444 385.316 343.224C385.48 343.159 385.699 343.06 385.757 343.03C385.832 342.992 385.894 342.957 385.903 342.952C386.174 342.8 388.32 341.524 392.841 338.827C399.988 334.564 406.914 330.389 413.622 326.299C414.641 325.688 415.661 325.076 416.678 324.466C426.812 318.384 436.563 312.528 440.711 310.02C441.735 309.401 442.452 308.965 442.739 308.786C442.777 308.762 442.822 308.733 442.866 308.705C442.878 308.697 442.895 308.686 442.915 308.673C442.929 308.664 442.944 308.653 442.961 308.642C442.981 308.629 443.025 308.598 443.051 308.579C443.091 308.55 443.197 308.47 443.263 308.416C443.374 308.321 443.767 307.877 444.114 307.368C473.683 288.639 498.178 271.943 518.062 257.141C548.4 234.558 568.249 216.208 578.955 201.616C584.301 194.33 587.601 187.671 588.571 181.649C589.574 175.417 588.052 169.939 584.03 165.618C580.181 161.482 574.373 158.758 567.418 157.014C560.407 155.256 551.826 154.393 541.977 154.286C502.695 153.86 440.637 165.472 369.608 184.89C298.464 204.339 217.952 231.722 141.609 263.066C63.8856 294.976 -16.2531 334.006 -82.0578 371.878C-114.959 390.813 -144.326 409.486 -168.036 426.862C-191.677 444.188 -209.949 460.406 -220.423 474.466C-225.65 481.483 -229.179 488.282 -230.235 494.66C-231.329 501.265 -229.735 507.333 -225.003 512.236C-220.463 516.938 -213.362 520.232 -204.059 522.382C-194.693 524.547 -182.673 525.646 -167.829 525.627C-108.572 525.551 -53.9903 516.978 117.107 473.127L115.818 471.838C-55.283 515.689 -109.697 517.5 -167.839 517.575C-182.345 517.593 -193.697 516.512 -202.246 514.536C-210.86 512.546 -216.22 509.74 -219.209 506.643C-222.006 503.746 -223.009 500.313 -222.291 495.976C-221.535 491.412 -218.845 485.827 -213.965 479.277C-204.227 466.204 -186.745 450.557 -163.276 433.357C-139.876 416.209 -110.777 397.696 -78.0412 378.857Z" stroke="#535353" stroke-opacity="0.64"/>
<path d="M176.196 475.915C172.043 476.795 165.935 476.76 155.663 476.234C151.486 476.02 146.632 475.725 140.952 475.381C139.662 475.303 138.33 475.222 136.953 475.139C129.946 474.716 121.795 474.236 112.277 473.746C127.674 465.346 139.861 458.892 149.258 454.293C158.984 449.533 165.677 446.782 169.838 445.901C178.02 444.167 186.085 449.473 187.842 457.767C189.599 466.061 184.378 474.182 176.196 475.915Z" stroke="#535353" stroke-opacity="0.64"/>
<path d="M-130.5 383.5H457.5" stroke="#535353" stroke-opacity="0.64"/>
</g>
<defs>
<clipPath id="clip0_605_2">
<rect width="1920" height="849" fill="white"/>
</clipPath>
</defs>
</svg>
