<svg width="212" height="316" viewBox="0 0 212 316" fill="none" xmlns="http://www.w3.org/2000/svg">
<path d="M25.0264 71.918H85.6273M6.13785 79.8352H104.122M-9.99614 90.9731H120.781M-23.7691 104.392H134.423M-34.6562 119.69H144.654M-42.2641 137.001H153.574M-47.7733 155.116H158.427M-48.0356 192.556H158.558M-43.4447 210.537H153.967M146.228 227.848H-35.5744M-25.2119 243.28H135.734M122.749 256.699H-12.0949M2.85858 267.569H107.533M90.7429 275.754H20.0419" stroke="#535353" stroke-opacity="0.64"/>
<path d="M160.648 173.804C160.648 233.305 113.502 281.52 55.3678 281.52C-2.76601 281.52 -49.9121 233.305 -49.9121 173.804C-49.9121 114.304 -2.76601 66.0889 55.3678 66.0889C113.502 66.0889 160.648 114.304 160.648 173.804Z" stroke="#535353" stroke-opacity="0.64"/>
<path fill-rule="evenodd" clip-rule="evenodd" d="M-31.1921 172.404C-7.71047 158.579 20.9169 144.314 48.6868 132.65C75.9645 121.193 104.73 111.185 130.128 104.082C155.567 96.9673 177.497 92.8053 191.158 92.9569C194.563 92.9947 197.396 93.3007 199.612 93.8694C201.849 94.4434 203.318 95.2491 204.159 96.1734C204.938 97.0297 205.282 98.0984 205.05 99.5728C204.806 101.124 203.915 103.124 202.124 105.621C198.547 110.609 191.712 117.13 180.888 125.373C171.529 132.5 159.253 140.866 143.657 150.591C143 150.995 142.345 151.397 141.701 151.792C139.138 153.366 136.774 154.817 135.302 155.722C134.79 156.037 134.385 156.286 134.117 156.452C133.984 156.534 133.883 156.597 133.819 156.637C133.789 156.655 133.759 156.674 133.738 156.688C133.732 156.691 133.721 156.698 133.709 156.707C133.701 156.712 133.684 156.724 133.673 156.732C133.651 156.748 133.564 156.818 133.502 156.875C133.059 158.062 134.32 159.41 135 159.329C135.059 159.305 135.137 159.269 135.158 159.258C135.185 159.244 135.207 159.231 135.211 159.229C135.308 159.174 136.078 158.705 137.699 157.716C140.262 156.152 142.747 154.619 145.153 153.119C145.518 152.895 145.884 152.67 146.249 152.446C149.883 150.215 153.381 148.066 154.869 147.146C155.236 146.919 155.493 146.759 155.596 146.693C155.61 146.684 155.626 146.674 155.641 146.663C155.646 146.66 155.652 146.656 155.659 146.651C155.664 146.648 155.67 146.644 155.676 146.64C155.683 146.635 155.699 146.624 155.708 146.617C155.722 146.606 155.76 146.577 155.784 146.557C155.824 146.522 155.965 146.359 156.089 146.172C166.695 139.3 175.48 133.174 182.612 127.743C193.493 119.456 200.613 112.723 204.453 107.369C206.37 104.696 207.554 102.252 207.902 100.042C208.261 97.7559 207.715 95.746 206.273 94.1605C204.892 92.6428 202.809 91.6434 200.315 91.0035C197.8 90.3583 194.722 90.0416 191.19 90.0024C177.1 89.846 154.842 94.107 129.366 101.232C103.849 108.368 74.9717 118.416 47.5899 129.917C19.7128 141.625 -9.03058 155.947 -32.6327 169.843C-44.4334 176.791 -54.9663 183.642 -63.4705 190.018C-71.9498 196.376 -78.5036 202.326 -82.2602 207.486C-84.1348 210.06 -85.4008 212.555 -85.7796 214.895C-86.1718 217.319 -85.6003 219.545 -83.9029 221.344C-82.2747 223.07 -79.7274 224.279 -76.391 225.067C-73.0315 225.861 -68.7204 226.265 -63.3962 226.258C-42.1424 226.23 -22.5657 223.084 38.8018 206.994L38.3393 206.521C-23.0294 222.611 -42.5459 223.276 -63.3999 223.303C-68.6027 223.31 -72.6742 222.913 -75.7407 222.188C-78.8304 221.458 -80.7525 220.429 -81.8248 219.292C-82.8279 218.229 -83.1878 216.97 -82.9302 215.378C-82.6592 213.703 -81.694 211.654 -79.944 209.251C-76.4512 204.454 -70.181 198.713 -61.7633 192.402C-53.3705 186.109 -42.9333 179.317 -31.1921 172.404Z" stroke="#535353" stroke-opacity="0.64"/>
<path d="M59.9297 207.702C58.4875 208.014 56.3395 208.006 52.6464 207.812C51.1499 207.734 49.4107 207.626 47.374 207.5C46.9111 207.471 46.4328 207.441 45.9385 207.411C43.7024 207.273 41.1411 207.118 38.1986 206.959C43.2603 204.142 47.3087 201.957 50.4715 200.373C53.9627 198.625 56.3308 197.633 57.7797 197.319C60.5411 196.721 63.2691 198.553 63.8639 201.425C64.4587 204.297 62.691 207.103 59.9297 207.702Z" stroke="#535353" stroke-opacity="0.64"/>
<path d="M-50.0078 174.108H160.89" stroke="#535353" stroke-opacity="0.64"/>
</svg>
