<svg width="120" height="69" viewBox="0 0 120 69" fill="none" xmlns="http://www.w3.org/2000/svg">
<path d="M56.1827 38.0056C56.1827 51.0746 45.5882 61.6691 32.5192 61.6691C19.4502 61.6691 8.85571 51.0746 8.85571 38.0056C8.85571 24.9367 19.4502 14.3422 32.5192 14.3422C45.5882 14.3422 56.1827 24.9367 56.1827 38.0056Z" fill="#6637ED"/>
<path d="M45.3929 30.8018C47.84 30.8018 49.9237 32.5463 49.9237 35.8172V43.2555H46.2894V36.3502C46.2894 34.8481 45.3445 34.1454 44.1815 34.1454C42.8489 34.1454 41.9282 34.9207 41.9282 36.641V43.2555H38.2939V26.2953H41.9282V32.2798C42.5824 31.3833 43.7938 30.8018 45.3929 30.8018Z" fill="white"/>
<path d="M55.6661 38.652C56.1265 39.9119 57.241 40.348 58.5736 40.348C59.567 40.348 60.415 39.9603 60.8996 39.4273L63.807 41.0991C62.6198 42.7467 60.8269 43.5947 58.5251 43.5947C54.382 43.5947 51.8138 40.8083 51.8138 37.1983C51.8138 33.5882 54.4305 30.8018 58.2586 30.8018C61.796 30.8018 64.4128 33.5397 64.4128 37.1983C64.4128 37.7071 64.3643 38.1916 64.2674 38.652H55.6661ZM55.5935 35.9384H60.8027C60.415 34.5331 59.3247 34.0243 58.2344 34.0243C56.8534 34.0243 55.9327 34.7027 55.5935 35.9384Z" fill="white"/>
<path d="M77.2493 43.2555H73.0819L70.8287 40.0573L68.5754 43.2555H64.408L68.745 37.1013L64.5534 31.1411H68.7207L70.8287 34.1454L72.9366 31.1411H77.1039L72.9123 37.1013L77.2493 43.2555Z" fill="white"/>
<path d="M81.2955 34.6785C81.2955 36.0595 87.2558 35.1388 87.2558 39.6211C87.2558 42.4074 84.8329 43.5947 82.2162 43.5947C79.7933 43.5947 77.9519 42.674 77.007 40.7114L80.1568 38.9185C80.4717 39.8392 81.1501 40.348 82.2162 40.348C83.0884 40.348 83.5246 40.0815 83.5246 39.5969C83.5246 38.2643 77.5643 38.967 77.5643 34.7754C77.5643 32.1344 79.7933 30.8018 82.3131 30.8018C84.2757 30.8018 86.0201 31.6741 87.0377 33.3943L83.9365 35.0661C83.5972 34.4362 83.1127 34.0001 82.3131 34.0001C81.6832 34.0001 81.2955 34.2423 81.2955 34.6785Z" fill="white"/>
<path d="M95.8144 34.63H93.3189V38.9185C93.3189 39.9603 94.2153 40.0573 95.8144 39.9603V43.2555C91.0656 43.74 89.6846 42.3105 89.6846 38.9185V34.63H87.7462V31.1411H89.6846V28.8393L93.3189 27.749V31.1411H95.8144V34.63Z" fill="white"/>
<path d="M106.431 31.1411H110.065V43.2555H106.431V42.1167C105.631 43.0374 104.444 43.5947 102.821 43.5947C99.6466 43.5947 97.0299 40.8083 97.0299 37.1983C97.0299 33.5882 99.6466 30.8018 102.821 30.8018C104.444 30.8018 105.631 31.3591 106.431 32.2798V31.1411ZM103.547 40.1542C105.219 40.1542 106.431 39.0154 106.431 37.1983C106.431 35.3811 105.219 34.2423 103.547 34.2423C101.876 34.2423 100.664 35.3811 100.664 37.1983C100.664 39.0154 101.876 40.1542 103.547 40.1542Z" fill="white"/>
<path d="M116.366 33.2974C116.85 31.6741 118.474 30.8988 120 30.8988V35.0177C118.498 34.7754 116.366 35.3811 116.366 37.7797V43.2555H112.731V31.1411H116.366V33.2974Z" fill="white"/>
<path d="M44.5855 47.1327H45.6516V55.209H44.5855V53.9491C43.9825 54.9182 43.078 55.4028 41.8719 55.4028C40.892 55.4028 40.1166 55.1067 39.5459 54.5144C38.986 53.9114 38.706 53.1037 38.706 52.0915V47.1327H39.7721V52.0915C39.7721 52.813 39.9605 53.373 40.3374 53.7714C40.7251 54.1698 41.2689 54.369 41.9688 54.369C42.7441 54.369 43.3741 54.1267 43.8587 53.6422C44.3432 53.1468 44.5855 52.3876 44.5855 51.3647V47.1327Z" fill="white"/>
<path d="M54.6747 46.9389C55.6546 46.9389 56.4245 47.2404 56.9845 47.8434C57.5552 48.4357 57.8406 49.2379 57.8406 50.2501V55.209H56.7745V50.2501C56.7745 49.5286 56.5807 48.9687 56.193 48.5703C55.8161 48.1718 55.2777 47.9726 54.5778 47.9726C53.8024 47.9726 53.1725 48.2203 52.6879 48.7156C52.2033 49.2002 51.9611 49.954 51.9611 50.977V55.209H50.895V47.1327H51.9611V48.3926C52.5641 47.4234 53.4686 46.9389 54.6747 46.9389Z" fill="white"/>
<path d="M63.9724 45.1944C63.8216 45.3451 63.6385 45.4205 63.4232 45.4205C63.2078 45.4205 63.0247 45.3451 62.874 45.1944C62.7232 45.0436 62.6479 44.8606 62.6479 44.6452C62.6479 44.4298 62.7232 44.2468 62.874 44.096C63.0247 43.9453 63.2078 43.8699 63.4232 43.8699C63.6385 43.8699 63.8216 43.9453 63.9724 44.096C64.1231 44.2468 64.1985 44.4298 64.1985 44.6452C64.1985 44.8606 64.1231 45.0436 63.9724 45.1944ZM62.8901 55.209V47.1327H63.9562V55.209H62.8901Z" fill="white"/>
<path d="M75.0216 47.1327H76.1523L72.841 55.209H71.5488L68.2375 47.1327H69.3682L72.1949 54.0944L75.0216 47.1327Z" fill="white"/>
<path d="M83.8447 46.9389C85.04 46.9389 86.0037 47.3642 86.736 48.2149C87.479 49.0548 87.8505 50.0509 87.8505 51.2031C87.8505 51.3216 87.8397 51.4885 87.8182 51.7039H80.7272C80.8349 52.5223 81.1795 53.1737 81.761 53.6583C82.3533 54.1321 83.0801 54.369 83.9416 54.369C84.5554 54.369 85.083 54.2452 85.5245 53.9975C85.9768 53.7391 86.316 53.4053 86.5421 52.9961L87.479 53.5452C87.1236 54.116 86.6391 54.5682 86.0253 54.9021C85.4115 55.2359 84.7115 55.4028 83.9254 55.4028C82.6548 55.4028 81.621 55.0044 80.8241 54.2075C80.0273 53.4106 79.6289 52.3984 79.6289 51.1708C79.6289 49.9648 80.0219 48.9579 80.808 48.1503C81.5941 47.3427 82.6063 46.9389 83.8447 46.9389ZM83.8447 47.9726C83.0047 47.9726 82.2994 48.2257 81.7287 48.7318C81.1687 49.2271 80.8349 49.8732 80.7272 50.6701H86.7521C86.6445 49.8194 86.316 49.1571 85.7668 48.6833C85.2176 48.2095 84.5769 47.9726 83.8447 47.9726Z" fill="white"/>
<path d="M93.6006 48.4733C94.0959 47.4934 94.9466 47.0035 96.1527 47.0035V48.0372C95.4204 48.0372 94.812 48.2526 94.3274 48.6833C93.8429 49.1141 93.6006 49.7925 93.6006 50.7186V55.209H92.5345V47.1327H93.6006V48.4733Z" fill="white"/>
<path d="M101.126 49.2487C101.126 49.6148 101.288 49.9055 101.611 50.1209C101.934 50.3363 102.327 50.5032 102.79 50.6216C103.253 50.7401 103.716 50.8747 104.179 51.0255C104.642 51.1654 105.035 51.4077 105.358 51.7523C105.681 52.0861 105.843 52.5276 105.843 53.0768C105.843 53.766 105.568 54.326 105.019 54.7567C104.481 55.1874 103.781 55.4028 102.919 55.4028C102.144 55.4028 101.482 55.2305 100.933 54.8859C100.394 54.5413 100.017 54.0944 99.8019 53.5452L100.706 53.0122C100.857 53.4322 101.126 53.766 101.514 54.0137C101.912 54.2506 102.381 54.369 102.919 54.369C103.447 54.369 103.888 54.2667 104.244 54.0621C104.599 53.8468 104.777 53.5183 104.777 53.0768C104.777 52.7107 104.615 52.42 104.292 52.2046C103.969 51.9892 103.576 51.8223 103.113 51.7039C102.65 51.5854 102.187 51.4562 101.724 51.3162C101.261 51.1654 100.868 50.9232 100.545 50.5893C100.222 50.2447 100.06 49.7979 100.06 49.2487C100.06 48.5918 100.319 48.0426 100.836 47.6011C101.363 47.1596 102.026 46.9389 102.822 46.9389C103.479 46.9389 104.055 47.0896 104.551 47.3911C105.046 47.6819 105.412 48.0803 105.649 48.5864L104.761 49.1033C104.448 48.3495 103.802 47.9726 102.822 47.9726C102.359 47.9726 101.961 48.0857 101.627 48.3118C101.293 48.5272 101.126 48.8395 101.126 49.2487Z" fill="white"/>
<path d="M114.104 46.9389C115.299 46.9389 116.263 47.3642 116.996 48.2149C117.739 49.0548 118.11 50.0509 118.11 51.2031C118.11 51.3216 118.099 51.4885 118.078 51.7039H110.987C111.094 52.5223 111.439 53.1737 112.021 53.6583C112.613 54.1321 113.34 54.369 114.201 54.369C114.815 54.369 115.343 54.2452 115.784 53.9975C116.236 53.7391 116.576 53.4053 116.802 52.9961L117.739 53.5452C117.383 54.116 116.899 54.5682 116.285 54.9021C115.671 55.2359 114.971 55.4028 114.185 55.4028C112.914 55.4028 111.881 55.0044 111.084 54.2075C110.287 53.4106 109.888 52.3984 109.888 51.1708C109.888 49.9648 110.281 48.9579 111.068 48.1503C111.854 47.3427 112.866 46.9389 114.104 46.9389ZM114.104 47.9726C113.264 47.9726 112.559 48.2257 111.988 48.7318C111.428 49.2271 111.094 49.8732 110.987 50.6701H117.012C116.904 49.8194 116.576 49.1571 116.026 48.6833C115.477 48.2095 114.836 47.9726 114.104 47.9726Z" fill="white"/>
<path fill-rule="evenodd" clip-rule="evenodd" d="M13.1555 37.6996C18.4084 34.6764 24.8125 31.5571 31.0248 29.0066C37.127 26.5013 43.5619 24.3128 49.2436 22.7596C54.9345 21.2038 59.8403 20.2937 62.8964 20.3269C63.6581 20.3352 64.2917 20.4021 64.7876 20.5264C65.288 20.6519 65.6166 20.8281 65.8047 21.0302C65.9789 21.2175 66.056 21.4512 66.0041 21.7736C65.9495 22.1128 65.7502 22.5501 65.3495 23.0962C64.5492 24.1869 63.0202 25.6128 60.5988 27.4152C58.5052 28.9737 55.7591 30.8032 52.2702 32.9298C52.1232 33.018 51.9765 33.106 51.8327 33.1924C51.2593 33.5365 50.7303 33.8539 50.401 34.0518C50.2865 34.1207 50.196 34.1752 50.1361 34.2113C50.1062 34.2293 50.0835 34.2431 50.0692 34.2518C50.0626 34.2558 50.0559 34.2599 50.0511 34.2629C50.05 34.2637 50.0475 34.2652 50.0446 34.2671C50.043 34.2682 50.039 34.2709 50.0365 34.2726C50.0316 34.2761 50.0122 34.2913 49.9983 34.3039C49.8993 34.5633 50.1814 34.8582 50.3335 34.8405C50.3467 34.8353 50.3642 34.8273 50.3689 34.825C50.375 34.8219 50.3799 34.8191 50.3806 34.8187C50.4024 34.8065 50.5746 34.7041 50.9373 34.4877C51.5107 34.1457 52.0664 33.8107 52.6047 33.4826C52.6865 33.4335 52.7683 33.3844 52.8499 33.3354C53.663 32.8474 54.4454 32.3775 54.7783 32.1763C54.8604 32.1267 54.9179 32.0917 54.9409 32.0773C54.944 32.0754 54.9476 32.0731 54.9511 32.0709C54.9521 32.0702 54.9534 32.0693 54.955 32.0683C54.9562 32.0675 54.9574 32.0667 54.9587 32.0658C54.9603 32.0647 54.9639 32.0622 54.966 32.0607C54.9692 32.0584 54.9777 32.052 54.983 32.0477C54.9919 32.0401 55.0234 32.0044 55.0512 31.9635C57.4238 30.4608 59.3892 29.1212 60.9846 27.9335C63.4188 26.1215 65.0114 24.6492 65.8704 23.4784C66.2994 22.8938 66.5642 22.3595 66.642 21.8763C66.7225 21.3763 66.6003 20.9368 66.2776 20.5901C65.9688 20.2582 65.5027 20.0397 64.9448 19.8997C64.3822 19.7587 63.6937 19.6894 62.9034 19.6808C59.7516 19.6466 54.7723 20.5784 49.0732 22.1364C43.3648 23.6969 36.9049 25.894 30.7794 28.4089C24.5432 30.9693 18.1131 34.1009 12.8332 37.1396C10.1933 38.6589 7.83705 40.1571 5.93462 41.5513C4.03776 42.9415 2.57166 44.2427 1.73128 45.3709C1.31191 45.9339 1.02871 46.4794 0.943971 46.9912C0.856236 47.5211 0.984092 48.008 1.36381 48.4014C1.72804 48.7787 2.29786 49.043 3.04424 49.2155C3.79577 49.3892 4.76019 49.4774 5.95124 49.4759C10.7058 49.4698 19.2884 48.0298 33.0167 44.5114L32.8563 43.8855C19.1278 47.404 10.6156 48.8238 5.95042 48.8298C4.78654 48.8313 3.87571 48.7445 3.18971 48.586C2.49855 48.4263 2.06855 48.2012 1.82867 47.9527C1.60429 47.7202 1.52377 47.4448 1.5814 47.0967C1.64203 46.7305 1.85793 46.2824 2.24943 45.7569C3.03078 44.708 4.43345 43.4525 6.31654 42.0725C8.19406 40.6965 10.5289 39.2112 13.1555 37.6996Z" fill="white"/>
<path d="M33.5626 45.5263C32.884 45.6701 31.5805 45.5132 28.2818 45.3459C30.8709 43.9313 32.3572 43.1834 33.0358 43.0396C33.7144 42.8958 34.3825 43.336 34.5279 44.0227C34.6734 44.7094 34.2412 45.3826 33.5626 45.5263Z" fill="white"/>
<path d="M9.01741 40.5102L8.93665 39.4603L12.1672 35.4221L40.5956 24.1154L49.8026 21.854L50.5295 22.6616L39.5457 25.8213L38.0112 26.3767L9.01741 40.5102Z" fill="#6637ED"/>
</svg>
