<svg width="96" height="107" viewBox="0 0 96 107" fill="none" xmlns="http://www.w3.org/2000/svg">
<path d="M48 13.375C36.435 13.375 27 23.8911 27 36.7812C27 44.736 30.63 51.7746 36.093 56.0078C23.778 61.3645 15 74.7395 15 90.2812H21C21 75.5754 30.573 63.2838 43.125 60.7091L45 66.875H51L52.875 60.7091C65.427 63.2838 75 75.5754 75 90.2812H81C81 74.7395 72.222 61.3645 59.907 56.0078C65.367 51.7746 69 44.736 69 36.7812C69 23.8911 59.565 13.375 48 13.375ZM48 20.0625C56.319 20.0625 63 27.509 63 36.7812C63 46.0535 56.319 53.5 48 53.5C39.681 53.5 33 46.0535 33 36.7812C33 27.509 39.681 20.0625 48 20.0625ZM45 70.2188L42 90.2812H54L51 70.2188H45Z" fill="#844CFE"/>
</svg>
