<svg width="153" height="153" viewBox="0 0 153 153" fill="none" xmlns="http://www.w3.org/2000/svg">
<path d="M76.5 19.125C58.0683 19.125 43.0312 34.162 43.0312 52.5938C43.0312 63.9683 48.8166 74.0329 57.5232 80.0859C37.8962 87.7455 23.9062 106.87 23.9062 129.094H33.4688C33.4688 108.066 48.7257 90.4899 68.7305 86.8084L71.7188 95.625H81.2812L84.2695 86.8084C104.274 90.4899 119.531 108.066 119.531 129.094H129.094C129.094 106.87 115.104 87.7455 95.4768 80.0859C104.179 74.0329 109.969 63.9683 109.969 52.5938C109.969 34.162 94.9317 19.125 76.5 19.125ZM76.5 28.6875C89.7584 28.6875 100.406 39.3353 100.406 52.5938C100.406 65.8522 89.7584 76.5 76.5 76.5C63.2416 76.5 52.5938 65.8522 52.5938 52.5938C52.5938 39.3353 63.2416 28.6875 76.5 28.6875ZM71.7188 100.406L66.9375 129.094H86.0625L81.2812 100.406H71.7188Z" fill="#844CFE"/>
</svg>
