<svg width="820" height="46" viewBox="0 0 820 46" fill="none" xmlns="http://www.w3.org/2000/svg">
<rect y="0.37793" width="159.76" height="44.3777" rx="10" fill="#6637ED"/>
<path d="M50.8 15H53.1V29H51.3L44.7 19.5V29H42.4V15H44.2L50.8 24.5V15ZM57.4561 24.92C57.6161 25.68 57.9828 26.2667 58.5561 26.68C59.1294 27.08 59.8294 27.28 60.6561 27.28C61.8028 27.28 62.6628 26.8667 63.2361 26.04L65.0161 27.08C64.0294 28.5333 62.5694 29.26 60.6361 29.26C59.0094 29.26 57.6961 28.7667 56.6961 27.78C55.6961 26.78 55.1961 25.52 55.1961 24C55.1961 22.5067 55.6894 21.26 56.6761 20.26C57.6628 19.2467 58.9294 18.74 60.4761 18.74C61.9428 18.74 63.1428 19.2533 64.0761 20.28C65.0228 21.3067 65.4961 22.5533 65.4961 24.02C65.4961 24.2467 65.4694 24.5467 65.4161 24.92H57.4561ZM57.4361 23.16H63.3161C63.1694 22.3467 62.8294 21.7333 62.2961 21.32C61.7761 20.9067 61.1628 20.7 60.4561 20.7C59.6561 20.7 58.9894 20.92 58.4561 21.36C57.9228 21.8 57.5828 22.4 57.4361 23.16ZM72.6642 21.08H70.1842V25.88C70.1842 26.2933 70.2776 26.5933 70.4642 26.78C70.6509 26.9533 70.9242 27.0533 71.2842 27.08C71.6576 27.0933 72.1176 27.0867 72.6642 27.06V29C71.0109 29.2 69.8242 29.06 69.1042 28.58C68.3842 28.0867 68.0242 27.1867 68.0242 25.88V21.08H66.1842V19H68.0242V16.84L70.1842 16.2V19H72.6642V21.08ZM86.2409 19H88.5209L85.3809 29H83.2609L81.1809 22.26L79.0809 29H76.9609L73.8209 19H76.1009L78.0409 25.9L80.1409 19H82.2009L84.2809 25.9L86.2409 19ZM94.4409 29.26C92.9743 29.26 91.7276 28.7533 90.7009 27.74C89.6743 26.7267 89.1609 25.48 89.1609 24C89.1609 22.52 89.6743 21.2733 90.7009 20.26C91.7276 19.2467 92.9743 18.74 94.4409 18.74C95.9209 18.74 97.1676 19.2467 98.1809 20.26C99.2076 21.2733 99.7209 22.52 99.7209 24C99.7209 25.48 99.2076 26.7267 98.1809 27.74C97.1676 28.7533 95.9209 29.26 94.4409 29.26ZM92.2209 26.26C92.8209 26.86 93.5609 27.16 94.4409 27.16C95.3209 27.16 96.0609 26.86 96.6609 26.26C97.2609 25.66 97.5609 24.9067 97.5609 24C97.5609 23.0933 97.2609 22.34 96.6609 21.74C96.0609 21.14 95.3209 20.84 94.4409 20.84C93.5609 20.84 92.8209 21.14 92.2209 21.74C91.6209 22.34 91.3209 23.0933 91.3209 24C91.3209 24.9067 91.6209 25.66 92.2209 26.26ZM103.834 20.68C104.381 19.44 105.407 18.82 106.914 18.82V21.16C106.087 21.1067 105.367 21.3067 104.754 21.76C104.141 22.2 103.834 22.9333 103.834 23.96V29H101.674V19H103.834V20.68ZM117.35 29H114.77L110.67 24.38V29H108.51V15H110.67V23.42L114.55 19H117.19L112.79 23.9L117.35 29Z" fill="white"/>
<rect x="220.741" y="0.5" width="158.76" height="43.3777" rx="9.5" stroke="white"/>
<path d="M268.02 29.26C265.913 29.26 264.167 28.5667 262.78 27.18C261.393 25.78 260.7 24.0533 260.7 22C260.7 19.9467 261.393 18.2267 262.78 16.84C264.167 15.44 265.913 14.74 268.02 14.74C269.287 14.74 270.453 15.04 271.52 15.64C272.6 16.24 273.44 17.0533 274.04 18.08L272.04 19.24C271.667 18.5467 271.12 18 270.4 17.6C269.693 17.1867 268.9 16.98 268.02 16.98C266.527 16.98 265.313 17.4533 264.38 18.4C263.46 19.3467 263 20.5467 263 22C263 23.4533 263.46 24.6533 264.38 25.6C265.313 26.5467 266.527 27.02 268.02 27.02C268.9 27.02 269.7 26.82 270.42 26.42C271.14 26.0067 271.68 25.4533 272.04 24.76L274.04 25.9C273.453 26.9267 272.62 27.7467 271.54 28.36C270.473 28.96 269.3 29.26 268.02 29.26ZM280.511 29.26C279.045 29.26 277.798 28.7533 276.771 27.74C275.745 26.7267 275.231 25.48 275.231 24C275.231 22.52 275.745 21.2733 276.771 20.26C277.798 19.2467 279.045 18.74 280.511 18.74C281.991 18.74 283.238 19.2467 284.251 20.26C285.278 21.2733 285.791 22.52 285.791 24C285.791 25.48 285.278 26.7267 284.251 27.74C283.238 28.7533 281.991 29.26 280.511 29.26ZM278.291 26.26C278.891 26.86 279.631 27.16 280.511 27.16C281.391 27.16 282.131 26.86 282.731 26.26C283.331 25.66 283.631 24.9067 283.631 24C283.631 23.0933 283.331 22.34 282.731 21.74C282.131 21.14 281.391 20.84 280.511 20.84C279.631 20.84 278.891 21.14 278.291 21.74C277.691 22.34 277.391 23.0933 277.391 24C277.391 24.9067 277.691 25.66 278.291 26.26ZM293.004 18.74C294.151 18.74 295.078 19.1067 295.784 19.84C296.491 20.5733 296.844 21.58 296.844 22.86V29H294.684V23.08C294.684 22.3333 294.484 21.76 294.084 21.36C293.684 20.96 293.138 20.76 292.444 20.76C291.684 20.76 291.071 21 290.604 21.48C290.138 21.9467 289.904 22.6667 289.904 23.64V29H287.744V19H289.904V20.28C290.558 19.2533 291.591 18.74 293.004 18.74ZM304.43 18.74C305.577 18.74 306.503 19.1067 307.21 19.84C307.917 20.5733 308.27 21.58 308.27 22.86V29H306.11V23.08C306.11 22.3333 305.91 21.76 305.51 21.36C305.11 20.96 304.563 20.76 303.87 20.76C303.11 20.76 302.497 21 302.03 21.48C301.563 21.9467 301.33 22.6667 301.33 23.64V29H299.17V19H301.33V20.28C301.983 19.2533 303.017 18.74 304.43 18.74ZM312.296 24.92C312.456 25.68 312.823 26.2667 313.396 26.68C313.969 27.08 314.669 27.28 315.496 27.28C316.643 27.28 317.503 26.8667 318.076 26.04L319.856 27.08C318.869 28.5333 317.409 29.26 315.476 29.26C313.849 29.26 312.536 28.7667 311.536 27.78C310.536 26.78 310.036 25.52 310.036 24C310.036 22.5067 310.529 21.26 311.516 20.26C312.503 19.2467 313.769 18.74 315.316 18.74C316.783 18.74 317.983 19.2533 318.916 20.28C319.863 21.3067 320.336 22.5533 320.336 24.02C320.336 24.2467 320.309 24.5467 320.256 24.92H312.296ZM312.276 23.16H318.156C318.009 22.3467 317.669 21.7333 317.136 21.32C316.616 20.9067 316.003 20.7 315.296 20.7C314.496 20.7 313.829 20.92 313.296 21.36C312.763 21.8 312.423 22.4 312.276 23.16ZM326.898 29.26C325.391 29.26 324.131 28.7533 323.118 27.74C322.118 26.7267 321.618 25.48 321.618 24C321.618 22.5067 322.118 21.26 323.118 20.26C324.131 19.2467 325.391 18.74 326.898 18.74C327.871 18.74 328.758 18.9733 329.558 19.44C330.358 19.9067 330.958 20.5333 331.358 21.32L329.498 22.4C329.271 21.92 328.925 21.5467 328.458 21.28C328.005 21 327.478 20.86 326.878 20.86C325.998 20.86 325.258 21.16 324.658 21.76C324.071 22.36 323.778 23.1067 323.778 24C323.778 24.8933 324.071 25.64 324.658 26.24C325.258 26.84 325.998 27.14 326.878 27.14C327.465 27.14 327.991 27 328.458 26.72C328.938 26.44 329.298 26.0667 329.538 25.6L331.398 26.66C330.971 27.46 330.358 28.0933 329.558 28.56C328.758 29.0267 327.871 29.26 326.898 29.26ZM338.539 21.08H336.059V25.88C336.059 26.2933 336.153 26.5933 336.339 26.78C336.526 26.9533 336.799 27.0533 337.159 27.08C337.533 27.0933 337.993 27.0867 338.539 27.06V29C336.886 29.2 335.699 29.06 334.979 28.58C334.259 28.0867 333.899 27.1867 333.899 25.88V21.08H332.059V19H333.899V16.84L336.059 16.2V19H338.539V21.08Z" fill="white"/>
<rect x="660.741" y="1.5" width="158.76" height="43.3777" rx="9.5" stroke="white"/>
<path d="M709.06 30.26C707.713 30.26 706.567 29.9533 705.62 29.34C704.687 28.7267 704.033 27.8867 703.66 26.82L705.64 25.66C706.2 27.2333 707.36 28.02 709.12 28.02C709.987 28.02 710.633 27.8533 711.06 27.52C711.5 27.1733 711.72 26.7267 711.72 26.18C711.72 25.6067 711.487 25.1733 711.02 24.88C710.553 24.5733 709.727 24.24 708.54 23.88C707.873 23.68 707.333 23.4933 706.92 23.32C706.507 23.1467 706.067 22.9067 705.6 22.6C705.147 22.28 704.807 21.8867 704.58 21.42C704.353 20.9533 704.24 20.4067 704.24 19.78C704.24 18.54 704.68 17.56 705.56 16.84C706.44 16.1067 707.5 15.74 708.74 15.74C709.86 15.74 710.84 16.0133 711.68 16.56C712.52 17.1067 713.167 17.86 713.62 18.82L711.68 19.94C711.093 18.6333 710.113 17.98 708.74 17.98C708.073 17.98 707.54 18.14 707.14 18.46C706.74 18.7667 706.54 19.1867 706.54 19.72C706.54 20.24 706.74 20.6533 707.14 20.96C707.553 21.2533 708.293 21.5667 709.36 21.9C709.893 22.0733 710.28 22.2067 710.52 22.3C710.773 22.38 711.12 22.5133 711.56 22.7C712.013 22.8867 712.353 23.0733 712.58 23.26C712.807 23.4467 713.047 23.68 713.3 23.96C713.567 24.24 713.753 24.56 713.86 24.92C713.967 25.28 714.02 25.6867 714.02 26.14C714.02 27.4067 713.56 28.4133 712.64 29.16C711.733 29.8933 710.54 30.26 709.06 30.26ZM722.621 20H724.781V30H722.621V28.72C721.968 29.7467 720.934 30.26 719.521 30.26C718.374 30.26 717.448 29.8933 716.741 29.16C716.034 28.4267 715.681 27.42 715.681 26.14V20H717.841V25.92C717.841 26.6667 718.041 27.24 718.441 27.64C718.841 28.04 719.388 28.24 720.081 28.24C720.841 28.24 721.454 28.0067 721.921 27.54C722.388 27.06 722.621 26.3333 722.621 25.36V20ZM732.027 30.26C730.52 30.26 729.26 29.7533 728.247 28.74C727.247 27.7267 726.747 26.48 726.747 25C726.747 23.5067 727.247 22.26 728.247 21.26C729.26 20.2467 730.52 19.74 732.027 19.74C733 19.74 733.887 19.9733 734.687 20.44C735.487 20.9067 736.087 21.5333 736.487 22.32L734.627 23.4C734.4 22.92 734.054 22.5467 733.587 22.28C733.134 22 732.607 21.86 732.007 21.86C731.127 21.86 730.387 22.16 729.787 22.76C729.2 23.36 728.907 24.1067 728.907 25C728.907 25.8933 729.2 26.64 729.787 27.24C730.387 27.84 731.127 28.14 732.007 28.14C732.594 28.14 733.12 28 733.587 27.72C734.067 27.44 734.427 27.0667 734.667 26.6L736.527 27.66C736.1 28.46 735.487 29.0933 734.687 29.56C733.887 30.0267 733 30.26 732.027 30.26ZM742.652 30.26C741.145 30.26 739.885 29.7533 738.872 28.74C737.872 27.7267 737.372 26.48 737.372 25C737.372 23.5067 737.872 22.26 738.872 21.26C739.885 20.2467 741.145 19.74 742.652 19.74C743.625 19.74 744.512 19.9733 745.312 20.44C746.112 20.9067 746.712 21.5333 747.112 22.32L745.252 23.4C745.025 22.92 744.679 22.5467 744.212 22.28C743.759 22 743.232 21.86 742.632 21.86C741.752 21.86 741.012 22.16 740.412 22.76C739.825 23.36 739.532 24.1067 739.532 25C739.532 25.8933 739.825 26.64 740.412 27.24C741.012 27.84 741.752 28.14 742.632 28.14C743.219 28.14 743.745 28 744.212 27.72C744.692 27.44 745.052 27.0667 745.292 26.6L747.152 27.66C746.725 28.46 746.112 29.0933 745.312 29.56C744.512 30.0267 743.625 30.26 742.652 30.26ZM750.257 25.92C750.417 26.68 750.784 27.2667 751.357 27.68C751.93 28.08 752.63 28.28 753.457 28.28C754.604 28.28 755.464 27.8667 756.037 27.04L757.817 28.08C756.83 29.5333 755.37 30.26 753.437 30.26C751.81 30.26 750.497 29.7667 749.497 28.78C748.497 27.78 747.997 26.52 747.997 25C747.997 23.5067 748.49 22.26 749.477 21.26C750.464 20.2467 751.73 19.74 753.277 19.74C754.744 19.74 755.944 20.2533 756.877 21.28C757.824 22.3067 758.297 23.5533 758.297 25.02C758.297 25.2467 758.27 25.5467 758.217 25.92H750.257ZM750.237 24.16H756.117C755.97 23.3467 755.63 22.7333 755.097 22.32C754.577 21.9067 753.964 21.7 753.257 21.7C752.457 21.7 751.79 21.92 751.257 22.36C750.724 22.8 750.384 23.4 750.237 24.16ZM761.747 22.76C761.747 23.0933 761.927 23.36 762.287 23.56C762.66 23.7467 763.107 23.9133 763.627 24.06C764.16 24.1933 764.694 24.3533 765.227 24.54C765.76 24.7267 766.207 25.0467 766.567 25.5C766.94 25.94 767.127 26.5 767.127 27.18C767.127 28.14 766.754 28.8933 766.007 29.44C765.274 29.9867 764.347 30.26 763.227 30.26C762.24 30.26 761.394 30.0533 760.687 29.64C759.98 29.2267 759.467 28.6533 759.147 27.92L761.007 26.84C761.354 27.8 762.094 28.28 763.227 28.28C764.36 28.28 764.927 27.9067 764.927 27.16C764.927 26.84 764.74 26.58 764.367 26.38C764.007 26.18 763.56 26.0133 763.027 25.88C762.507 25.7333 761.98 25.5667 761.447 25.38C760.914 25.1933 760.46 24.8867 760.087 24.46C759.727 24.02 759.547 23.4667 759.547 22.8C759.547 21.88 759.894 21.14 760.587 20.58C761.294 20.02 762.167 19.74 763.207 19.74C764.034 19.74 764.767 19.9267 765.407 20.3C766.06 20.66 766.56 21.1667 766.907 21.82L765.087 22.84C764.74 22.08 764.114 21.7 763.207 21.7C762.794 21.7 762.447 21.7933 762.167 21.98C761.887 22.1533 761.747 22.4133 761.747 22.76ZM770.36 22.76C770.36 23.0933 770.54 23.36 770.9 23.56C771.273 23.7467 771.72 23.9133 772.24 24.06C772.773 24.1933 773.307 24.3533 773.84 24.54C774.373 24.7267 774.82 25.0467 775.18 25.5C775.553 25.94 775.74 26.5 775.74 27.18C775.74 28.14 775.367 28.8933 774.62 29.44C773.887 29.9867 772.96 30.26 771.84 30.26C770.853 30.26 770.007 30.0533 769.3 29.64C768.593 29.2267 768.08 28.6533 767.76 27.92L769.62 26.84C769.967 27.8 770.707 28.28 771.84 28.28C772.973 28.28 773.54 27.9067 773.54 27.16C773.54 26.84 773.353 26.58 772.98 26.38C772.62 26.18 772.173 26.0133 771.64 25.88C771.12 25.7333 770.593 25.5667 770.06 25.38C769.527 25.1933 769.073 24.8867 768.7 24.46C768.34 24.02 768.16 23.4667 768.16 22.8C768.16 21.88 768.507 21.14 769.2 20.58C769.907 20.02 770.78 19.74 771.82 19.74C772.647 19.74 773.38 19.9267 774.02 20.3C774.673 20.66 775.173 21.1667 775.52 21.82L773.7 22.84C773.353 22.08 772.727 21.7 771.82 21.7C771.407 21.7 771.06 21.7933 770.78 21.98C770.5 22.1533 770.36 22.4133 770.36 22.76Z" fill="white"/>
<rect x="440.241" width="159.76" height="44.3777" rx="10" fill="#6637ED"/>
<path d="M472.02 29.26C469.913 29.26 468.167 28.5667 466.78 27.18C465.393 25.78 464.7 24.0533 464.7 22C464.7 19.9467 465.393 18.2267 466.78 16.84C468.167 15.44 469.913 14.74 472.02 14.74C473.287 14.74 474.453 15.04 475.52 15.64C476.6 16.24 477.44 17.0533 478.04 18.08L476.04 19.24C475.667 18.5467 475.12 18 474.4 17.6C473.693 17.1867 472.9 16.98 472.02 16.98C470.527 16.98 469.313 17.4533 468.38 18.4C467.46 19.3467 467 20.5467 467 22C467 23.4533 467.46 24.6533 468.38 25.6C469.313 26.5467 470.527 27.02 472.02 27.02C472.9 27.02 473.7 26.82 474.42 26.42C475.14 26.0067 475.68 25.4533 476.04 24.76L478.04 25.9C477.453 26.9267 476.62 27.7467 475.54 28.36C474.473 28.96 473.3 29.26 472.02 29.26ZM484.511 29.26C483.045 29.26 481.798 28.7533 480.771 27.74C479.745 26.7267 479.231 25.48 479.231 24C479.231 22.52 479.745 21.2733 480.771 20.26C481.798 19.2467 483.045 18.74 484.511 18.74C485.991 18.74 487.238 19.2467 488.251 20.26C489.278 21.2733 489.791 22.52 489.791 24C489.791 25.48 489.278 26.7267 488.251 27.74C487.238 28.7533 485.991 29.26 484.511 29.26ZM482.291 26.26C482.891 26.86 483.631 27.16 484.511 27.16C485.391 27.16 486.131 26.86 486.731 26.26C487.331 25.66 487.631 24.9067 487.631 24C487.631 23.0933 487.331 22.34 486.731 21.74C486.131 21.14 485.391 20.84 484.511 20.84C483.631 20.84 482.891 21.14 482.291 21.74C481.691 22.34 481.391 23.0933 481.391 24C481.391 24.9067 481.691 25.66 482.291 26.26ZM491.744 29V14.4H493.904V29H491.744ZM496.412 29V14.4H498.572V29H496.412ZM509 19H511.16V29H509V27.56C508.187 28.6933 507.02 29.26 505.5 29.26C504.127 29.26 502.954 28.7533 501.98 27.74C501.007 26.7133 500.52 25.4667 500.52 24C500.52 22.52 501.007 21.2733 501.98 20.26C502.954 19.2467 504.127 18.74 505.5 18.74C507.02 18.74 508.187 19.3 509 20.42V19ZM503.58 26.3C504.18 26.9 504.934 27.2 505.84 27.2C506.747 27.2 507.5 26.9 508.1 26.3C508.7 25.6867 509 24.92 509 24C509 23.08 508.7 22.32 508.1 21.72C507.5 21.1067 506.747 20.8 505.84 20.8C504.934 20.8 504.18 21.1067 503.58 21.72C502.98 22.32 502.68 23.08 502.68 24C502.68 24.92 502.98 25.6867 503.58 26.3ZM519.338 18.74C520.711 18.74 521.885 19.2467 522.858 20.26C523.831 21.2733 524.318 22.52 524.318 24C524.318 25.4667 523.831 26.7133 522.858 27.74C521.885 28.7533 520.711 29.26 519.338 29.26C517.818 29.26 516.651 28.6933 515.838 27.56V29H513.678V15H515.838V20.42C516.651 19.3 517.818 18.74 519.338 18.74ZM516.738 26.3C517.338 26.9 518.091 27.2 518.998 27.2C519.905 27.2 520.658 26.9 521.258 26.3C521.858 25.6867 522.158 24.92 522.158 24C522.158 23.08 521.858 22.32 521.258 21.72C520.658 21.1067 519.905 20.8 518.998 20.8C518.091 20.8 517.338 21.1067 516.738 21.72C516.138 22.32 515.838 23.08 515.838 24C515.838 24.92 516.138 25.6867 516.738 26.3ZM530.996 29.26C529.529 29.26 528.282 28.7533 527.256 27.74C526.229 26.7267 525.716 25.48 525.716 24C525.716 22.52 526.229 21.2733 527.256 20.26C528.282 19.2467 529.529 18.74 530.996 18.74C532.476 18.74 533.722 19.2467 534.736 20.26C535.762 21.2733 536.276 22.52 536.276 24C536.276 25.48 535.762 26.7267 534.736 27.74C533.722 28.7533 532.476 29.26 530.996 29.26ZM528.776 26.26C529.376 26.86 530.116 27.16 530.996 27.16C531.876 27.16 532.616 26.86 533.216 26.26C533.816 25.66 534.116 24.9067 534.116 24C534.116 23.0933 533.816 22.34 533.216 21.74C532.616 21.14 531.876 20.84 530.996 20.84C530.116 20.84 529.376 21.14 528.776 21.74C528.176 22.34 527.876 23.0933 527.876 24C527.876 24.9067 528.176 25.66 528.776 26.26ZM540.389 20.68C540.935 19.44 541.962 18.82 543.469 18.82V21.16C542.642 21.1067 541.922 21.3067 541.309 21.76C540.695 22.2 540.389 22.9333 540.389 23.96V29H538.229V19H540.389V20.68ZM552.516 19H554.676V29H552.516V27.56C551.703 28.6933 550.536 29.26 549.016 29.26C547.643 29.26 546.469 28.7533 545.496 27.74C544.523 26.7133 544.036 25.4667 544.036 24C544.036 22.52 544.523 21.2733 545.496 20.26C546.469 19.2467 547.643 18.74 549.016 18.74C550.536 18.74 551.703 19.3 552.516 20.42V19ZM547.096 26.3C547.696 26.9 548.449 27.2 549.356 27.2C550.263 27.2 551.016 26.9 551.616 26.3C552.216 25.6867 552.516 24.92 552.516 24C552.516 23.08 552.216 22.32 551.616 21.72C551.016 21.1067 550.263 20.8 549.356 20.8C548.449 20.8 547.696 21.1067 547.096 21.72C546.496 22.32 546.196 23.08 546.196 24C546.196 24.92 546.496 25.6867 547.096 26.3ZM562.774 21.08H560.294V25.88C560.294 26.2933 560.387 26.5933 560.574 26.78C560.76 26.9533 561.034 27.0533 561.394 27.08C561.767 27.0933 562.227 27.0867 562.774 27.06V29C561.12 29.2 559.934 29.06 559.214 28.58C558.494 28.0867 558.134 27.1867 558.134 25.88V21.08H556.294V19H558.134V16.84L560.294 16.2V19H562.774V21.08ZM566.023 24.92C566.183 25.68 566.549 26.2667 567.123 26.68C567.696 27.08 568.396 27.28 569.223 27.28C570.369 27.28 571.229 26.8667 571.803 26.04L573.583 27.08C572.596 28.5333 571.136 29.26 569.203 29.26C567.576 29.26 566.263 28.7667 565.263 27.78C564.263 26.78 563.763 25.52 563.763 24C563.763 22.5067 564.256 21.26 565.243 20.26C566.229 19.2467 567.496 18.74 569.043 18.74C570.509 18.74 571.709 19.2533 572.643 20.28C573.589 21.3067 574.063 22.5533 574.063 24.02C574.063 24.2467 574.036 24.5467 573.983 24.92H566.023ZM566.002 23.16H571.883C571.736 22.3467 571.396 21.7333 570.863 21.32C570.343 20.9067 569.729 20.7 569.023 20.7C568.223 20.7 567.556 20.92 567.023 21.36C566.489 21.8 566.149 22.4 566.002 23.16Z" fill="white"/>
<path d="M161 21H220M382 21H440.5M601.5 21H660.5" stroke="white"/>
</svg>
