<svg width="606" height="859" viewBox="0 0 606 859" fill="none" xmlns="http://www.w3.org/2000/svg">
<path d="M84.7029 196H253.663M32.04 217.577H305.229M-12.9429 247.931H351.674M-51.3429 284.503H389.709M-81.6971 326.194H418.234M-102.909 373.372H443.103M-118.269 422.743H456.634M-119 524.777H457M-106.2 573.783H444.2M422.623 620.96H-84.2571M-55.3657 663.017H393.366M357.16 699.589H-18.7943M22.8971 729.212H314.737M267.926 751.52H70.8057" stroke="#535353" stroke-opacity="0.64"/>
<path d="M463.719 473.674C463.719 636.279 331.902 768.096 169.296 768.096C6.69113 768.096 -125.126 636.279 -125.126 473.674C-125.126 311.068 6.69113 179.251 169.296 179.251C331.902 179.251 463.719 311.068 463.719 473.674Z" stroke="#535353" stroke-opacity="0.64"/>
<path fill-rule="evenodd" clip-rule="evenodd" d="M-72.0412 469.857C-6.57256 432.179 73.2429 393.302 150.667 361.515C226.72 330.29 306.92 303.015 377.731 283.657C448.659 264.268 509.8 252.925 547.889 253.338C557.382 253.441 565.279 254.275 571.459 255.825C577.696 257.389 581.791 259.585 584.136 262.104C586.308 264.438 587.268 267.35 586.621 271.368C585.94 275.596 583.457 281.046 578.463 287.853C568.489 301.447 549.432 319.217 519.254 341.681C493.161 361.105 458.935 383.906 415.453 410.411C413.621 411.51 411.793 412.607 410 413.683C402.853 417.971 396.261 421.928 392.157 424.394C390.73 425.252 389.601 425.931 388.855 426.382C388.483 426.607 388.2 426.778 388.021 426.887C387.939 426.937 387.856 426.988 387.796 427.025C387.782 427.035 387.751 427.054 387.715 427.078C387.695 427.091 387.646 427.124 387.615 427.146C387.553 427.19 387.311 427.38 387.138 427.536C385.904 430.769 389.42 434.444 391.316 434.224C391.48 434.159 391.699 434.06 391.757 434.03C391.832 433.992 391.894 433.957 391.903 433.952C392.174 433.8 394.32 432.524 398.841 429.827C405.988 425.564 412.914 421.389 419.622 417.299C420.641 416.688 421.661 416.076 422.678 415.466C432.812 409.384 442.563 403.528 446.711 401.02C447.735 400.401 448.452 399.965 448.739 399.786C448.777 399.762 448.822 399.733 448.866 399.705C448.878 399.697 448.895 399.686 448.915 399.673C448.929 399.664 448.944 399.653 448.961 399.642C448.981 399.629 449.025 399.598 449.051 399.579C449.091 399.55 449.197 399.47 449.263 399.416C449.374 399.321 449.767 398.877 450.114 398.368C479.683 379.639 504.178 362.943 524.062 348.141C554.4 325.558 574.249 307.208 584.955 292.616C590.301 285.33 593.601 278.671 594.571 272.649C595.574 266.417 594.052 260.939 590.03 256.618C586.181 252.482 580.373 249.758 573.418 248.014C566.407 246.256 557.826 245.393 547.977 245.286C508.695 244.86 446.637 256.472 375.608 275.89C304.464 295.339 223.952 322.722 147.609 354.066C69.8856 385.976 -10.2531 425.006 -76.0578 462.878C-108.959 481.813 -138.326 500.486 -162.036 517.862C-185.677 535.188 -203.949 551.406 -214.423 565.466C-219.65 572.483 -223.179 579.282 -224.235 585.66C-225.329 592.265 -223.735 598.333 -219.003 603.236C-214.463 607.938 -207.362 611.232 -198.059 613.382C-188.693 615.547 -176.673 616.646 -161.829 616.627C-102.572 616.551 -47.9903 607.978 123.107 564.127L121.818 562.838C-49.283 606.689 -103.697 608.5 -161.839 608.575C-176.345 608.593 -187.697 607.512 -196.246 605.536C-204.86 603.546 -210.22 600.74 -213.209 597.643C-216.006 594.746 -217.009 591.313 -216.291 586.976C-215.535 582.412 -212.845 576.827 -207.965 570.277C-198.227 557.204 -180.745 541.557 -157.276 524.357C-133.876 507.209 -104.777 488.696 -72.0412 469.857Z" stroke="#535353" stroke-opacity="0.64"/>
<path d="M182.196 566.915C178.043 567.795 171.935 567.76 161.663 567.234C157.486 567.02 152.632 566.725 146.952 566.381C145.662 566.303 144.33 566.222 142.953 566.139C135.946 565.716 127.795 565.236 118.277 564.746C133.674 556.346 145.861 549.892 155.258 545.293C164.984 540.532 171.677 537.782 175.838 536.9C184.02 535.167 192.085 540.473 193.842 548.767C195.599 557.061 190.378 565.181 182.196 566.915Z" stroke="#535353" stroke-opacity="0.64"/>
<path d="M-124.5 474.5H463.5" stroke="#535353" stroke-opacity="0.64"/>
</svg>
