<svg width="1920" height="1049" viewBox="0 0 1920 1049" fill="none" xmlns="http://www.w3.org/2000/svg">
<path d="M0 5H1579.63H1665.92M1917.61 5H1852.89M1852.89 5L1917.61 100.88M1852.89 5H1760.6M1760.6 5L1917.61 225.524M1760.6 5H1665.92M1665.92 5L1917.61 407.697" stroke="#797979"/>
<path d="M1576.03 5C1858.88 414.888 1453.78 434.064 1920 713.315C1605.51 719.067 511.359 718.908 3.5955 718.109M1492.13 5C1687.26 311.816 1156.55 515.562 1920 929.045M1399.85 5C1553.26 262.678 1016.8 509.809 1828.91 1066.87M1296.78 5C1413.82 215.936 1011.54 519.157 1576.03 1066.87M1196.11 5C1265.62 257.884 1013.94 550.318 1399.85 1066.87M1095.43 5C1095.43 213.539 1052.05 612.401 1233.26 1066.87M1107.42 1066.87C999.553 737.285 1036.71 157.21 999.553 5M976.781 1066.87L933.635 5M844.946 1066.87C872.511 872.715 915.418 388.521 866.519 5M709.515 1066.87C829.365 688.146 822.174 430.468 795.807 5M562.099 1066.87C844.946 678.558 699.927 233.195 709.515 5M384.72 1066.87C800.864 636.611 588.466 323.802 588.466 5M158.203 1066.87C886.818 538.333 354.757 267.472 492.585 5M396.705 5C173.783 383.727 810.923 472.416 3.5955 968.596C773.087 822.634 1294.38 837.959 1920 957.809M308.016 5C33.5581 437.659 427 515.562 3.5955 749.27M3.5955 370.543L219.326 5M3.5955 183.577L121.049 5M3.5955 44.5506L25.1686 5M1269.22 1066.87C1177.33 1050.09 930.039 1026.6 675.957 1066.87M305.619 1066.87C493.784 1003.35 1018.49 891.412 1659.93 1066.87M3.5955 1042.9C952.811 840.356 1199.7 905.075 1920 1033.31M3.5955 891.891C709.515 809.195 1072.66 781.629 1920 887.097M3.5955 828.371C662.773 766.049 1635.23 781.39 1920 828.371M1920 768.446C1345.92 743.277 170.427 751.187 3.5955 768.446M3.5955 671.367C588.466 700.131 1738.78 690.783 1920 662.978M3.5955 623.427C526.143 686.127 1640.03 660.82 1920 613.839M1920 569.494C1456.18 649.531 599.252 657.974 3.5955 577.884M1920 523.951C1562.85 564.7 969.59 688.879 3.5955 529.944M3.5955 486.798C509.364 555.112 860.526 674.963 1920 478.408M3.5955 443.652C912.062 633.793 1360.3 544.326 1920 443.652M3.5955 402.903C1155.36 688.112 1668.32 417.285 1920 402.903M3.5955 362.154C1003.15 599.457 1125.4 509.569 1920 362.154M3.5955 323.802C1239.25 708.521 1760.39 230.269 1920 323.802" stroke="#797979"/>
<path d="M1.1985 290.245C109.39 280.227 347.566 354.963 459.027 392.117C749.61 470.021 1182.92 474.813 1505.32 376.284C1790.57 275.862 1843.3 299.832 1918.81 290.245M1.1985 257.884C83.8953 266.274 81.4983 230.319 406.293 338.184C743.073 434.064 1003.21 485.69 1415.43 364.551C1745.02 241.105 1856.44 265.941 1918.81 257.884M1.1985 226.723C117.452 226.524 236.105 226.723 482.997 322.603C802.998 425.583 1072.66 419.682 1429.82 321.405C1712.66 213.54 1799.98 237.245 1918.81 229.12M1.1985 194.364C142.237 194.951 230.113 172.79 554.908 302.229C1016.33 449.562 1372.29 300.163 1415.43 280.655C1614.39 190.704 1864.06 200.7 1918.81 200.356M1.1985 165.599C140.164 162.245 389.514 170.393 554.908 257.884C1140.98 416.086 1453.79 211.142 1463.37 214.738C1701.88 154.813 1813.58 173.526 1918.81 172.79M1.1985 139.232C139.031 139.411 397.903 135.637 534.533 197.959C945.62 287.846 1085.85 293.839 1471.76 171.592C1574.13 139.164 1897.97 144.165 1918.81 145.225M1.1985 112.865C142.948 113.623 420.675 109.27 554.908 157.21C885.695 236.311 1101.43 219.532 1356.71 153.614C1488.54 109.27 1878.7 120.835 1918.81 120.056" stroke="#797979"/>
<path d="M2.397 87.6966C152.271 87.8983 471.012 93.6891 546.518 112.865C912.062 191.966 1180.53 145.225 1457.38 99.6817C1665.92 94.8876 1880.07 93.5165 1918.81 94.8876" stroke="#797979"/>
<rect width="1920" height="950" fill="url(#paint0_linear_1126_557)"/>
<defs>
<linearGradient id="paint0_linear_1126_557" x1="960" y1="0" x2="960" y2="1232" gradientUnits="userSpaceOnUse">
<stop stop-color="#1B1B1B"/>
<stop offset="0.453163" stop-color="#1B1B1B" stop-opacity="0"/>
<stop offset="1" stop-color="#1B1B1B"/>
</linearGradient>
</defs>
</svg>
